<?xml version="1.0" encoding="utf-8"?>
<!-- Generator: Adobe Illustrator 20.1.0, SVG Export Plug-In . SVG Version: 6.00 Build 0)  -->
<!DOCTYPE svg PUBLIC "-//W3C//DTD SVG 1.1//EN" "http://www.w3.org/Graphics/SVG/1.1/DTD/svg11.dtd">
<svg version="1.1" id="Layer_1" xmlns="http://www.w3.org/2000/svg" xmlns:xlink="http://www.w3.org/1999/xlink" x="0px" y="0px"
	 viewBox="0 0 512 512" style="enable-background:new 0 0 512 512;" xml:space="preserve">
<style type="text/css">
	.st0{fill:#556C11;}
</style>
<g>
	<g>
		<g>
			<path class="st0" d="M419.8,314h-0.4c-4.6,0-8.9-1.8-12.2-5L356.1,258c-3.3-3.3-5-7.6-5-12.2v-6.1c-10.1,2.8-27,11.5-44.7,23.5
				l-4.8,3.2L226,190.8l4.6-4.9c6.9-7.4,18.4-22.6,18.4-42.2c0-16.2,0-54.2-84.9-54.2c-7,0-13.2-4.2-15.9-10.6
				c-2.7-6.4-1.2-13.8,3.7-18.7c19.4-19.4,46-45.9,104.1-45.9c58.2,0,86.9,28.7,104,45.9l81.7,81.7c3.3,3.3,5,7.6,5,12.2v3.2h3.2
				c4.6,0,8.9,1.8,12.2,5L503,203c6.4,6.4,6.7,16.7,0.8,23.5l-71.5,81.7c-3.1,3.6-7.6,5.7-12.4,5.9L419.8,314z M356.9,224.8
				c0.6,0,1.2,0,1.8,0.1l6.4,0.6v20.4c0,0.8,0.3,1.7,1,2.3l51,51c0.6,0.6,1.4,0.9,2.3,0.9h0.2c0.8,0,1.6-0.4,2.2-1.1l71.5-81.7
				c1.1-1.3,1.1-3.2-0.1-4.4l-40.8-40.8c-0.6-0.6-1.4-0.9-2.3-0.9h-17.2v-17.2c0-0.8-0.3-1.7-1-2.3L350.1,70
				c-15.6-15.6-41.8-41.8-94.2-41.8c-52.3,0-75.5,23.1-94.1,41.7c-1,1-1.2,2.3-0.7,3.5c0.5,1.2,1.7,2,3,2c38.8,0,65.5,7.4,81.6,22.7
				c15.5,14.7,17.2,33,17.2,45.6c0,20.4-9.7,36.6-17.7,46.6l58.1,58C317.2,239.3,342,224.8,356.9,224.8z"/>
			<path class="st0" d="M63.7,497.8C30.8,497.8,4,471,4,438.1c0-16.9,6-32,17.5-43.4l199.7-199.7l75.5,75.5L107.8,478.3
				C96.5,490.7,80.4,497.8,63.7,497.8z M221.1,214.9L31.4,404.6C22.6,413.4,18,425,18,438.1c0,25.2,20.5,45.7,45.7,45.7
				c12.8,0,25.2-5.4,33.8-14.9L277.3,271L221.1,214.9z"/>
		</g>
	</g>
</g>
</svg>
