<?xml version="1.0" encoding="utf-8"?>
<!-- Generator: Adobe Illustrator 20.1.0, SVG Export Plug-In . SVG Version: 6.00 Build 0)  -->
<!DOCTYPE svg PUBLIC "-//W3C//DTD SVG 1.1//EN" "http://www.w3.org/Graphics/SVG/1.1/DTD/svg11.dtd">
<svg version="1.1" id="Capa_1" xmlns="http://www.w3.org/2000/svg" xmlns:xlink="http://www.w3.org/1999/xlink" x="0px" y="0px"
	 viewBox="0 0 512 512" style="enable-background:new 0 0 512 512;" xml:space="preserve">
<style type="text/css">
	.st0{fill:#FFDA44;}
</style>
<g>
	<path class="st0" d="M379.4,347.7c-15.3-7.9-19.2-21.3-21-36.4c-2.3-19.3-5.4-38.5-8.2-58.5c-18.3,4.5-35.9,8.8-53.6,13.1
		c-20.4,5-40.7,10.3-61.1,14.9c-60.8,13.8-121.7,27.4-182.6,41c-17.6,3.9-33.8-5.6-37.6-22.2c-3.7-16.2,6.3-31.9,23.6-36
		c43-10.2,86.1-20.1,129.1-30.1c3.8-0.9,5.9-2,6.5-6.4c3.3-22.6,16.3-37.1,38.5-42.7c44.5-11.3,89.1-22.5,133.7-33.3
		c28.2-6.8,53.4,6,62.4,30.7c4.2,11.5,3.7,22.9-0.3,34.5c-1.5,4.2-2.3,9.2-1.7,13.6c3.4,26,7.5,51.9,11.1,77.9
		c2.8,20.1-0.5,26.4-20.2,39.7c31.4,0,62,0,93.2,0c0,6.6,0,12.7,0,19.2c-158.6,0-317,0-475.9,0c0-6.3,0-12.4,0-19
		C137,347.7,258.2,347.7,379.4,347.7z M194.2,234.9c0.7,10-1.4,13-11.1,15.3c-46.4,11-92.8,21.9-139.2,32.9
		c-7.1,1.7-10.6,6.7-9.3,12.2c1.4,5.9,6.5,8.6,13.6,7c61.6-13.7,123.2-27.1,184.7-41.3c40.1-9.3,80-19.7,120-29.6
		c9.6-2.4,14.4,0.7,15.8,10.3c1.7,11.6,3.2,23.3,4.9,34.9c1.9,13.4,3.8,26.7,5.8,40c1.1,7.2,5.5,11.5,11,10.9
		c5.9-0.7,9.1-5.2,8.7-12.5c-0.1-1.5-0.2-3-0.4-4.5c-4.1-28.4-8.3-56.9-12.1-85.3c-0.5-3.9,0.1-8.6,1.8-12.2
		c5.6-11.4,5.6-22.4-2.4-32.3c-8.1-10-19.2-13.2-31.6-10.5c-15.1,3.3-30.1,7.2-45.1,10.9c-30.3,7.5-60.6,14.9-90.9,22.5
		C202.1,207.6,193.1,219.5,194.2,234.9z"/>
	<path class="st0" d="M412.4,148.5c0.1-21.9,17.7-39.4,39.6-39.5c21.5,0,39.6,17.9,39.7,39.6c0.2,21.7-18.3,40-40.2,39.8
		C429.8,188.2,412.3,170.3,412.4,148.5z M471.7,148.4c-0.2-10.8-9-19.6-19.6-19.7c-10.8,0-20.1,9.4-20,20.2
		c0.1,10.5,9.3,19.6,19.8,19.7C462.8,168.7,471.9,159.4,471.7,148.4z"/>
</g>
</svg>
