<?xml version="1.0" encoding="utf-8"?>
<!-- Generator: Adobe Illustrator 20.1.0, SVG Export Plug-In . SVG Version: 6.00 Build 0)  -->
<!DOCTYPE svg PUBLIC "-//W3C//DTD SVG 1.1//EN" "http://www.w3.org/Graphics/SVG/1.1/DTD/svg11.dtd">
<svg version="1.1" id="Capa_1" xmlns="http://www.w3.org/2000/svg" xmlns:xlink="http://www.w3.org/1999/xlink" x="0px" y="0px"
	 viewBox="0 0 512 512" style="enable-background:new 0 0 512 512;" xml:space="preserve">
<style type="text/css">
	.st0{fill:#FFDA44;}
</style>
<g>
	<path class="st0" d="M384.9,128.2c-19.7,0-38.6,0-57.9,0c0,51.5,0,102.6,0,153.6c38.1,10.2,49.2,41.1,45.6,64.7
		c-4.2,27.9-28.4,48.1-56.7,47.8c-28.6-0.3-51.2-20.4-55.5-49.9c-3.3-22.3,8.7-52.9,45.7-62.6c0-51,0-102.1,0-153.6
		c-23.8,0-47.3,0-71.2,0c0,65.1,0,129.9,0,194.6c11.5,2.3,13.1,4.4,13.1,16.1c0,7.5,0.1,15.1,0,22.6c-0.1,7.6-3.9,11.4-11.5,11.4
		c-29.9,0.1-59.8,0.1-89.7,0c-8,0-11.6-3.7-11.7-11.9c-0.1-7.5,0-15.1,0-22.6c0-11.3,1.8-13.5,13.1-15.5c0-64.7,0-129.4,0-194.7
		c-6.9,0-13.6,0-21,0c0,2.9,0,5.5,0,8.1c0,102.3,0,204.6,0,306.9c0,2.4,0.1,4.9-0.1,7.3c-0.5,6.7-3.8,10.1-10.6,10.2
		c-9.3,0.2-18.6,0.2-27.9,0c-6.7-0.1-10.1-3.5-10.7-10.2c-0.1-1.5-0.1-3.1-0.1-4.6c0-119.6,0-239.1,0-358.7c0-10,3.6-18.2,11.8-23.9
		c12.1-8.4,26.6-4.4,34,9.7c2.1,3.9,4.2,5.2,8.5,5.2c82.6-0.1,165.2-0.1,247.8-0.1c3.3,0,6,0.4,8-3.8c5.6-11.6,15.2-16.9,25.4-14.9
		c11,2.1,19.6,12.3,20.7,24.6c0.2,2.6,0.2,5.3,0.2,8c0,117.1,0,234.3,0,351.4c0,2.4,0.1,4.9-0.1,7.3c-0.5,7-3.5,9.9-10.5,10.1
		c-9.1,0.2-18.2,0.2-27.2,0c-7.2-0.1-10.6-3.4-11.2-10.4c-0.2-2.4-0.1-4.9-0.1-7.3c0-102.3,0-204.6,0-306.9
		C384.9,133.6,384.9,131,384.9,128.2z M214,323.2c0-65.1,0-129.8,0-194.9c-15,0-29.7,0-44.5,0c0,65.3,0,130,0,194.9
		C184.5,323.2,199,323.2,214,323.2z M106.8,440.3c0.1-1.4,0.3-2.4,0.3-3.5c0-116.4,0-232.8,0-349.2c0-3.3,0.8-8.1-4.4-8.1
		c-5.7-0.1-4.4,4.9-4.7,8.5c-0.1,0.7,0,1.3,0,2c0,114.4,0,228.8,0,343.2c0,2.4,0,4.7,0,7.1C101.3,440.3,103.9,440.3,106.8,440.3z
		 M414.1,440.5c0-2.3,0-4.1,0-5.8c0-115.1,0-230.3-0.1-345.4c0-3.8,1.6-9.9-4.7-9.6c-5.9,0.3-4.2,6.3-4.2,10.1
		c-0.1,114.5-0.1,228.9-0.1,343.4c0,2.4,0,4.7,0,7.3C408.3,440.5,410.8,440.5,414.1,440.5z M384.6,99.2c-86.2,0-171.6,0-257,0
		c0,3,0,5.3,0,7.8c85.9,0,171.4,0,257,0C384.6,104.2,384.6,101.8,384.6,99.2z M316.7,374.2c20,0,36.4-16.4,36.4-36.2
		c0-20.5-16.3-36.9-36.5-36.8c-19.8,0-36.2,16.2-36.4,35.6C280.1,357.9,296,374.3,316.7,374.2z M227.9,344c-24.4,0-48.2,0-72.3,0
		c0,2.9,0,5.4,0,8.2c24.3,0,48.2,0,72.3,0C227.9,349.3,227.9,346.9,227.9,344z"/>
	<path class="st0" d="M316.7,308.9c-16,0-28.9,12.5-29.1,28.3c-0.2,16.5,13,29.8,29.2,29.7c15.8-0.2,28.6-13,28.8-28.8
		C345.9,322,332.9,309,316.7,308.9z"/>
	<path class="st0" d="M316.7,308.9c16.2,0,29.1,13.1,29,29.2c-0.2,15.8-13,28.7-28.8,28.8c-16.2,0.2-29.4-13.2-29.2-29.7
		C287.9,321.4,300.7,308.9,316.7,308.9z"/>
</g>
</svg>
