<?xml version="1.0" encoding="utf-8"?>
<!-- Generator: Adobe Illustrator 20.1.0, SVG Export Plug-In . SVG Version: 6.00 Build 0)  -->
<!DOCTYPE svg PUBLIC "-//W3C//DTD SVG 1.1//EN" "http://www.w3.org/Graphics/SVG/1.1/DTD/svg11.dtd">
<svg version="1.1" id="Capa_1" xmlns="http://www.w3.org/2000/svg" xmlns:xlink="http://www.w3.org/1999/xlink" x="0px" y="0px"
	 viewBox="0 0 512 512" style="enable-background:new 0 0 512 512;" xml:space="preserve">
<style type="text/css">
	.st0{fill:none;}
	.st1{fill-rule:evenodd;clip-rule:evenodd;fill:#FFDA44;}
	.st2{fill:#FFDA44;}
</style>
<g>
	<g>
		<g>
			<rect x="11.5" y="256" class="st0" width="75" height="62.5"/>
		</g>
		<rect x="46.3" y="260.6" class="st1" width="7.5" height="11.6"/>
		<rect x="46.3" y="281.4" class="st1" width="7.5" height="11.6"/>
		<rect x="46.3" y="302.2" class="st1" width="7.5" height="11.6"/>
	</g>
	<g>
		<g>
			<rect x="11.5" y="193.5" class="st0" width="75" height="62.5"/>
		</g>
		<rect x="46.3" y="198.1" class="st1" width="7.5" height="11.6"/>
		<rect x="46.3" y="218.9" class="st1" width="7.5" height="11.6"/>
		<rect x="46.3" y="239.7" class="st1" width="7.5" height="11.6"/>
	</g>
	<g>
		<g>
			<path class="st0" d="M71.8,197.8c0,0,0.5,0.2,1.5,0.6c0.5,0.2,1,0.5,1.7,0.8c0.3,0.1,0.7,0.3,1,0.5c0.4,0.2,0.7,0.4,1.1,0.6
				c3.1,1.6,7.1,4,10.8,7c3.7,2.9,7,6.3,9.2,9c1.1,1.4,2,2.5,2.6,3.4c0.6,0.8,0.9,1.3,0.9,1.3l61.9-42.3c0,0-0.7-1-2-2.9
				c-1.3-1.9-3.3-4.4-5.7-7.4c-1.3-1.5-2.6-3-4.1-4.7c-1.5-1.6-3.1-3.3-4.8-5c-1.7-1.7-3.5-3.4-5.4-5.1c-1.9-1.6-3.8-3.4-5.8-4.9
				c-8-6.4-16.8-11.8-23.7-15.3c-0.9-0.4-1.7-0.9-2.5-1.3c-0.8-0.4-1.6-0.7-2.3-1c-1.4-0.6-2.7-1.2-3.7-1.7
				c-2.1-0.8-3.3-1.3-3.3-1.3L71.8,197.8z"/>
		</g>
		<path class="st1" d="M123.8,185.9l-5.5,5.1c0,0,0.5,0.5,1.1,1.2c0.6,0.7,1.5,1.7,2.4,2.7c0.9,1,1.6,2.1,2.3,2.8
			c0.6,0.8,1,1.3,1,1.3l6-4.5c0,0-0.4-0.6-1.1-1.4c-0.7-0.8-1.5-2-2.5-3.1c-0.9-1.1-1.9-2.2-2.6-3
			C124.3,186.4,123.8,185.9,123.8,185.9z"/>
		<path class="st1" d="M108.5,172.4l-4.4,6.1c0,0,0.5,0.4,1.3,1c0.8,0.6,1.8,1.4,2.9,2.2c1.1,0.8,2,1.7,2.8,2.3
			c0.7,0.6,1.2,1.1,1.2,1.1l5-5.6c0,0-0.5-0.5-1.3-1.2c-0.8-0.7-1.9-1.6-3-2.5c-1.1-0.9-2.2-1.8-3.1-2.4
			C109.1,172.8,108.5,172.4,108.5,172.4z"/>
		<path class="st1" d="M90.9,162.3l-3.1,6.8c0,0,0.6,0.3,1.5,0.7c0.9,0.4,2.1,1,3.2,1.6c0.6,0.3,1.2,0.6,1.7,0.9
			c0.5,0.3,1,0.6,1.5,0.8c0.9,0.5,1.4,0.8,1.4,0.8l3.8-6.5c0,0-0.6-0.4-1.5-0.9c-0.5-0.3-1-0.6-1.6-0.9c-0.6-0.3-1.2-0.6-1.9-1
			c-1.3-0.6-2.5-1.3-3.5-1.7C91.5,162.6,90.9,162.3,90.9,162.3z"/>
	</g>
	<g>
		<g>
			<path class="st0" d="M100.7,220.9c0,0,0.1,0.1,0.2,0.3c0.1,0.2,0.4,0.6,0.6,1c0.3,0.4,0.6,1,1,1.6c0.4,0.6,0.8,1.3,1.2,2.1
				c1.7,3.1,3.7,7.3,5,11.8c1.4,4.4,2.1,9,2.5,12.5c0.1,0.9,0.1,1.7,0.2,2.4c0,0.7,0,1.3,0.1,1.9c0,1,0.1,1.6,0.1,1.6l75,0
				c0,0,0-1.3-0.1-3.5c0-1.1,0-2.5-0.1-4c-0.1-1.6-0.3-3.3-0.4-5.2c-0.7-7.7-2.4-17.9-5.5-27.7c-3-9.9-7.3-19.3-11.1-26
				c-1-1.7-1.8-3.2-2.6-4.6c-0.8-1.3-1.6-2.5-2.2-3.4c-0.6-0.9-1.1-1.7-1.4-2.2c-0.3-0.5-0.5-0.8-0.5-0.8L100.7,220.9z"/>
		</g>
		<path class="st1" d="M150.4,240.1l-7.4,1.2c0,0,0,0.2,0.1,0.4c0,0.3,0.1,0.7,0.2,1.2c0.1,1,0.3,2.3,0.4,3.6
			c0.1,1.3,0.2,2.6,0.3,3.6c0.1,1,0.1,1.6,0.1,1.6l7.5-0.3c0,0,0-0.7-0.1-1.8c-0.1-1.1-0.2-2.5-0.3-3.9c-0.2-1.4-0.4-2.8-0.5-3.9
			c-0.1-0.5-0.1-1-0.2-1.3C150.5,240.3,150.4,240.1,150.4,240.1z"/>
		<path class="st1" d="M145.3,220.4l-7,2.6c0,0,0.1,0.2,0.2,0.4c0.1,0.3,0.2,0.7,0.4,1.1c0.3,0.9,0.8,2.2,1.2,3.4
			c0.4,1.3,0.7,2.5,1,3.5c0.1,0.5,0.3,0.9,0.3,1.2c0.1,0.3,0.1,0.4,0.1,0.4l7.3-1.8c0,0,0-0.2-0.1-0.5c-0.1-0.3-0.2-0.7-0.3-1.2
			c-0.3-1-0.7-2.4-1.1-3.8c-0.4-1.4-0.9-2.7-1.2-3.7c-0.2-0.5-0.3-0.9-0.4-1.2C145.4,220.6,145.3,220.4,145.3,220.4z"/>
		<path class="st1" d="M136.3,202.1l-6.4,3.9c0,0,0.4,0.5,0.9,1.4c0.5,0.9,1.2,2,1.8,3.1c0.6,1.2,1.2,2.3,1.7,3.2
			c0.5,0.9,0.7,1.5,0.7,1.5l6.8-3.2c0,0-0.3-0.7-0.8-1.6c-0.5-0.9-1.1-2.2-1.8-3.5c-0.7-1.2-1.4-2.5-2-3.4
			C136.7,202.7,136.3,202.1,136.3,202.1z"/>
	</g>
	<g>
		<g>
			<path class="st0" d="M111.5,256c0,0,0,0.6-0.1,1.6c0,0.5,0,1.1-0.1,1.9c-0.1,0.7-0.1,1.5-0.2,2.4c-0.3,3.5-1.1,8.1-2.5,12.5
				c-1.4,4.4-3.3,8.7-5,11.8c-0.4,0.8-0.8,1.5-1.2,2.1c-0.4,0.6-0.7,1.1-1,1.6c-0.3,0.4-0.5,0.8-0.6,1c-0.1,0.2-0.2,0.3-0.2,0.3
				l61.9,42.3c0,0,0.2-0.3,0.5-0.8c0.3-0.5,0.8-1.2,1.4-2.2c0.6-0.9,1.4-2.1,2.2-3.4c0.8-1.4,1.7-2.9,2.6-4.6
				c3.7-6.7,8.1-16.1,11.1-26c3.1-9.8,4.8-20,5.5-27.7c0.1-1.9,0.3-3.7,0.4-5.2c0.1-1.6,0.1-2.9,0.1-4c0-2.2,0.1-3.5,0.1-3.5
				L111.5,256z"/>
		</g>
		<path class="st1" d="M141.7,300l-6.8-3.2c0,0-0.1,0.2-0.2,0.4c-0.1,0.3-0.3,0.6-0.5,1.1c-0.5,0.9-1.1,2.1-1.7,3.2
			c-0.7,1.1-1.3,2.3-1.8,3.1c-0.5,0.9-0.9,1.4-0.9,1.4l6.4,4c0,0,0.4-0.6,0.9-1.5c0.5-0.9,1.2-2.2,2-3.4c0.7-1.3,1.3-2.5,1.8-3.5
			c0.2-0.5,0.4-0.9,0.6-1.1C141.7,300.1,141.7,300,141.7,300z"/>
		<path class="st1" d="M148.6,280.8l-7.3-1.8c0,0-0.1,0.6-0.4,1.6c-0.3,1-0.6,2.2-1,3.5c-0.4,1.3-0.8,2.5-1.2,3.4
			c-0.2,0.5-0.3,0.9-0.4,1.1c-0.1,0.3-0.2,0.4-0.2,0.4l7,2.6c0,0,0.1-0.2,0.2-0.5c0.1-0.3,0.2-0.7,0.4-1.2c0.3-1,0.8-2.4,1.2-3.7
			c0.4-1.4,0.8-2.7,1.1-3.8C148.5,281.5,148.6,280.8,148.6,280.8z"/>
		<path class="st1" d="M151.5,260.6l-7.5-0.3c0,0,0,0.7-0.1,1.6c-0.1,1-0.2,2.3-0.3,3.6c-0.2,1.3-0.3,2.6-0.5,3.6
			c-0.1,0.5-0.1,0.9-0.2,1.2c0,0.3-0.1,0.4-0.1,0.4l7.4,1.2c0,0,0-0.2,0.1-0.5c0-0.3,0.1-0.8,0.2-1.3c0.1-1.1,0.3-2.5,0.5-3.9
			c0.1-1.4,0.2-2.8,0.3-3.9C151.5,261.4,151.5,260.6,151.5,260.6z"/>
	</g>
	<g>
		<g>
			<path class="st0" d="M100.7,291.1c0,0-0.3,0.5-0.9,1.3c-0.6,0.9-1.5,2-2.6,3.4c-2.2,2.7-5.5,6.1-9.2,9c-3.7,2.9-7.7,5.4-10.8,7
				c-0.4,0.2-0.8,0.4-1.1,0.6c-0.4,0.2-0.7,0.3-1,0.5c-0.6,0.3-1.2,0.6-1.7,0.8c-0.9,0.4-1.5,0.6-1.5,0.6l27.5,69.7
				c0,0,1.2-0.5,3.3-1.3c1-0.5,2.3-1,3.7-1.7c0.7-0.3,1.5-0.7,2.3-1c0.8-0.4,1.6-0.8,2.5-1.3c6.9-3.5,15.7-8.8,23.7-15.3
				c2-1.6,3.9-3.3,5.8-4.9c1.9-1.7,3.7-3.4,5.4-5.1c1.7-1.7,3.3-3.4,4.8-5c1.4-1.7,2.8-3.2,4.1-4.7c2.4-3,4.4-5.5,5.7-7.4
				c1.3-1.8,2-2.9,2-2.9L100.7,291.1z"/>
		</g>
		<path class="st1" d="M100.9,344.5l-3.8-6.5c0,0-0.6,0.3-1.4,0.8c-0.4,0.2-0.9,0.5-1.5,0.8c-0.6,0.3-1.1,0.6-1.7,0.9
			c-1.2,0.6-2.3,1.2-3.3,1.6c-0.9,0.4-1.5,0.7-1.5,0.7l3.1,6.8c0,0,0.6-0.3,1.6-0.7c1-0.4,2.2-1.1,3.5-1.7c0.6-0.3,1.3-0.7,1.9-1
			c0.6-0.3,1.1-0.6,1.6-0.9C100.3,344.9,100.9,344.5,100.9,344.5z"/>
		<path class="st1" d="M117.4,332.5l-5-5.6c0,0-0.5,0.4-1.2,1.1c-0.7,0.6-1.7,1.5-2.8,2.3c-1,0.8-2.1,1.7-2.9,2.2
			c-0.8,0.6-1.3,1-1.3,1l4.4,6.1c0,0,0.6-0.4,1.4-1c0.9-0.6,2-1.5,3.1-2.4c1.1-0.9,2.2-1.8,3-2.5C116.8,333,117.4,332.5,117.4,332.5
			z"/>
		<path class="st1" d="M131.1,317.5l-6-4.5c0,0-0.4,0.5-1,1.3c-0.6,0.8-1.4,1.8-2.3,2.8c-0.9,1-1.7,2-2.4,2.7
			c-0.7,0.7-1.1,1.2-1.1,1.2l5.5,5.1c0,0,0.5-0.5,1.2-1.3c0.7-0.8,1.6-1.9,2.6-3c0.9-1.1,1.8-2.2,2.5-3
			C130.7,318.1,131.1,317.5,131.1,317.5z"/>
	</g>
	<g>
		<rect x="45.8" y="175.8" class="st1" width="7.5" height="12.5"/>
		<path class="st1" d="M45.8,153.3v12.5h7.5v-5c0,0,0.1,0,0.2,0c0.1,0,0.2,0,0.2,0h0h0c-0.2,0.1-0.1,0.1-0.2,0.1l0,0l0,0l0,0l0,0
			l0.1,0c0.1,0,0.1,0,0.2,0c0.4,0,1,0.1,1.6,0.1c1.2,0.1,2.4,0.2,2.4,0.2l0.7-7.5c0,0-0.8-0.1-2-0.2c-0.6,0-1.3-0.1-2-0.2l-0.3,0
			l-0.3,0c-0.2,0-0.4,0-0.6,0c-0.4,0-0.8,0-1.2,0c-0.8,0-1.6,0-2.4-0.1c-0.2,0-0.4,0-0.6,0c-0.2,0-0.4,0-0.5,0c-0.3,0-0.7,0-0.9,0
			C46.6,153.3,45.8,153.3,45.8,153.3z"/>
		<path class="st1" d="M68.7,155.3l-1.4,7.4c0,0,0.2,0,0.5,0.1c0.1,0,0.2,0,0.3,0c0,0,0.1,0,0.2,0c0.1,0,0.1,0,0.2,0
			c0.2,0.1,0.5,0.1,0.7,0.2c0.5,0.1,1.2,0.3,1.9,0.4c0.3,0.1,0.7,0.2,1,0.2l0.5,0.1l0.3,0.1l0.3,0.1c1.4,0.4,2.9,0.8,3.9,1.1
			l0.2,0.1l0.2,0.1c0.1,0,0.2,0.1,0.3,0.1c0.2,0.1,0.4,0.1,0.6,0.2c0.3,0.1,0.5,0.2,0.5,0.2l2.4-7.1c0,0-0.2-0.1-0.5-0.2
			c-0.2-0.1-0.4-0.1-0.6-0.2c-0.1,0-0.2-0.1-0.4-0.1l-0.2-0.1l-0.2-0.1c-1.2-0.3-2.7-0.8-4.2-1.2l-0.3-0.1l-0.3-0.1l-0.6-0.1
			c-0.4-0.1-0.8-0.2-1.1-0.3c-0.7-0.2-1.4-0.3-2-0.5c-0.3-0.1-0.6-0.1-0.8-0.2c-0.1,0-0.1,0-0.2,0c-0.1,0-0.1,0-0.2,0
			c-0.1,0-0.2,0-0.3-0.1C68.9,155.3,68.7,155.3,68.7,155.3z"/>
	</g>
	<g>
		<path class="st1" d="M81.8,353.8l-2.4-7.1c0,0-0.7,0.2-1.8,0.6l-0.2,0.1l-0.2,0.1c-0.1,0-0.3,0.1-0.5,0.1c-0.3,0.1-0.6,0.2-1,0.3
			c-0.7,0.2-1.4,0.4-2.1,0.6l-0.5,0.2l-0.3,0.1l-0.3,0.1c-0.4,0.1-0.7,0.2-1.1,0.2c-0.7,0.2-1.3,0.3-1.9,0.4c-0.5,0.1-1,0.2-1.3,0.3
			c-0.3,0.1-0.5,0.1-0.5,0.1l1.5,7.4c0,0,0.2,0,0.5-0.1c0.3-0.1,0.8-0.2,1.4-0.3c0.6-0.1,1.3-0.3,2-0.5c0.4-0.1,0.7-0.2,1.1-0.3
			l0.3-0.1l0.3-0.1l0.6-0.2c0.8-0.2,1.6-0.4,2.3-0.6c0.4-0.1,0.7-0.2,1-0.3c0.2,0,0.3-0.1,0.5-0.1l0.2-0.1l0.2-0.1
			C81,354.1,81.8,353.8,81.8,353.8z"/>
		<path class="st1" d="M46.3,359.2c0,0,0.8,0,2,0c0.1,0,0.3,0,0.5,0c0.2,0,0.3,0,0.5,0c0.3,0,0.7,0,1.1,0c0.8,0,1.6,0,2.4-0.1
			c0.4,0,0.8,0,1.2,0l0.3,0l0.1,0l0.1,0c0.2,0,0.4,0,0.6,0c0.8-0.1,1.5-0.1,2.1-0.2c1.2-0.1,2-0.2,2-0.2l-0.7-7.5
			c0,0-1.2,0.1-2.4,0.2c-0.6,0-1.2,0.1-1.6,0.1c-0.1,0-0.2,0-0.3,0c-0.1,0-0.2,0-0.2,0c-0.1,0-0.2,0-0.2,0s0-0.1,0-0.2
			c0-0.1,0-0.2,0-0.2l0,0l0,0c0.2,0.1,0.2,0.1,0.2,0.1v0v0v0v0V351c0-0.1,0-0.1,0-0.2c0-0.5,0-1.1,0-1.7c0-1.2,0-2.5,0-2.5h-7.5
			V359.2z"/>
		<rect x="46.3" y="324.2" class="st1" width="7.5" height="12.5"/>
	</g>
</g>
<g>
	<g>
		<g>
			<rect x="425.5" y="193.5" class="st0" width="75" height="62.5"/>
		</g>
		<rect x="458.2" y="239.8" class="st1" width="7.5" height="11.6"/>
		<rect x="458.2" y="219" class="st1" width="7.5" height="11.6"/>
		<rect x="458.2" y="198.2" class="st1" width="7.5" height="11.6"/>
	</g>
	<g>
		<g>
			<rect x="425.5" y="256" class="st0" width="75" height="62.5"/>
		</g>
		<rect x="458.2" y="302.3" class="st1" width="7.5" height="11.6"/>
		<rect x="458.2" y="281.5" class="st1" width="7.5" height="11.6"/>
		<rect x="458.2" y="260.7" class="st1" width="7.5" height="11.6"/>
	</g>
	<g>
		<g>
			<path class="st0" d="M440.2,314.2c0,0-0.5-0.2-1.5-0.6c-0.5-0.2-1-0.5-1.7-0.8c-0.3-0.1-0.7-0.3-1-0.5c-0.4-0.2-0.7-0.4-1.1-0.6
				c-3.1-1.6-7.1-4-10.8-7c-3.7-2.9-7-6.3-9.2-9c-1.1-1.4-2-2.5-2.6-3.4c-0.6-0.8-0.9-1.3-0.9-1.3l-61.9,42.3c0,0,0.7,1,2,2.9
				c1.3,1.9,3.3,4.4,5.7,7.4c1.3,1.5,2.6,3,4.1,4.7c1.5,1.6,3.1,3.3,4.8,5c1.7,1.7,3.5,3.4,5.4,5.1c1.9,1.6,3.8,3.4,5.8,4.9
				c8,6.4,16.8,11.8,23.7,15.3c0.9,0.4,1.7,0.9,2.5,1.3c0.8,0.4,1.6,0.7,2.3,1c1.4,0.6,2.7,1.2,3.7,1.7c2.1,0.8,3.3,1.3,3.3,1.3
				L440.2,314.2z"/>
		</g>
		<path class="st1" d="M388.2,326.2l5.5-5.1c0,0-0.5-0.5-1.1-1.2c-0.6-0.7-1.5-1.7-2.4-2.7c-0.9-1-1.6-2.1-2.3-2.8
			c-0.6-0.8-1-1.3-1-1.3l-6,4.5c0,0,0.4,0.6,1.1,1.4c0.7,0.8,1.5,2,2.5,3.1c0.9,1.1,1.9,2.2,2.6,3
			C387.7,325.6,388.2,326.2,388.2,326.2z"/>
		<path class="st1" d="M403.5,339.6l4.4-6.1c0,0-0.5-0.4-1.3-1c-0.8-0.6-1.8-1.4-2.9-2.2c-1.1-0.8-2-1.7-2.8-2.3
			c-0.7-0.6-1.2-1.1-1.2-1.1l-5,5.6c0,0,0.5,0.5,1.3,1.2c0.8,0.7,1.9,1.6,3,2.5c1.1,0.9,2.2,1.8,3.1,2.4
			C402.9,339.2,403.5,339.6,403.5,339.6z"/>
		<path class="st1" d="M421.1,349.7l3.1-6.8c0,0-0.6-0.3-1.5-0.7c-0.9-0.4-2.1-1-3.2-1.6c-0.6-0.3-1.2-0.6-1.7-0.9
			c-0.5-0.3-1-0.6-1.5-0.8c-0.9-0.5-1.4-0.8-1.4-0.8l-3.8,6.5c0,0,0.6,0.4,1.5,0.9c0.5,0.3,1,0.6,1.6,0.9c0.6,0.3,1.2,0.6,1.9,1
			c1.3,0.6,2.5,1.3,3.5,1.7C420.5,349.4,421.1,349.7,421.1,349.7z"/>
	</g>
	<g>
		<g>
			<path class="st0" d="M411.3,291.1c0,0-0.1-0.1-0.2-0.3c-0.1-0.2-0.4-0.6-0.6-1c-0.3-0.4-0.6-1-1-1.6c-0.4-0.6-0.8-1.3-1.2-2.1
				c-1.7-3.1-3.7-7.3-5-11.8c-1.4-4.4-2.1-9-2.5-12.5c-0.1-0.9-0.1-1.7-0.2-2.4c0-0.7,0-1.3-0.1-1.9c0-1-0.1-1.6-0.1-1.6l-75,0
				c0,0,0,1.3,0.1,3.5c0,1.1,0,2.5,0.1,4c0.1,1.6,0.3,3.3,0.4,5.2c0.7,7.7,2.4,17.9,5.5,27.7c3,9.9,7.3,19.3,11.1,26
				c1,1.7,1.8,3.2,2.6,4.6c0.8,1.3,1.6,2.5,2.2,3.4c0.6,0.9,1.1,1.7,1.4,2.2c0.3,0.5,0.5,0.8,0.5,0.8L411.3,291.1z"/>
		</g>
		<path class="st1" d="M361.6,271.9l7.4-1.2c0,0,0-0.2-0.1-0.4c0-0.3-0.1-0.7-0.2-1.2c-0.1-1-0.3-2.3-0.4-3.6
			c-0.1-1.3-0.2-2.6-0.3-3.6c-0.1-1-0.1-1.6-0.1-1.6l-7.5,0.3c0,0,0,0.7,0.1,1.8c0.1,1.1,0.2,2.5,0.3,3.9c0.2,1.4,0.4,2.8,0.5,3.9
			c0.1,0.5,0.1,1,0.2,1.3C361.5,271.7,361.6,271.9,361.6,271.9z"/>
		<path class="st1" d="M366.7,291.6l7-2.6c0,0-0.1-0.2-0.2-0.4c-0.1-0.3-0.2-0.7-0.4-1.1c-0.3-0.9-0.8-2.2-1.2-3.4
			c-0.4-1.3-0.7-2.5-1-3.5c-0.1-0.5-0.3-0.9-0.3-1.2c-0.1-0.3-0.1-0.4-0.1-0.4l-7.3,1.8c0,0,0,0.2,0.1,0.5c0.1,0.3,0.2,0.7,0.3,1.2
			c0.3,1,0.7,2.4,1.1,3.8c0.4,1.4,0.9,2.7,1.2,3.7c0.2,0.5,0.3,0.9,0.4,1.2C366.6,291.4,366.7,291.6,366.7,291.6z"/>
		<path class="st1" d="M375.7,309.9l6.4-3.9c0,0-0.4-0.5-0.9-1.4c-0.5-0.9-1.2-2-1.8-3.1c-0.6-1.2-1.2-2.3-1.7-3.2
			c-0.5-0.9-0.7-1.5-0.7-1.5l-6.8,3.2c0,0,0.3,0.7,0.8,1.6c0.5,0.9,1.1,2.2,1.8,3.5c0.7,1.2,1.4,2.5,2,3.4
			C375.3,309.3,375.7,309.9,375.7,309.9z"/>
	</g>
	<g>
		<g>
			<path class="st0" d="M400.5,256c0,0,0-0.6,0.1-1.6c0-0.5,0-1.1,0.1-1.9c0.1-0.7,0.1-1.5,0.2-2.4c0.3-3.5,1.1-8.1,2.5-12.5
				c1.4-4.4,3.3-8.7,5-11.8c0.4-0.8,0.8-1.5,1.2-2.1c0.4-0.6,0.7-1.1,1-1.6c0.3-0.4,0.5-0.8,0.6-1c0.1-0.2,0.2-0.3,0.2-0.3
				l-61.9-42.3c0,0-0.2,0.3-0.5,0.8c-0.3,0.5-0.8,1.2-1.4,2.2c-0.6,0.9-1.4,2.1-2.2,3.4c-0.8,1.4-1.7,2.9-2.6,4.6
				c-3.7,6.7-8.1,16.1-11.1,26c-3.1,9.8-4.8,20-5.5,27.7c-0.1,1.9-0.3,3.7-0.4,5.2c-0.1,1.6-0.1,2.9-0.1,4c0,2.2-0.1,3.5-0.1,3.5
				L400.5,256z"/>
		</g>
		<path class="st1" d="M370.3,212l6.8,3.2c0,0,0.1-0.2,0.2-0.4c0.1-0.3,0.3-0.6,0.5-1.1c0.5-0.9,1.1-2.1,1.7-3.2
			c0.7-1.1,1.3-2.3,1.8-3.1c0.5-0.9,0.9-1.4,0.9-1.4l-6.4-4c0,0-0.4,0.6-0.9,1.5c-0.5,0.9-1.2,2.2-2,3.4c-0.7,1.3-1.3,2.5-1.8,3.5
			c-0.2,0.5-0.4,0.9-0.6,1.1C370.3,211.9,370.3,212,370.3,212z"/>
		<path class="st1" d="M363.4,231.2l7.3,1.8c0,0,0.1-0.6,0.4-1.6c0.3-1,0.6-2.2,1-3.5c0.4-1.3,0.8-2.5,1.2-3.4
			c0.2-0.5,0.3-0.9,0.4-1.1c0.1-0.3,0.2-0.4,0.2-0.4l-7-2.6c0,0-0.1,0.2-0.2,0.5c-0.1,0.3-0.2,0.7-0.4,1.2c-0.3,1-0.8,2.4-1.2,3.7
			c-0.4,1.4-0.8,2.7-1.1,3.8C363.5,230.5,363.4,231.2,363.4,231.2z"/>
		<path class="st1" d="M360.5,251.4l7.5,0.3c0,0,0-0.7,0.1-1.6c0.1-1,0.2-2.3,0.3-3.6c0.2-1.3,0.3-2.6,0.5-3.6
			c0.1-0.5,0.1-0.9,0.2-1.2c0-0.3,0.1-0.4,0.1-0.4l-7.4-1.2c0,0,0,0.2-0.1,0.5c0,0.3-0.1,0.8-0.2,1.3c-0.1,1.1-0.3,2.5-0.5,3.9
			c-0.1,1.4-0.2,2.8-0.3,3.9C360.5,250.6,360.5,251.4,360.5,251.4z"/>
	</g>
	<g>
		<g>
			<path class="st0" d="M411.3,220.9c0,0,0.3-0.5,0.9-1.3c0.6-0.9,1.5-2,2.6-3.4c2.2-2.7,5.5-6.1,9.2-9c3.7-2.9,7.7-5.4,10.8-7
				c0.4-0.2,0.8-0.4,1.1-0.6c0.4-0.2,0.7-0.3,1-0.5c0.6-0.3,1.2-0.6,1.7-0.8c0.9-0.4,1.5-0.6,1.5-0.6l-27.5-69.7
				c0,0-1.2,0.5-3.3,1.3c-1,0.5-2.3,1-3.7,1.7c-0.7,0.3-1.5,0.7-2.3,1c-0.8,0.4-1.6,0.8-2.5,1.3c-6.9,3.5-15.7,8.8-23.7,15.3
				c-2,1.6-3.9,3.3-5.8,4.9c-1.9,1.7-3.7,3.4-5.4,5.1c-1.7,1.7-3.3,3.4-4.8,5c-1.4,1.7-2.8,3.2-4.1,4.7c-2.4,3-4.4,5.5-5.7,7.4
				c-1.3,1.8-2,2.9-2,2.9L411.3,220.9z"/>
		</g>
		<path class="st1" d="M411.1,167.5l3.8,6.5c0,0,0.6-0.3,1.4-0.8c0.4-0.2,0.9-0.5,1.5-0.8c0.6-0.3,1.1-0.6,1.7-0.9
			c1.2-0.6,2.3-1.2,3.3-1.6c0.9-0.4,1.5-0.7,1.5-0.7l-3.1-6.8c0,0-0.6,0.3-1.6,0.7c-1,0.4-2.2,1.1-3.5,1.7c-0.6,0.3-1.3,0.7-1.9,1
			c-0.6,0.3-1.1,0.6-1.6,0.9C411.7,167.1,411.1,167.5,411.1,167.5z"/>
		<path class="st1" d="M394.6,179.5l5,5.6c0,0,0.5-0.4,1.2-1.1c0.7-0.6,1.7-1.5,2.8-2.3c1-0.8,2.1-1.7,2.9-2.2c0.8-0.6,1.3-1,1.3-1
			l-4.4-6.1c0,0-0.6,0.4-1.4,1c-0.9,0.6-2,1.5-3.1,2.4c-1.1,0.9-2.2,1.8-3,2.5C395.2,179,394.6,179.5,394.6,179.5z"/>
		<path class="st1" d="M380.9,194.5l6,4.5c0,0,0.4-0.5,1-1.3c0.6-0.8,1.4-1.8,2.3-2.8c0.9-1,1.7-2,2.4-2.7c0.7-0.7,1.1-1.2,1.1-1.2
			l-5.5-5.1c0,0-0.5,0.5-1.2,1.3c-0.7,0.8-1.6,1.9-2.6,3c-0.9,1.1-1.8,2.2-2.5,3C381.3,193.9,380.9,194.5,380.9,194.5z"/>
	</g>
	<g>
		<rect x="458.7" y="323.7" class="st1" width="7.5" height="12.5"/>
		<path class="st1" d="M466.2,358.7v-12.5h-7.5v5c0,0-0.1,0-0.2,0c-0.1,0-0.2,0-0.2,0h0h0c0.2-0.1,0.1-0.1,0.2-0.1l0,0l0,0l0,0l0,0
			l-0.1,0c-0.1,0-0.1,0-0.2,0c-0.4,0-1-0.1-1.6-0.1c-1.2-0.1-2.4-0.2-2.4-0.2l-0.7,7.5c0,0,0.8,0.1,2,0.2c0.6,0,1.3,0.1,2,0.2l0.3,0
			l0.3,0c0.2,0,0.4,0,0.6,0c0.4,0,0.8,0,1.2,0c0.8,0,1.6,0,2.4,0.1c0.2,0,0.4,0,0.6,0c0.2,0,0.4,0,0.5,0c0.3,0,0.7,0,0.9,0
			C465.4,358.7,466.2,358.7,466.2,358.7z"/>
		<path class="st1" d="M443.3,356.7l1.4-7.4c0,0-0.2,0-0.5-0.1c-0.1,0-0.2,0-0.3,0c0,0-0.1,0-0.2,0c-0.1,0-0.1,0-0.2,0
			c-0.2-0.1-0.5-0.1-0.7-0.2c-0.5-0.1-1.2-0.3-1.9-0.4c-0.3-0.1-0.7-0.2-1-0.2l-0.5-0.1l-0.3-0.1l-0.3-0.1c-1.4-0.4-2.9-0.8-3.9-1.1
			l-0.2-0.1l-0.2-0.1c-0.1,0-0.2-0.1-0.3-0.1c-0.2-0.1-0.4-0.1-0.6-0.2c-0.3-0.1-0.5-0.2-0.5-0.2l-2.4,7.1c0,0,0.2,0.1,0.5,0.2
			c0.2,0.1,0.4,0.1,0.6,0.2c0.1,0,0.2,0.1,0.4,0.1l0.2,0.1l0.2,0.1c1.2,0.3,2.7,0.8,4.2,1.2l0.3,0.1l0.3,0.1l0.6,0.1
			c0.4,0.1,0.8,0.2,1.1,0.3c0.7,0.2,1.4,0.3,2,0.5c0.3,0.1,0.6,0.1,0.8,0.2c0.1,0,0.1,0,0.2,0c0.1,0,0.1,0,0.2,0
			c0.1,0,0.2,0,0.3,0.1C443.1,356.7,443.3,356.7,443.3,356.7z"/>
	</g>
	<g>
		<path class="st1" d="M430.2,158.2l2.4,7.1c0,0,0.7-0.2,1.8-0.6l0.2-0.1l0.2-0.1c0.1,0,0.3-0.1,0.5-0.1c0.3-0.1,0.6-0.2,1-0.3
			c0.7-0.2,1.4-0.4,2.1-0.6l0.5-0.2l0.3-0.1l0.3-0.1c0.4-0.1,0.7-0.2,1.1-0.2c0.7-0.2,1.3-0.3,1.9-0.4c0.5-0.1,1-0.2,1.3-0.3
			c0.3-0.1,0.5-0.1,0.5-0.1l-1.5-7.4c0,0-0.2,0-0.5,0.1c-0.3,0.1-0.8,0.2-1.4,0.3c-0.6,0.1-1.3,0.3-2,0.5c-0.4,0.1-0.7,0.2-1.1,0.3
			l-0.3,0.1l-0.3,0.1l-0.6,0.2c-0.8,0.2-1.6,0.4-2.3,0.6c-0.4,0.1-0.7,0.2-1,0.3c-0.2,0-0.3,0.1-0.5,0.1l-0.2,0.1l-0.2,0.1
			C431,157.9,430.2,158.2,430.2,158.2z"/>
		<path class="st1" d="M465.7,152.8c0,0-0.8,0-2,0c-0.1,0-0.3,0-0.5,0c-0.2,0-0.3,0-0.5,0c-0.3,0-0.7,0-1.1,0c-0.8,0-1.6,0-2.4,0.1
			c-0.4,0-0.8,0-1.2,0l-0.3,0l-0.1,0l-0.1,0c-0.2,0-0.4,0-0.6,0c-0.8,0.1-1.5,0.1-2.1,0.2c-1.2,0.1-2,0.2-2,0.2l0.7,7.5
			c0,0,1.2-0.1,2.4-0.2c0.6,0,1.2-0.1,1.6-0.1c0.1,0,0.2,0,0.3,0c0.1,0,0.2,0,0.2,0c0.1,0,0.2,0,0.2,0s0,0.1,0,0.2
			c0,0.1,0,0.2,0,0.2l0,0l0,0c-0.2-0.1-0.2-0.1-0.2-0.1v0v0v0v0v0.1c0,0.1,0,0.1,0,0.2c0,0.5,0,1.1,0,1.7c0,1.2,0,2.5,0,2.5h7.5
			V152.8z"/>
		<rect x="458.2" y="175.3" class="st1" width="7.5" height="12.5"/>
	</g>
</g>
<path class="st2" d="M451,390.8H61c-10.8,0-19.5-8.7-19.5-19.5V130c0-10.8,8.7-19.5,19.5-19.5h390c10.8,0,19.5,8.7,19.5,19.5v241.3
	C470.5,382.1,461.8,390.8,451,390.8z M61,125.5c-2.4,0-4.5,2.1-4.5,4.5v241.3c0,2.4,2.1,4.5,4.5,4.5h390c2.4,0,4.5-2.1,4.5-4.5V130
	c0-2.4-2.1-4.5-4.5-4.5H61z"/>
<path class="st2" d="M49,334h-5V178h5c43,0,78,35,78,78C127,299,92,334,49,334z M54,188.2v135.6c35.2-2.6,63-32,63-67.8
	S89.2,190.8,54,188.2z"/>
<path class="st2" d="M468,334h-5c-43,0-78-35-78-78c0-43,35-78,78-78h5V334z M458,188.2c-35.2,2.6-63,32-63,67.8s27.8,65.2,63,67.8
	V188.2z"/>
<path class="st2" d="M256,316.3c-36.2,0-65.7-29.5-65.7-65.7S219.8,185,256,185c36.2,0,65.7,29.5,65.7,65.7S292.2,316.3,256,316.3z
	 M256,195c-30.7,0-55.7,25-55.7,55.7s25,55.7,55.7,55.7c30.7,0,55.7-25,55.7-55.7S286.7,195,256,195z"/>
<rect x="164.8" y="145.3" class="st2" width="5" height="213.9"/>
<rect x="253.5" y="145.3" class="st2" width="5" height="213.9"/>
<rect x="342.2" y="145.3" class="st2" width="5" height="213.9"/>
</svg>
