<?xml version="1.0" encoding="utf-8"?>
<!-- Generator: Adobe Illustrator 20.1.0, SVG Export Plug-In . SVG Version: 6.00 Build 0)  -->
<!DOCTYPE svg PUBLIC "-//W3C//DTD SVG 1.1//EN" "http://www.w3.org/Graphics/SVG/1.1/DTD/svg11.dtd">
<svg version="1.1" id="Layer_1" xmlns="http://www.w3.org/2000/svg" xmlns:xlink="http://www.w3.org/1999/xlink" x="0px" y="0px"
	 viewBox="0 0 512 512" style="enable-background:new 0 0 512 512;" xml:space="preserve">
<style type="text/css">
	.st0{fill:#556C11;}
</style>
<path class="st0" d="M135.9,282.9c-6.3,0-13-0.1-20.5-0.3c-9-0.2-15.3-6.1-16.4-15.4c-1.3-10.7-2.7-21.4-4-32.1
	c-2.8-22.3-5.7-45.4-8.6-68c-1.4-10.7,1.1-20.9,7.6-31l0.9-1.4c1.9-2.8,3.8-5.8,6.2-9.6l3.8-6.1H88.3c-3.8,0-7-1.2-9.3-3.3
	c-2.2-2-3.3-4.8-3.2-8.2c0-6.7,4.9-11.3,12.2-11.3l0.1,0C93,96,98.1,96,103,96c4,0,7.6,0,10.9,0.1c0.1,0,0.3,0,0.5,0
	c4.1,0,7.1-1.7,9.4-5.4c5.4-8.4,11.1-16.9,16.5-25.1c4-6.1,8.1-12.2,12.1-18.3c10.2-15.5,23.8-23,41.9-23c20.5,0,41.3-0.1,61.8-0.1
	c20.5,0,41.2,0,61.7,0.1c17.9,0,32,7.7,41.9,22.9c3.1,4.8,6.3,9.6,9.5,14.4c5.9,8.9,12.1,18.2,17.9,27.4c3.2,5,6.8,7.2,12.3,7.2
	c0.3,0,0.6,0,0.9,0c3.1-0.2,6.5-0.2,10.5-0.2c3.2,0,6.4,0,9.5,0.1l3.3,0c4,0,7.3,1.2,9.6,3.3c2.2,2,3.3,4.9,3.2,8.3
	c-0.1,6.8-5.1,11.1-13,11.1h-15.5l3.5,6c0.5,0.9,0.9,1.7,1.3,2.4c0.8,1.6,1.6,3,2.6,4.4c9.3,11.7,12.4,25.6,9.8,43.7
	c-3,21-5.7,42.4-8.2,63.1c-1.2,9.5-2.4,19-3.6,28.5c-1.3,9.8-7.6,15.4-17.3,15.6c-6.1,0.1-12.3,0.1-18.4,0.1
	c-6.1,0-12.3-0.1-18.4-0.1c-10.1-0.2-16.8-7.1-17-17.6l0-12.8H170.1v13.3c-0.2,9.9-6.8,16.8-16.4,17
	C148,282.8,142.2,282.9,135.9,282.9z M354.7,256.2c-0.1,3.4-0.1,6.3-0.1,9.6v4h45.9l0.4-3.5c0.2-1.3,0.3-2.6,0.4-3.8
	c0.2-1.9,0.4-3.8,0.7-5.7l0.6-4.5h-47.7L354.7,256.2z M109.9,257c0.3,1.8,0.5,3.5,0.7,5.1c0.2,1.5,0.4,2.8,0.6,4.2l0.5,3.4h45.4
	l0.1-3.9c0.1-3.4,0.1-6.4,0.1-9.4v-4h-48.1L109.9,257z M99.9,174.5c1.2,9.5,2.4,18.9,3.5,28.2c1.3,10.7,2.7,21.8,4.1,32.7l0.4,3.5
	h296.5l0.4-3.5c1-8.2,2-16.3,3-24.5c1.5-12.2,3-24.4,4.5-36.8l0.5-4.5h-60.4c-0.1-7.5-0.1-14.9-0.1-22.5h58l-4.1-6.2
	c-1.3-2-2.7-4-3.9-5.8c-2.4-3.5-4.7-6.8-6.6-10.2c-2.6-4.2-6-6.1-11.1-6.1c-40.7,0.1-82,0.1-122,0.1H127.2c-2.7,0-6.3,0-8.2,2.6
	c-3.2,4.2-6.1,8.7-9.2,13.3c-1.3,2-2.7,4.1-4.2,6.3l-4.2,6.2h58.3V170H99.4L99.9,174.5z M135.5,96.3c-0.6,0.9-1.1,1.8-1.5,2.8
	c-0.2,0.4-0.4,0.8-0.7,1.3l-3.1,5.9l6.7,0c79.6-0.1,156.9-0.1,238.8-0.1h7.3L379,100c-0.5-0.8-0.9-1.5-1.3-2.1
	c-0.5-0.8-0.9-1.5-1.3-2.1c-3-4.6-6.2-9.3-9.3-13.9c-6.1-9.2-12.4-18.7-18.6-28C341.1,42.5,330.8,37,317.1,37
	c-20.3,0-40.8,0.1-61,0.1c-20.2,0-40.7,0-61-0.1h0c-13.6,0-24.2,5.7-31.4,16.8c-5.7,8.7-11.6,17.6-17.3,26.1
	C142.7,85.4,139.1,90.8,135.5,96.3z"/>
<path class="st0" d="M370.1,487.5c-0.1,0-0.6-0.1-1.2-0.5c-12.8-7.8-21.6-15.1-28.5-23.5c-11.7-14.4-11.9-27.3-0.6-40.7
	c6.7-7.9,14.8-15,22.6-21.9c1.8-1.6,3.7-3.2,5.5-4.8c3.6-3.2,7.4-6.3,11.2-9.3c4.5-3.6,9.1-7.3,13.4-11.3
	c12.7-12,14.3-23.8,5.2-39.4c-6.5-11.1-16-19-24.7-24.9H398l0.1,0c15.1,11,23.7,22.5,27.1,36.1c2.2,8.9,0.8,17.4-4.2,25.8
	c-6.4,11.1-16,19.6-23.6,25.7c-5.7,4.6-11.5,9.3-17.1,13.8c-4.2,3.3-8.3,6.6-12.4,9.9c-2.2,1.8-4.3,3.8-6.6,6.3
	c-9,9.9-9,18.1-0.1,28.1c9.8,11.1,22.4,18.6,33.5,25.3c3,1.8,6,3.5,9,5.2H370.1z"/>
<path class="st0" d="M147,487.5c-8.1,0-14.2,0-19.9-0.1c-2.1,0-4-0.5-5-1.2c-2.1-1.7-4.3-3.3-6.4-4.9c-7.2-5.5-14.5-11.1-20.5-17.6
	c-12.3-13.3-12.7-26.6-1.2-40.8c6.1-7.5,13.7-14.3,21.1-20.8c1.4-1.3,2.8-2.5,4.2-3.8c3.8-3.4,8-6.7,12.1-10
	c4.6-3.6,9.3-7.3,13.7-11.4c15.2-14,16.6-26.9,4.8-44.4c-6.4-9.4-14.9-16.3-22.5-21.5h24.2c0.4,0,0.9,0.1,1.1,0.2
	c14.6,10.6,23,21.6,26.5,34.7c2.8,10.4,0.9,20.2-5.7,30c-7.3,11-17.2,19.3-28.5,28.3c-2.2,1.8-4.5,3.5-6.8,5.3
	c-6,4.6-12.1,9.4-17.9,14.5c-8.1,7.2-11.6,12.8-11.6,18.8c0,6,3.4,11.8,11.6,19.2c11.6,10.5,25,18.6,37.5,25.3c-0.2,0-0.5,0-0.7,0
	C153.7,487.5,150.3,487.5,147,487.5z"/>
</svg>
