<?xml version="1.0" encoding="utf-8"?>
<!-- Generator: Adobe Illustrator 20.1.0, SVG Export Plug-In . SVG Version: 6.00 Build 0)  -->
<!DOCTYPE svg PUBLIC "-//W3C//DTD SVG 1.1//EN" "http://www.w3.org/Graphics/SVG/1.1/DTD/svg11.dtd">
<svg version="1.1" id="Capa_1" xmlns="http://www.w3.org/2000/svg" xmlns:xlink="http://www.w3.org/1999/xlink" x="0px" y="0px"
	 viewBox="0 0 512 512" style="enable-background:new 0 0 512 512;" xml:space="preserve">
<style type="text/css">
	.st0{fill:#556C11;}
</style>
<g>
	<path class="st0" d="M435.8,246.7l67.5-67.5c3.6-3.6,3.6-9.5,0-13.1s-9.5-3.6-13.1,0l-67.5,67.5l-67.5-67.5
		c-3.6-3.6-9.5-3.6-13.1,0s-3.6,9.5,0,13.1l67.5,67.5L342,314.3c-3.6,3.6-3.6,9.5,0,13.1c1.8,1.8,4.2,2.7,6.5,2.7
		c2.4,0,4.7-0.9,6.5-2.7l67.5-67.5l67.5,67.5c1.8,1.8,4.2,2.7,6.5,2.7c2.4,0,4.7-0.9,6.5-2.7c3.6-3.6,3.6-9.5,0-13.1L435.8,246.7z"
		/>
	<path class="st0" d="M269,46.7c-9-5.1-19.7-4.9-28.6,0.4c-0.4,0.3-0.8,0.5-1.2,0.9L113.7,154.1H15.3c-5.1,0-9.3,4.1-9.3,9.3v175.9
		c0,2.5,1,4.8,2.7,6.5c1.7,1.7,4.1,2.7,6.5,2.7l98.2,0l125.4,115.2c0.5,0.4,1,0.8,1.5,1.1c4.6,2.8,9.6,4.1,14.6,4.1
		c4.8,0,9.6-1.2,14-3.7c9.3-5.2,14.8-14.8,14.8-25.5V72.3C283.8,61.5,278.3,52,269,46.7z M265.3,439.7c0,4-2,7.5-5.4,9.4
		c-1.4,0.8-5.1,2.4-9.3,0.2L126.4,335.2V293c0-5.1-4.1-9.3-9.3-9.3s-9.3,4.1-9.3,9.3v37l-83.3,0V172.7h83.3v37
		c0,5.1,4.1,9.3,9.3,9.3s9.3-4.1,9.3-9.3v-42l124.1-105c4.3-2.2,8-0.6,9.4,0.2c3.4,1.9,5.4,5.4,5.4,9.4V439.7z"/>
</g>
</svg>
