<?xml version="1.0" encoding="utf-8"?>
<!-- Generator: Adobe Illustrator 20.1.0, SVG Export Plug-In . SVG Version: 6.00 Build 0)  -->
<!DOCTYPE svg PUBLIC "-//W3C//DTD SVG 1.1//EN" "http://www.w3.org/Graphics/SVG/1.1/DTD/svg11.dtd">
<svg version="1.1" id="Capa_1" xmlns="http://www.w3.org/2000/svg" xmlns:xlink="http://www.w3.org/1999/xlink" x="0px" y="0px"
	 viewBox="0 0 512 512" style="enable-background:new 0 0 512 512;" xml:space="preserve">
<style type="text/css">
	.st0{fill:#556C11;}
</style>
<path class="st0" d="M75,349H46c-6.6,0-12-5.4-12-12V158c0-6.6,5.4-12,12-12h29c6.6,0,12,5.4,12,12v179C87,343.6,81.6,349,75,349z"
	/>
<path class="st0" d="M158,376h-44c-6.6,0-12-5.4-12-12V131c0-6.6,5.4-12,12-12h44c6.6,0,12,5.4,12,12v233
	C170,370.6,164.6,376,158,376z"/>
<path class="st0" d="M318,286H199c-6.6,0-12-5.4-12-12v-53c0-6.6,5.4-12,12-12h119c6.6,0,12,5.4,12,12v53
	C330,280.6,324.6,286,318,286z"/>
<path class="st0" d="M437,349h29c6.6,0,12-5.4,12-12V158c0-6.6-5.4-12-12-12h-29c-6.6,0-12,5.4-12,12v179
	C425,343.6,430.4,349,437,349z"/>
<path class="st0" d="M354,376h44c6.6,0,12-5.4,12-12V131c0-6.6-5.4-12-12-12h-44c-6.6,0-12,5.4-12,12v233
	C342,370.6,347.4,376,354,376z"/>
</svg>
