<?xml version="1.0" encoding="utf-8"?>
<!-- Generator: Adobe Illustrator 20.1.0, SVG Export Plug-In . SVG Version: 6.00 Build 0)  -->
<!DOCTYPE svg PUBLIC "-//W3C//DTD SVG 1.1//EN" "http://www.w3.org/Graphics/SVG/1.1/DTD/svg11.dtd">
<svg version="1.1" id="Capa_1" xmlns="http://www.w3.org/2000/svg" xmlns:xlink="http://www.w3.org/1999/xlink" x="0px" y="0px"
	 viewBox="0 0 512 512" style="enable-background:new 0 0 512 512;" xml:space="preserve">
<style type="text/css">
	.st0{fill:#556C11;}
</style>
<path class="st0" d="M13.4,484.2c-3.6,0-6.4-2.9-6.4-6.4s2.9-6.4,6.4-6.4h35.4l28.3-72.7H26.9c-3.1,0-5.7-2.5-5.7-5.7V33.4
	c0-3.1,2.5-5.7,5.7-5.7h208.2c3.1,0,5.7,2.5,5.7,5.7v80c0,68.9,56.8,124.9,126.7,124.9c77,0,139.6,62.6,139.6,139.6V393
	c0,3.1-2.5,5.7-5.7,5.7h-22.9l-0.3,5.7c-1.3,21.8-10.6,42-26.4,56.8c-15.8,14.9-36.5,23.1-58.4,23.1H13.4z M338.4,471.4h55
	c37.9,0,68.8-28.5,71.8-66.2l0.5-6.5h-99L338.4,471.4z M62.7,471.4h261.9l28.3-72.7H91L62.7,471.4z M34.1,385.8h460l0-7.8
	c0-8.8-0.9-17.6-2.7-26.2l-1-4.8H34.1V385.8z M34.1,236.9l4.1,1.4c42.5,14.5,75.8,48.7,89.1,91.6l1.3,4.2h358l-3.9-8.5
	c-20.6-45.2-65.8-74.4-115.3-74.4c-38.2,0-73.8-15.2-100.4-42.8l-2.8-2.9l-57.7,22.7c-0.8,0.3-1.6,0.4-2.4,0.4c-2.7,0-5-1.6-6-4.1
	c-0.6-1.6-0.6-3.4,0.1-4.9c0.7-1.6,1.9-2.8,3.5-3.4l53.6-21.1l-4.1-6.2c-5.1-7.6-9.5-15.9-13-24.4l-1.8-4.3l-62,9.3
	c-0.3,0-0.6,0.1-1,0.1c-3.2,0-5.9-2.4-6.4-5.5c-0.3-1.7,0.2-3.4,1.2-4.8c1-1.4,2.5-2.3,4.2-2.5l59.9-9l-1.4-6.3
	c-2.2-9.9-3.3-19.9-3.3-29.9v-7.8h-64.2c-3.6,0-6.4-2.9-6.4-6.4s2.9-6.4,6.4-6.4h64.2V40.6H34.1V236.9z M34.1,334.1h81.3l-3.1-8.1
	c-12.4-32.5-37.9-58.8-69.9-72.3l-8.3-3.5V334.1z"/>
</svg>
