<?xml version="1.0" encoding="utf-8"?>
<!-- Generator: Adobe Illustrator 20.1.0, SVG Export Plug-In . SVG Version: 6.00 Build 0)  -->
<!DOCTYPE svg PUBLIC "-//W3C//DTD SVG 1.1//EN" "http://www.w3.org/Graphics/SVG/1.1/DTD/svg11.dtd">
<svg version="1.1" id="Capa_1" xmlns="http://www.w3.org/2000/svg" xmlns:xlink="http://www.w3.org/1999/xlink" x="0px" y="0px"
	 viewBox="0 0 512 512" style="enable-background:new 0 0 512 512;" xml:space="preserve">
<style type="text/css">
	.st0{fill:#556C11;}
</style>
<path class="st0" d="M256,306c-64.9,0-117.7-52.8-117.7-117.7S191.1,70.6,256,70.6c33.2,0,65,14.1,87.3,38.7
	c1.6,1.8,1.5,4.6-0.3,6.2c-0.8,0.7-1.9,1.1-3,1.1c-1.3,0-2.4-0.5-3.3-1.5c-20.6-22.8-50-35.8-80.7-35.8
	c-60,0-108.9,48.8-108.9,108.9S196,297.2,256,297.2c60,0,108.9-48.8,108.9-108.9c0-15.9-3.4-31.2-10-45.6c-1-2.2-0.1-4.8,2.2-5.9
	c0.6-0.3,1.2-0.4,1.8-0.4c1.7,0,3.3,1,4,2.6c7.2,15.5,10.8,32.1,10.8,49.3C373.7,253.2,320.9,306,256,306z"/>
<path class="st0" d="M303.4,508c-0.3,0-0.7,0-1-0.1c-1.6-0.4-2.8-1.6-3.2-3.1l-37-132.7l-3.4,0.4c-1.1,0.1-2,0.2-2.8,0.2
	c-0.8,0-1.7-0.1-2.8-0.2l-3.4-0.4l-37,132.7c-0.4,1.6-1.7,2.7-3.2,3.1c-0.3,0.1-0.7,0.1-1,0.1h0c-1.3,0-2.4-0.5-3.3-1.5L167.2,464
	l-54.6,16.6c-0.4,0.1-0.9,0.2-1.3,0.2c-1.2,0-2.3-0.4-3.1-1.3c-1.2-1.1-1.6-2.8-1.2-4.3l30.9-110.6c0.5-1.9,2.3-3.2,4.2-3.2
	c0.4,0,0.8,0.1,1.2,0.2c2.3,0.7,3.7,3.1,3.1,5.4l-28.7,102.9l49.6-15.1c0.4-0.1,0.8-0.2,1.3-0.2c1.3,0,2.5,0.5,3.3,1.5l34.7,38.6
	l35.1-125.7l-2.7-1.6c-5.2-3-10.2-7.1-14.7-10.7c-6.5-5.3-12.7-10.3-18.9-12.3c-3.5-1.1-7.8-1.7-13.5-1.7c-3.2,0-6.7,0.2-10,0.3
	c-3.4,0.2-7,0.3-10.4,0.3c-7.7,0-16.5-0.7-23.7-6c-9.5-6.9-12.9-19.7-16-30.9c-2.3-8.3-4.4-16.2-8.4-21.7c-4-5.4-10.7-9.8-17.9-14.5
	c-9.9-6.4-21-13.7-24.7-25c-3.5-10.8,0.9-22.5,5.2-33.7c3.1-8.2,6.1-16,6.1-23.2c0-7.2-2.9-15-6.1-23.2c-4.3-11.3-8.7-22.9-5.2-33.7
	c3.7-11.3,14.8-18.6,24.7-25c7.2-4.7,13.9-9.1,17.9-14.5c4-5.5,6.2-13.4,8.4-21.7c3.1-11.3,6.5-24,16-30.9c7.2-5.3,16.1-6,23.7-6
	c3.4,0,7,0.2,10.4,0.3c3.5,0.2,6.8,0.3,10,0.3c5.7,0,10-0.5,13.5-1.7c6.2-2,12.4-7,18.9-12.3C233.4,12.4,243.9,4,256,4
	c12.1,0,22.5,8.4,31.8,15.9c6.6,5.3,12.7,10.3,19,12.3c3.5,1.1,7.8,1.7,13.5,1.7c3.2,0,6.5-0.2,10-0.3c3.4-0.2,7-0.3,10.4-0.3
	c7.7,0,16.5,0.7,23.7,6c9.5,6.9,12.9,19.7,16,30.9c2.3,8.3,4.4,16.2,8.4,21.7c3.9,5.4,10.7,9.8,17.8,14.5c9.9,6.4,21,13.7,24.7,25
	c3.5,10.8-0.9,22.5-5.2,33.7c-3.1,8.3-6.1,16-6.1,23.2c0,7.2,2.9,15,6.1,23.2c4.3,11.3,8.7,23,5.2,33.8c-3.7,11.3-14.8,18.6-24.7,25
	c-7.2,4.7-13.9,9.1-17.9,14.5c-4,5.5-6.2,13.4-8.4,21.7c-2.6,9.7-5.6,20.7-12.6,27.9l-1.6,1.6L405,475.3c0.4,1.6,0,3.2-1.2,4.3
	c-0.8,0.8-1.9,1.3-3.1,1.3l0,0c-0.4,0-0.9-0.1-1.3-0.2L344.8,464l-38.1,42.5C305.9,507.5,304.7,508,303.4,508z M320.3,342.7
	c-5.7,0-10,0.5-13.5,1.7c-6.2,2-12.4,7-18.9,12.3c-4.4,3.6-9.4,7.6-14.7,10.7l-2.7,1.6l35.1,125.7l34.6-38.6c0.8-0.9,2-1.5,3.3-1.5
	c0.4,0,0.9,0.1,1.3,0.2l49.6,15.1l-36-129l-3.8,1c-3.9,1-8.3,1.5-14,1.5c-3.4,0-6.9-0.2-10.3-0.3
	C326.7,342.9,323.5,342.7,320.3,342.7z M191.7,333.9c6.7,0,11.9,0.7,16.3,2.1c7.8,2.5,14.9,8.3,21.8,13.8
	c8.9,7.2,17.2,13.9,26.2,13.9c9,0,17.4-6.8,26.2-13.9c6.9-5.6,14-11.3,21.8-13.8c4.4-1.4,9.6-2.1,16.3-2.1c3.4,0,6.9,0.2,10.3,0.3
	c3.3,0.2,6.7,0.3,9.9,0.3c5.9,0,13.4-0.5,18.6-4.3c7-5.1,9.7-15.3,12.7-26.1c2.4-8.7,4.8-17.8,9.8-24.6c4.9-6.7,12.7-11.8,20.2-16.7
	c9.5-6.2,18.4-12,21.1-20.3c2.5-7.9-1.1-17.6-5-27.9c-3.3-8.6-6.6-17.6-6.6-26.3c0-8.8,3.4-17.7,6.6-26.3c3.9-10.3,7.6-20,5-27.9
	c-2.7-8.3-11.6-14.2-21.1-20.3c-7.5-4.9-15.3-9.9-20.2-16.7c-5-6.8-7.4-15.9-9.8-24.6c-2.9-10.8-5.7-21-12.7-26.1
	c-5.2-3.8-12.7-4.3-18.6-4.3c-3.2,0-6.6,0.2-9.9,0.3c-3.4,0.2-6.9,0.3-10.4,0.3c-6.7,0-11.9-0.7-16.3-2.1
	c-7.8-2.5-14.9-8.3-21.8-13.8c-8.9-7.2-17.2-13.9-26.2-13.9c-9,0-17.4,6.8-26.2,13.9c-6.9,5.6-14,11.3-21.8,13.8
	c-4.4,1.4-9.6,2.1-16.3,2.1c-3.4,0-6.9-0.2-10.3-0.3c-3.3-0.2-6.7-0.3-9.9-0.3c-5.9,0-13.4,0.5-18.6,4.3c-7,5.1-9.7,15.3-12.7,26.1
	c-2.4,8.7-4.8,17.8-9.8,24.6c-4.9,6.7-12.7,11.8-20.2,16.7c-9.5,6.2-18.4,12-21.1,20.3c-2.5,7.9,1.1,17.6,5,27.9
	c3.3,8.6,6.6,17.6,6.6,26.3c0,8.8-3.4,17.7-6.6,26.3c-3.9,10.3-7.6,20-5,27.9c2.7,8.3,11.6,14.2,21.1,20.3
	c7.5,4.9,15.3,10,20.2,16.7c5,6.9,7.4,15.9,9.8,24.6c2.9,10.8,5.7,21,12.7,26.1c5.2,3.8,12.7,4.3,18.6,4.3c3.2,0,6.6-0.2,9.9-0.3
	C184.8,334,188.3,333.9,191.7,333.9z"/>
<path class="st0" d="M223.5,148.8c-2.4,0-4.4-2-4.4-4.4s2-4.4,4.4-4.4h65c2.4,0,4.4,2,4.4,4.4s-2,4.4-4.4,4.4H223.5z"/>
<path class="st0" d="M223.5,236.6c-2.4,0-4.4-2-4.4-4.4s2-4.4,4.4-4.4h65c2.4,0,4.4,2,4.4,4.4s-2,4.4-4.4,4.4H223.5z"/>
<path class="st0" d="M286.5,192.7c-2.4,0-4.4-2-4.4-4.4s2-4.4,4.4-4.4h25.4c2.4,0,4.4,2,4.4,4.4s-2,4.4-4.4,4.4H286.5z"/>
<path class="st0" d="M200.2,192.7c-2.4,0-4.4-2-4.4-4.4s2-4.4,4.4-4.4h59.9c2.4,0,4.4,2,4.4,4.4s-2,4.4-4.4,4.4H200.2z"/>
</svg>
