<?xml version="1.0" encoding="utf-8"?>
<!-- Generator: Adobe Illustrator 20.1.0, SVG Export Plug-In . SVG Version: 6.00 Build 0)  -->
<!DOCTYPE svg PUBLIC "-//W3C//DTD SVG 1.1//EN" "http://www.w3.org/Graphics/SVG/1.1/DTD/svg11.dtd">
<svg version="1.1" id="Capa_1" xmlns="http://www.w3.org/2000/svg" xmlns:xlink="http://www.w3.org/1999/xlink" x="0px" y="0px"
	 viewBox="0 0 512 512" style="enable-background:new 0 0 512 512;" xml:space="preserve">
<style type="text/css">
	.st0{fill:#556C11;}
</style>
<path class="st0" d="M279,486.7c-87.8,0-174.5-23-250.7-66.6c-17.6-10-26.1-30.3-20.7-49.3c2.9-10.1,4.3-23.6,4.3-40.1
	c0-27.6,13.7-72.8,40.7-134.2c22.4-51,54.3-97.4,94.8-137.9c21.4-21.4,49.9-33.2,80.2-33.2c14.3,0,28.1,4.2,39.9,12.1l25.9,17.3
	c7,4.7,11.5,12.1,12.3,20.5c0.6,6.4-1,12.8-4.6,18.2l-1.8,2.6l2.2,2.3c10.3,11.1,10.1,28.1-0.5,38.7l-42.7,42.7
	c-5.3,5.3-12.3,8.2-19.8,8.2l-58,0l0,4c0.1,11.6,2.1,25.6,4.1,39c2.2,15.6,4.7,33.8,5.1,52.3l0.2,8.3l6.4-5.3
	c20.4-17,46.1-26.4,72.4-26.4c15.8,0,31.4,3.4,46.4,10.2l3.4,1.6l1.7-3.3c23.4-44.7,69-72.4,119-72.4l3.7,0c36.9,1,67,32.7,67,70.7
	v124.4c0,30.5-19.4,57.4-48.3,67l-7.5,2.5c-51.6,17.2-105.4,25.9-159.8,25.9H279z M227.6,38.7c-26.7,0-51.9,10.4-70.8,29.3
	c-39.3,39.3-70.3,84.4-92,133.8c-25.9,58.9-39.5,103.5-39.5,128.9c0,17.8-1.6,32.5-4.8,43.7c-3.7,13.1,2.2,27.1,14.5,34.1
	c74.2,42.4,158.6,64.8,244.1,64.8h15.4c53,0,105.3-8.5,155.6-25.2l7.5-2.5c23.4-7.8,39.2-29.7,39.2-54.4l0-124.4
	c0-30.9-24.3-56.6-54.1-57.4l-3.2,0c-45.4,0-86.7,25.2-107.6,65.8l-1.6,3.1l2.9,2c6.3,4.3,11.1,8.3,15.4,12.6c1.3,1.3,2,2.9,2,4.7
	c0,1.8-0.7,3.5-1.9,4.7c-1.3,1.3-2.9,2-4.7,2c-1.8,0-3.4-0.7-4.7-1.9c-18.8-18.7-43.8-29-70.4-29c-33.9,0-65.2,16.9-83.7,45.3
	c-0.2,0.2-0.4,0.4-0.7,0.7l-0.3,0.4l-0.2,0.5c-10.3,24.6-30.9,35.6-41.5,38.3c-0.5,0.1-1.1,0.2-1.6,0.2c-3.1,0-5.7-2.1-6.5-5
	c-0.9-3.5,1.3-7.2,4.8-8.1c1.6-0.4,37.7-10.5,37.7-57.5c0-18.6-2.6-37.1-5.2-54.9l0-0.1c-4.8-33.1-8.9-61.7,7.2-77.7
	c1.3-1.3,2.9-2,4.7-2c1.8,0,3.5,0.7,4.7,2c1.3,1.3,2,2.9,2,4.7c0,1.8-0.7,3.5-2,4.7c-1.1,1.1-1.9,2.4-2.6,3.5l-3.9,6.4l56.9,0
	c3.9,0,7.6-1.6,10.4-4.3l42.7-42.7c4.9-4.9,5.6-12.8,1.5-18.6l-2.7-3.9l-26.7,26.7c-5.5,5.5-12.9,8.6-20.7,8.6
	c-4.5,0-9-1.1-13.1-3.1c-8.5-4.3-14.3-12.1-15.8-21.5c-1.5-9.4,1.5-18.7,8.2-25.4l9.8-9.8c1.3-1.3,2.9-2,4.7-2c1.8,0,3.5,0.7,4.7,2
	c1.3,1.3,2,2.9,2,4.7c0,1.8-0.7,3.5-2,4.7l-9.8,9.8c-3.7,3.7-5.3,8.7-4.5,13.8c0.8,5.1,4,9.4,8.6,11.7c2.2,1.1,4.7,1.7,7.1,1.7
	c4.3,0,8.3-1.7,11.3-4.7l34.1-34.1c3.1-3.1,4.7-7.4,4.2-11.8c-0.4-4.4-2.8-8.3-6.5-10.8l-25.9-17.3
	C250.4,42.1,239.2,38.7,227.6,38.7z"/>
</svg>
