<?xml version="1.0" encoding="utf-8"?>
<!-- Generator: Adobe Illustrator 20.1.0, SVG Export Plug-In . SVG Version: 6.00 Build 0)  -->
<!DOCTYPE svg PUBLIC "-//W3C//DTD SVG 1.1//EN" "http://www.w3.org/Graphics/SVG/1.1/DTD/svg11.dtd">
<svg version="1.1" id="Capa_1" xmlns="http://www.w3.org/2000/svg" xmlns:xlink="http://www.w3.org/1999/xlink" x="0px" y="0px"
	 viewBox="0 0 512 512" style="enable-background:new 0 0 512 512;" xml:space="preserve">
<style type="text/css">
	.st0{fill:#FFDA44;}
</style>
<path class="st0" d="M476,479.7H38V36.3h438V479.7z M47.1,470.6h419.8V45.4H47.1V470.6z"/>
<rect x="252.4" y="421.8" class="st0" width="9.1" height="53.4"/>
<rect x="252.4" y="40.8" class="st0" width="9.1" height="176.4"/>
<rect x="80.4" y="86" class="st0" width="132.3" height="9.1"/>
<rect x="80.4" y="112.7" class="st0" width="132.3" height="9.1"/>
<rect x="80.4" y="139.4" class="st0" width="132.3" height="9.1"/>
<rect x="301.3" y="86" class="st0" width="132.3" height="9.1"/>
<rect x="301.3" y="112.7" class="st0" width="132.3" height="9.1"/>
<rect x="301.3" y="139.4" class="st0" width="132.3" height="9.1"/>
<path class="st0" d="M304.2,299.2v-14.7c0-25.7-21.2-46.6-47.2-46.6c-26,0-47.2,20.9-47.2,46.6v14.7h-10.5v94.4h115.4v-94.4H304.2z
	 M264.3,372.6h-17.4l4.4-24.1c-2.6-1.5-4.4-4.2-4.4-7.4c0-4.8,3.9-8.7,8.7-8.7c4.8,0,8.7,3.9,8.7,8.7c0,3.2-1.8,5.9-4.4,7.4
	L264.3,372.6z M283.2,299.2h-52.5v-14.7c0-13.9,12-25.6,26.2-25.6c14.2,0,26.2,11.7,26.2,25.6V299.2z"/>
</svg>
