<?xml version="1.0" encoding="utf-8"?>
<!-- Generator: Adobe Illustrator 20.1.0, SVG Export Plug-In . SVG Version: 6.00 Build 0)  -->
<!DOCTYPE svg PUBLIC "-//W3C//DTD SVG 1.1//EN" "http://www.w3.org/Graphics/SVG/1.1/DTD/svg11.dtd">
<svg version="1.1" id="custom-color" xmlns="http://www.w3.org/2000/svg" xmlns:xlink="http://www.w3.org/1999/xlink" x="0px"
	 y="0px" viewBox="0 0 150 150" style="enable-background:new 0 0 150 150;" xml:space="preserve">
<style type="text/css">
	.st0{fill:#556C11;}
</style>
<path class="st0" d="M124.7,139.3c-3.9,0-7.8-1.5-10.7-4.4c-0.3-0.3-0.5-0.5-0.8-0.8l0,0c-0.2-0.1-0.3-0.2-0.5-0.4L77.4,94.5
	L94,76.1l40.1,36.1c0.2,0.2,0.3,0.4,0.5,0.5l0,0c0.3,0.2,0.6,0.5,0.8,0.8l0,0c5.9,5.9,5.9,15.5,0,21.4
	C132.4,137.8,128.5,139.3,124.7,139.3z M114.9,131.6C114.9,131.6,114.9,131.6,114.9,131.6l0.5,0.4c0.2,0.3,0.4,0.5,0.7,0.8
	c4.7,4.7,12.4,4.7,17.2,0c4.7-4.7,4.7-12.4,0-17.2c-0.3-0.2-0.5-0.5-0.8-0.7l-0.3-0.4c0-0.1-0.1-0.1-0.1-0.2l-37.8-34L81.4,94.5
	L114.9,131.6C114.9,131.6,114.9,131.6,114.9,131.6z M26.8,139.3c-3.9,0-7.8-1.5-10.7-4.4c-2.9-2.9-4.4-6.7-4.4-10.7
	c0-4,1.6-7.9,4.4-10.7c0.3-0.3,0.5-0.5,0.8-0.8l0,0c0.1-0.2,0.2-0.3,0.4-0.5l60.6-54.7c2.8-2.8,7.5-2.8,10.4,0.1l5.1,5.1
	c2.9,2.9,2.9,7.6,0,10.4l-54.6,60.5c-0.2,0.2-0.4,0.3-0.5,0.4l0,0c-0.2,0.3-0.5,0.6-0.8,0.8C34.5,137.8,30.7,139.3,26.8,139.3z
	 M19.4,114.4c0,0,0,0.1-0.1,0.1l-0.3,0.4c-0.3,0.2-0.5,0.4-0.8,0.7c-2.3,2.3-3.6,5.3-3.6,8.6c0,3.2,1.3,6.3,3.6,8.6
	c4.7,4.7,12.4,4.7,17.2,0c0.2-0.2,0.5-0.5,0.7-0.8l0.2-0.2l0.2-0.1c0,0,0.1-0.1,0.1-0.1L91.2,71c1.7-1.7,1.7-4.5,0-6.2l-5.1-5.1
	c-1.7-1.7-4.5-1.7-6.2,0L19.4,114.4C19.4,114.4,19.4,114.4,19.4,114.4z M57.6,72.5L46,59.7c-0.7-0.7-1.8-1-2.8-0.8l-0.6,0.3
	l-0.2-0.1c-8.6,2.4-17.7,0-24-6.3c-6.1-6.1-8.6-15.1-6.4-23.5l0.6-2.6l15,15l11.7-3.1l3.1-11.7L27.5,12l2.6-0.6
	c8.4-2,17.1,0.4,23.2,6.5c6.5,6.5,8.9,16.1,6.1,24.9c-0.3,1,0,2,0.8,2.7l13.7,12.3L57.6,72.5z M47.6,57.1L47.6,57.1l10.2,11.2
	l11.5-10.4L58,47.7c-1.5-1.5-2.1-3.7-1.6-5.8c2.5-7.8,0.4-16.2-5.3-21.9c-4.7-4.7-11.1-6.9-17.6-6.2L45.8,26l-4,15l-15,4L14.4,32.7
	c-0.8,6.6,1.4,13.3,6.2,18c5.7,5.7,14,7.7,21.6,5.4l0.3-0.1C44.3,55.5,46.2,56,47.6,57.1z M102.5,67.8
	C102.5,67.8,102.5,67.8,102.5,67.8c-2,0-3.8-0.8-5.2-2.2L85.6,54c-1.4-1.4-2.2-3.3-2.2-5.2c0-2,0.8-3.8,2.2-5.2l0.8-0.8
	c1.4-1.4,3.3-2.2,5.2-2.2c0,0,0,0,0,0c2,0,3.8,0.8,5.2,2.2l11.6,11.6c1.4,1.4,2.2,3.3,2.2,5.2s-0.8,3.8-2.2,5.2l-0.8,0.8
	C106.3,67.1,104.5,67.8,102.5,67.8z M91.7,43.6c-1.2,0-2.3,0.5-3.1,1.3l-0.8,0.8c-0.8,0.8-1.3,1.9-1.3,3.1c0,1.2,0.5,2.3,1.3,3.1
	l11.6,11.6c1.7,1.7,4.5,1.7,6.2,0l0.8-0.8c0.8-0.8,1.3-1.9,1.3-3.1c0-1.2-0.5-2.3-1.3-3.1L94.8,44.9C94,44.1,92.8,43.6,91.7,43.6
	L91.7,43.6z M114.9,52.9c-4.5,0-8.7-1.8-11.9-4.9c-6.6-6.6-6.6-17.3,0-23.8v0c4.3-4.3,10.6-5.9,16.5-4.3c3.1,0.6,6.4-0.4,8.6-2.7
	c0.8-0.8,1.4-1.7,1.9-2.8c0-0.1,0.1-0.2,0.1-0.3c0.1-0.2,0.3-0.6,0.6-1c1.3-1.3,3.6-1.3,4.9,0c0.3,0.3,0.5,0.6,0.7,1l0.1,0.3
	c0.1,0.3,0.1,0.6,0.2,0.9c2.5,11.9-1.2,24.1-9.8,32.7C123.6,51.1,119.4,52.9,114.9,52.9z M105.1,26.2c-5.4,5.4-5.4,14.2,0,19.6
	c2.6,2.6,6.1,4.1,9.8,4.1c3.7,0,7.2-1.4,9.8-4.1c7.9-7.9,11.2-19.1,8.9-30c0-0.2-0.1-0.4-0.1-0.6c0,0,0,0,0,0
	c-0.2-0.2-0.4-0.2-0.6,0c0,0,0,0,0,0c0,0,0,0-0.1,0.1c0,0.1-0.1,0.2-0.1,0.3c-0.6,1.4-1.5,2.6-2.5,3.6c-3,3-7.2,4.3-11.4,3.5
	l-0.3-0.1C113.8,21.3,108.6,22.7,105.1,26.2L105.1,26.2z"/>
</svg>
