<?xml version="1.0" encoding="utf-8"?>
<!-- Generator: Adobe Illustrator 20.1.0, SVG Export Plug-In . SVG Version: 6.00 Build 0)  -->
<!DOCTYPE svg PUBLIC "-//W3C//DTD SVG 1.1//EN" "http://www.w3.org/Graphics/SVG/1.1/DTD/svg11.dtd">
<svg version="1.1" id="recycling" xmlns="http://www.w3.org/2000/svg" xmlns:xlink="http://www.w3.org/1999/xlink" x="0px" y="0px"
	 viewBox="0 0 200.2 200.2" style="enable-background:new 0 0 200.2 200.2;" xml:space="preserve">
<style type="text/css">
	.st0{fill:#556C11;}
</style>
<path class="st0" d="M182,116.7c0.3-2.7,0.4-5.5,0.4-8.6c0-32.3-20.3-61.1-50.7-72.1L131.4,14L97.1,29.3l17.3,36.4l13.2-17.3
	c25.1,9.2,41.8,33,41.8,59.7c0,2.6-0.2,5.4-0.6,8.3c-1.6,0-3.7,0-5.3-0.1c0.4-2.8,0.6-5.4,0.6-8.2c0-22.5-13.1-43.2-33.5-52.7
	l-1.4-0.7l-15.8,20.9L90.1,26.7l46.5-20.8v26.4l1.2,0.5c30.3,12.8,49.8,42.3,49.8,75.2c0,2.3-0.3,6.3-0.5,8.5L182,116.7z"/>
<path class="st0" d="M108.2,190c-13.6,0-27.7-3.7-39.9-10.3c0.1-0.1,0.1-0.2,0.2-0.3c0.6-1.2,1.3-2.8,2-4.4
	c11.4,6.5,24.3,9.9,37.6,9.9c20.7,0,40.7-8.5,55.1-23.5l19.2,9.3l0.2-38.5l-38.2-0.2L154,152c-12,12.5-28.6,19.7-45.9,19.7
	c-11.5,0-22.7-3.1-32.5-9c0.7-1.6,1.4-3.5,2-5c9.1,5.7,19.7,8.6,30.6,8.6c14.2,0,28-5.2,38.8-14.8l1.1-1l-12.1-24L188,127l-0.4,52
	l-23.4-11.3l-0.9,0.9C148.2,182.4,128.7,190,108.2,190z"/>
<path class="st0" d="M8.3,150.6L28.5,135l-0.4-1.3c-2.7-8.3-4.1-16.9-4.1-25.6C24,73.9,46.3,42.4,78.4,31c0.3,0.8,0.6,1.7,0.9,2.6
	c0.3,0.9,0.6,1.7,0.8,2.3C50.1,46.7,29.3,76,29.3,108.1c0,9.9,1.9,19.5,5.5,28.6l0,0l-16.7,12.8l34.6,16.6l16.7-34.7l-23-0.6
	c-2.7-7.3-4.2-15.3-4.2-22.6c0-27,17.8-51.6,43.4-60.3c0.7,1.4,1.7,3.3,2.5,4.7c-24,7.6-40.6,30.2-40.6,55.6c0,5.7,0.7,11,2.3,16.2
	l0.4,1.3l27.5,0.7l-22.4,46.8L8.3,150.6z"/>
</svg>
