<?xml version="1.0" encoding="utf-8"?>
<!-- Generator: Adobe Illustrator 20.1.0, SVG Export Plug-In . SVG Version: 6.00 Build 0)  -->
<!DOCTYPE svg PUBLIC "-//W3C//DTD SVG 1.1//EN" "http://www.w3.org/Graphics/SVG/1.1/DTD/svg11.dtd">
<svg version="1.1" id="Capa_1" xmlns="http://www.w3.org/2000/svg" xmlns:xlink="http://www.w3.org/1999/xlink" x="0px" y="0px"
	 viewBox="0 0 512 512" style="enable-background:new 0 0 512 512;" xml:space="preserve">
<style type="text/css">
	.st0{fill:#FFDA44;}
</style>
<g>
	<path class="st0" d="M261.4,280.7C241.9,270,223.7,260.5,206,250c-25.7-15.2-31-46.4-12.2-67.3c4.9-5.4,9.1-7.3,16.5-3.4
		c24.6,12.9,49.7,25,74.6,37.4c0.6,0.3,1.1,1,2.1,2c-3.6,2.7-7.1,5.3-12.4,9.2c13.2,7.2,26,13.5,37.9,21.1c6.1,3.9,12.1,9.7,15.2,16
		c4.8,10.2,1.1,20-6.5,28.3c-16.6,17.9-33,35.9-49.5,53.9c-2.7,3-5.3,6.2-9,10.6c30.5,6.3,59.4,12.2,88.4,18.2
		c17.9,3.7,35.7,7.8,53.8,10.8c4.8,0.8,10.7-1.4,15.3-3.7c5-2.5,8.9-7.1,13.7-10.2c7.7-5.1,15.5-4.8,21.5,2.4
		c6.1,7.2,5.4,15.3-1.5,21.5c-8.8,7.9-17.9,15.7-27.9,21.7c-4.8,2.8-12.5,2.5-18.4,1.3c-103-20.8-206-42-309-63.1
		c-16-3.3-32.1-6.3-48.1-9.8c-11.6-2.5-17.1-9.6-15.4-18.9c1.9-10.1,9.7-14.6,21.9-12.2c45.6,9.2,91,18.7,136.6,27.6
		c4.1,0.8,10.4,0.1,12.9-2.6C224.7,321.6,242.4,301.6,261.4,280.7z"/>
	<path class="st0" d="M302.5,171.3c4.7-12.5,0.6-18.9-10.2-23c-9.1-3.4-17.6-8.6-27.7-13.6c4.6-3.2,7.9-5.5,11.1-7.9
		c14.2-10.5,29.9-18.7,46.2-7.4c16.8,11.6,27.6,27.8,24.8,50.4c-3.2,26.7-1.4,28.3,25.7,32.1c8.3,1.2,16.7,2,24.9,3.6
		c12.9,2.5,20.3,12.4,18.7,24.5c-1.6,11.7-11.8,19.4-25,17.8c-23.8-2.9-47.6-6.2-71.3-9.8c-12.4-1.9-17.7-7.9-18.4-22.2
		c-0.4-7.6-3.4-11.3-10-14.5c-58.9-28.8-116.7-61-175.4-90.1c-3.1-1.5-6.3-3.9-9-6c-6.4-5.2-9.2-8.1-5.5-15.4
		c3.6-7.2,7.9-8.6,16.1-6c4.7,1.5,9.1,3.8,13.6,5.9c52.6,26,107.2,50.1,159.9,76.1C294.7,167.8,298.5,169.4,302.5,171.3z"/>
	<path class="st0" d="M384.7,147.5c-22.3,2.7-41.5-12.3-44.3-34.6c-2.8-22.2,12.5-41.5,34.9-43.9c22.3-2.5,41.4,12.9,43.8,35.2
		C421.4,125.7,406.3,144.9,384.7,147.5z"/>
	<path class="st0" d="M121.1,102.4c9.3-13.9,3.3-34.3,17.2-25c13.9,9.3-19.9,59.7-33.8,50.3S111.8,116.3,121.1,102.4z"/>
</g>
<ellipse class="st0" cx="378" cy="84.1" rx="37.9" ry="25.1"/>
<circle class="st0" cx="379.7" cy="59" r="12.7"/>
<path class="st0" d="M411.5,102h-65.7c-5.8,0-10.5-4.7-10.5-10.5v0c0-5.8,4.7-10.5,10.5-10.5h65.7c5.8,0,10.5,4.7,10.5,10.5v0
	C422,97.3,417.3,102,411.5,102z"/>
</svg>
