<?xml version="1.0" encoding="utf-8"?>
<!-- Generator: Adobe Illustrator 20.1.0, SVG Export Plug-In . SVG Version: 6.00 Build 0)  -->
<!DOCTYPE svg PUBLIC "-//W3C//DTD SVG 1.1//EN" "http://www.w3.org/Graphics/SVG/1.1/DTD/svg11.dtd">
<svg version="1.1" id="custom-products" xmlns="http://www.w3.org/2000/svg" xmlns:xlink="http://www.w3.org/1999/xlink" x="0px"
	 y="0px" viewBox="0 0 150 150" style="enable-background:new 0 0 150 150;" xml:space="preserve">
<style type="text/css">
	.st0{fill:#556C11;}
</style>
<path class="st0" d="M52.6,140.6c-8.5,0-16.7-2.1-23.8-6c-6.9,3.8-14.1,3.2-16.9,2.8c-1-0.1-1.9-0.8-2.2-1.9c-0.3-1.1,0.2-2.3,1.2-3
	c3.3-2.2,5.1-5.1,6-7.4c-6.2-7-9.5-15.4-9.5-24.3c0-13.3,7.5-25.7,19.9-33.1l1.7-1l0.5,2c6,24.5,30.8,42.3,58.8,42.3
	c2,0,4-0.1,6-0.3l2.3-0.2l-0.8,2.2C90,129.3,72.6,140.6,52.6,140.6z M28.8,131.2l0.8,0.4c6.8,3.9,14.7,6,23,6
	c17.8,0,33.4-9.5,39.6-23.9c-1.3,0.1-2.5,0.1-3.8,0.1c-28.6,0-54-17.8-61.2-42.6c-10.5,7-16.8,17.8-16.8,29.5c0,8.5,3.2,16.4,9.3,23
	l0.6,0.7l-0.3,0.9c-1,2.7-2.9,6.4-6.9,9.3c3.1,0.4,9.2,0.5,14.9-2.9L28.8,131.2z M12.2,134.4C12.2,134.4,12.3,134.4,12.2,134.4
	C12.3,134.4,12.2,134.4,12.2,134.4z M88.4,104.9c-29.8,0-54-21.4-54-47.7s24.2-47.7,54-47.7c15.6,0,30.5,5.9,40.8,16.3
	c8.6,8.7,13.4,19.8,13.3,31.3c0,10.6-4.1,21-11.5,29.3c1.7,4.2,4,7.1,7.4,9.2c1.1,0.7,1.6,2,1.3,3.2c-0.3,1.2-1.3,2-2.5,2.1
	c-3.4,0.5-11.9,1.2-20.2-3.4C108.3,102.4,98.4,104.9,88.4,104.9z M88.4,12.5c-28.1,0-51,20.1-51,44.7c0,24.6,22.9,44.7,51,44.7
	c9.8,0,19.4-2.5,27.9-7.3l0.8-0.4l0.7,0.4c7.6,4.5,15.6,3.9,18.9,3.4c-4-2.5-6.8-6.3-8.7-11.4l-0.3-0.9l0.6-0.7
	c7.3-7.9,11.3-17.8,11.3-28c0-10.7-4.4-21.1-12.5-29.2C117.3,18.1,103.2,12.5,88.4,12.5z M120.9,78H82.1V66.8h38.8V78z M85.1,75
	h32.8v-5.2H85.1V75z M120.9,62.7H56.1V51.5h64.8V62.7z M59.1,59.7h58.8v-5.2H59.1V59.7z M120.9,47.3H56.1V36.1h64.8V47.3z
	 M59.1,44.3h58.8v-5.2H59.1V44.3z"/>
</svg>
