<?xml version="1.0" encoding="utf-8"?>
<!-- Generator: Adobe Illustrator 20.1.0, SVG Export Plug-In . SVG Version: 6.00 Build 0)  -->
<!DOCTYPE svg PUBLIC "-//W3C//DTD SVG 1.1//EN" "http://www.w3.org/Graphics/SVG/1.1/DTD/svg11.dtd">
<svg version="1.1" id="custom-design" xmlns="http://www.w3.org/2000/svg" xmlns:xlink="http://www.w3.org/1999/xlink" x="0px"
	 y="0px" viewBox="0 0 150 150" style="enable-background:new 0 0 150 150;" xml:space="preserve">
<style type="text/css">
	.st0{fill:#003E70;}
</style>
<title>Artboard 45</title>
<path class="st0" d="M94.7,24.1L75,57.9L55.3,24.1H94.7 M104.6,18.4H45.4l29.6,51C75,69.3,104.6,18.4,104.6,18.4z"/>
<path class="st0" d="M75,92l19.7,33.9H55.3L75,92 M75,80.6l-29.6,51h59.2L75,80.6z"/>
<path class="st0" d="M40.5,32.6l19.7,33.9H20.8L40.5,32.6 M40.5,21.2L10.9,72.1h59.2L40.5,21.2L40.5,21.2z"/>
<path class="st0" d="M89.8,83.5h39.4l-19.7,33.9L89.8,83.5 M79.9,77.8l29.6,51l29.6-51L79.9,77.8z"/>
<path class="st0" d="M20.8,83.5h39.4l-19.7,33.9L20.8,83.5 M10.8,77.8l29.6,51l29.6-50.9L10.8,77.8z"/>
<path class="st0" d="M109.5,32.6l19.7,33.9H89.9L109.5,32.6 M109.5,21.2L79.9,72.2h59.2L109.5,21.2L109.5,21.2z"/>
</svg>
