<?xml version="1.0" encoding="utf-8"?>
<!-- Generator: Adobe Illustrator 20.1.0, SVG Export Plug-In . SVG Version: 6.00 Build 0)  -->
<!DOCTYPE svg PUBLIC "-//W3C//DTD SVG 1.1//EN" "http://www.w3.org/Graphics/SVG/1.1/DTD/svg11.dtd">
<svg version="1.1" id="custom-design" xmlns="http://www.w3.org/2000/svg" xmlns:xlink="http://www.w3.org/1999/xlink" x="0px"
	 y="0px" viewBox="0 0 150 150" style="enable-background:new 0 0 150 150;" xml:space="preserve">
<style type="text/css">
	.st0{fill:#556C11;}
</style>
<title>Artboard 45</title>
<path class="st0" d="M96.7,22.4L75,59.6L53.3,22.4H96.7 M104.6,18.4H45.4l29.6,51C75,69.3,104.6,18.4,104.6,18.4z"/>
<path class="st0" d="M75,89.8l22.2,38.2H52.8L75,89.8 M75,80.6l-29.6,51h59.2L75,80.6z"/>
<path class="st0" d="M40.5,30.3l22.3,38.4H18.2L40.5,30.3 M40.5,21.2L10.9,72.1h59.2L40.5,21.2L40.5,21.2z"/>
<path class="st0" d="M87,81.1h45l-22.5,38.7L87,81.1 M79.9,77.8l29.6,51l29.6-51H79.9z"/>
<path class="st0" d="M18.7,81.7h43.7l-21.8,37.6L18.7,81.7 M10.8,77.8l29.6,51L70,77.9L10.8,77.8z"/>
<path class="st0" d="M109.5,30.1L132.1,69H87L109.5,30.1 M109.5,21.2l-29.6,51h59.2L109.5,21.2L109.5,21.2z"/>
</svg>
