<?xml version="1.0" encoding="utf-8"?>
<!-- Generator: Adobe Illustrator 20.1.0, SVG Export Plug-In . SVG Version: 6.00 Build 0)  -->
<!DOCTYPE svg PUBLIC "-//W3C//DTD SVG 1.1//EN" "http://www.w3.org/Graphics/SVG/1.1/DTD/svg11.dtd">
<svg version="1.1" id="Icons" xmlns="http://www.w3.org/2000/svg" xmlns:xlink="http://www.w3.org/1999/xlink" x="0px" y="0px"
	 viewBox="0 0 66 59" style="enable-background:new 0 0 66 59;" xml:space="preserve">
<style type="text/css">
	.st0{fill:#556C11;}
</style>
<g>
	<path class="st0" d="M38.4,39L27.3,27.9l1.1-0.4c0.1,0,8.1-3.3,10.8-6L56.5,4.2c0,0,0.8-0.8,2-1.3c1.6-0.7,3.2-0.4,4.4,0.8
		c1.2,1.2,1.5,2.7,0.8,4.4c-0.5,1.1-1.3,2-1.3,2S48,24.5,45.1,27.4C42.3,30,38.9,37.9,38.9,38L38.4,39z M30.1,28.5l7.8,7.8
		C39,34,41.6,28.5,44,26.2c2.9-2.9,17.3-17.3,17.3-17.3s0.6-0.7,1-1.5c0.4-1,0.3-1.9-0.5-2.6l0,0c-0.8-0.8-1.6-1-2.7-0.5
		c-0.9,0.4-1.5,1-1.5,1L40.3,22.6C38,24.9,32.4,27.4,30.1,28.5z"/>
	<path class="st0" d="M15.2,57.5c-2.6,0-5.4-0.3-8.4-0.8L3.1,56l3.6-0.9c4.9-1.2,5.9-4.3,7.7-10c0.7-2.3,1.6-4.8,2.8-7.8l0,0
		c2.3-5.4,8.2-7,8.4-7l0.4-0.1l10,10v0.3c0,0.3-0.1,7.4-6,12.3C26.4,55.9,21.4,57.5,15.2,57.5z M9.9,55.6c8.4,1,14.8-0.3,19.1-3.9
		c4.7-3.9,5.3-9.5,5.4-10.8L25.6,32c-1.3,0.4-5.3,2.1-7,6c-1.2,2.9-2,5.4-2.7,7.7C14.4,50.3,13.3,53.7,9.9,55.6z M17.1,50.6l2.5-4.2
		c0.3-0.6,0.7-2.1,1.1-3.7c0.8-3.2,1.6-6.8,3.3-8.4l0.4-0.4l0.5,0.2c0.8,0.3,1.3,1.1,1.5,2.2c0.4,2.7-1.3,7.4-5.5,11L17.1,50.6z
		 M24.6,36c-1.1,1.6-1.8,4.7-2.4,7.1c-0.1,0.3-0.1,0.5-0.2,0.8c2.1-2.7,3-5.5,2.7-7.2C24.7,36.4,24.7,36.2,24.6,36z"/>
</g>
</svg>
