<?xml version="1.0" encoding="utf-8"?>
<!-- Generator: Adobe Illustrator 20.1.0, SVG Export Plug-In . SVG Version: 6.00 Build 0)  -->
<!DOCTYPE svg PUBLIC "-//W3C//DTD SVG 1.1//EN" "http://www.w3.org/Graphics/SVG/1.1/DTD/svg11.dtd">
<svg version="1.1" id="Layer_1" xmlns="http://www.w3.org/2000/svg" xmlns:xlink="http://www.w3.org/1999/xlink" x="0px" y="0px"
	 viewBox="0 0 64 64" style="enable-background:new 0 0 64 64;" xml:space="preserve">
<path d="M5,62c-0.3,0-0.5-0.2-0.5-0.5V58H3c-0.3,0-0.5-0.2-0.5-0.5v-18C2.5,39.2,2.7,39,3,39h7.5v-8H3c-0.3,0-0.5-0.2-0.5-0.5v-12
	C2.5,18.2,2.7,18,3,18h16c0.3,0,0.5,0.2,0.5,0.5v12c0,0.3-0.2,0.5-0.5,0.5h-7.5v8h5v-3.5c0-0.3,0.2-0.5,0.5-0.5h6.5v-5.5
	c0-2.2,1.6-4.1,3.8-4.4l1-0.2l-0.7-0.7c-1.3-1.2-2-2.9-2-4.7c0-3.6,2.9-6.5,6.5-6.5s6.5,2.9,6.5,6.5c0,1.8-0.7,3.5-2,4.7l-0.7,0.7
	l1,0.2c2.2,0.4,3.8,2.2,3.8,4.4V39H43c0.3,0,0.5,0.2,0.5,0.5V43h2.9l-1.9-11.4c0-0.1,0-0.3,0.1-0.4c0.1-0.1,0.2-0.2,0.4-0.2h3.5
	l-1.7-3.8l0.9-0.4l1.9,4.2h6.9l1.9-4.2l0.9,0.4L57.5,31H61c0.1,0,0.3,0.1,0.4,0.2c0.1,0.1,0.1,0.3,0.1,0.4L59.6,43H61
	c0.3,0,0.5,0.2,0.5,0.5v14c0,0.3-0.2,0.5-0.5,0.5h-1.5v3.5c0,0.3-0.2,0.5-0.5,0.5H5z M5.5,61h53v-3h-53V61z M3.5,57h57V44H43
	c-0.3,0-0.5-0.2-0.5-0.5V40h-39V57z M47.4,43h11.2l1.8-11h-3.3l-1.4,3.2l-0.9-0.4L56,32h-6l1.3,2.8l-0.9,0.4L48.9,32h-3.3L47.4,43z
	 M36,30c0.3,0,0.5,0.2,0.5,0.5V39h3v-9.5c0-1.9-1.6-3.5-3.5-3.5h-8c-1.9,0-3.5,1.6-3.5,3.5v6c0,0.3-0.2,0.5-0.5,0.5h-6.5v3h10v-8.5
	c0-0.3,0.2-0.5,0.5-0.5s0.5,0.2,0.5,0.5V39h7v-8.5C35.5,30.2,35.7,30,36,30z M3.5,30h15V19h-15V30z M32,14c-3,0-5.5,2.5-5.5,5.5
	S29,25,32,25c3,0,5.5-2.5,5.5-5.5S35,14,32,14z"/>
<rect x="6.5" y="22" width="4" height="1"/>
<rect x="14.5" y="22" width="1" height="1"/>
<rect x="6.5" y="26" width="4" height="1"/>
<rect x="14.5" y="26" width="1" height="1"/>
<path d="M45,20c-0.3,0-0.5-0.2-0.5-0.5v-16C44.5,3.2,44.7,3,45,3h16c0.3,0,0.5,0.2,0.5,0.5v16c0,0.3-0.2,0.5-0.5,0.5H45z M45.5,19
	h15V4h-15V19z"/>
<rect x="48.5" y="7" width="9" height="1"/>
<rect x="48.5" y="11" width="9" height="1"/>
<rect x="48.5" y="15" width="9" height="1"/>
</svg>
