<?xml version="1.0" encoding="utf-8"?>
<!-- Generator: Adobe Illustrator 20.1.0, SVG Export Plug-In . SVG Version: 6.00 Build 0)  -->
<!DOCTYPE svg PUBLIC "-//W3C//DTD SVG 1.1//EN" "http://www.w3.org/Graphics/SVG/1.1/DTD/svg11.dtd">
<svg version="1.1" id="custom-products" xmlns="http://www.w3.org/2000/svg" xmlns:xlink="http://www.w3.org/1999/xlink" x="0px"
	 y="0px" viewBox="0 0 150 150" style="enable-background:new 0 0 150 150;" xml:space="preserve">
<style type="text/css">
	.st0{fill:#E5CA3A;}
</style>
<path class="st0" d="M88.4,11c-29,0-52.5,20.6-52.5,46.2s23.5,46.2,52.5,46.2c10.5,0,20.3-2.8,28.6-7.5c7.5,4.4,15.5,4.3,20,3.6
	c1.4-0.1,1.7-1.9,0.6-2.6c-4.6-2.9-6.9-7-8.3-10.8c7.3-7.9,11.7-18,11.7-29C141.1,31.6,117.4,11,88.4,11z M119.4,76.5H83.6v-8.2
	h35.8V76.5z M119.4,61.2H57.6V53h61.8C119.4,53,119.4,61.2,119.4,61.2z M119.4,45.8H57.6v-8.2h61.8
	C119.4,37.7,119.4,45.8,119.4,45.8z M88.4,112.3c2.1,0,4.1-0.1,6.1-0.3c-5.5,15.6-22.1,27.1-41.9,27.1c-8.7,0-16.9-2.2-23.8-6.2
	c-6.2,3.7-12.9,3.6-16.7,3c-1.1-0.1-1.4-1.5-0.4-2.2c3.7-2.5,5.8-5.9,6.9-9c-6.1-6.6-9.7-14.9-9.7-24c0-13.1,7.6-24.9,19.2-31.8
	C34.2,93.6,59,112.3,88.4,112.3z"/>
</svg>
