<?xml version="1.0" encoding="utf-8"?>
<!-- Generator: Adobe Illustrator 20.1.0, SVG Export Plug-In . SVG Version: 6.00 Build 0)  -->
<!DOCTYPE svg PUBLIC "-//W3C//DTD SVG 1.1//EN" "http://www.w3.org/Graphics/SVG/1.1/DTD/svg11.dtd">

<svg version="1.1" id="Layer_1" xmlns="http://www.w3.org/2000/svg" xmlns:xlink="http://www.w3.org/1999/xlink" x="0px" y="0px"
	 viewBox="0 0 200 95" style="enable-background:new 0 0 200 95;" xml:space="preserve">
	
<g id="Storefront_x40_2x.png">
	<g>
		<path d="M78,64.5H66c-1.2,0-2,0.8-2,2v12c0,1.2,0.8,2,2,2h12c1.2,0,2-0.8,2-2v-12C80,65.3,79.2,64.5,78,64.5z M76,76.5h-8v-8h8
			V76.5z M94,88.5h-2v-52h2c1.2,0,2-0.8,2-2s-0.8-2-2-2h-2v-8c0-2.2-1.8-4-4-4H16c-2.2,0-4,1.8-4,4v8h-2c-1.2,0-2,0.8-2,2s0.8,2,2,2
			h2v52h-2c-1.2,0-2,0.8-2,2s0.8,2,2,2h84c1.2,0,2-0.8,2-2S95.2,88.5,94,88.5z M56,88.5h-8v-20h8V88.5z M88,88.5H60v-22
			c0-1.2-0.8-2-2-2H46c-1.2,0-2,0.8-2,2v22H16V45.7c1.4,1.6,3.6,2.8,6,2.8s4.6-1,6-2.8c1.4,1.6,3.6,2.8,6,2.8s4.6-1,6-2.8
			c1.4,1.6,3.6,2.8,6,2.8s4.6-1,6-2.8c1.4,1.6,3.6,2.8,6,2.8s4.6-1,6-2.8c1.4,1.6,3.6,2.8,6,2.8s4.6-1,6-2.8c1.4,1.6,3.6,2.8,6,2.8
			s4.6-1,6-2.8V88.5z M18,40.5v-4h8v4c0,2.2-1.8,4-4,4S18,42.7,18,40.5z M30,40.5v-4h8v4c0,2.2-1.8,4-4,4S30,42.7,30,40.5z M42,40.5
			v-4h8v4c0,2.2-1.8,4-4,4S42,42.7,42,40.5z M54,40.5v-4h8v4c0,2.2-1.8,4-4,4S54,42.7,54,40.5z M66,40.5v-4h8v4c0,2.2-1.8,4-4,4
			S66,42.7,66,40.5z M78,40.5v-4h8v4c0,2.2-1.8,4-4,4S78,42.7,78,40.5z M88,32.5H16v-8h72V32.5z M38,64.5H26c-1.2,0-2,0.8-2,2v12
			c0,1.2,0.8,2,2,2h12c1.2,0,2-0.8,2-2v-12C40,65.3,39.2,64.5,38,64.5z M36,76.5h-8v-8h8V76.5z"/>
	</g>
</g>
<g id="Building_x40_2x.png" class="it10">
	<g>
		<path d="M122,40.5h12c1.2,0,2-0.8,2-2v-12c0-1.2-0.8-2-2-2h-12c-1.2,0-2,0.8-2,2v12C120,39.7,120.8,40.5,122,40.5z M124,28.5h8v8
			h-8V28.5z M190,12.5h-2v-6c0-1.2-0.8-2-2-2h-76c-1.2,0-2,0.8-2,2v6h-2c-1.2,0-2,0.8-2,2s0.8,2,2,2h2v74c0,1.2,0.8,2,2,2h76
			c1.2,0,2-0.8,2-2v-74h2c1.2,0,2-0.8,2-2S191.2,12.5,190,12.5z M152,88.5h-8v-20h8V88.5z M184,88.5h-28v-22c0-1.2-0.8-2-2-2h-12
			c-1.2,0-2,0.8-2,2v22h-28v-72h72V88.5z M184,12.5h-72v-4h72V12.5z M162,40.5h12c1.2,0,2-0.8,2-2v-12c0-1.2-0.8-2-2-2h-12
			c-1.2,0-2,0.8-2,2v12C160,39.7,160.8,40.5,162,40.5z M164,28.5h8v8h-8V28.5z M162,60.5h12c1.2,0,2-0.8,2-2v-12c0-1.2-0.8-2-2-2
			h-12c-1.2,0-2,0.8-2,2v12C160,59.7,160.8,60.5,162,60.5z M164,48.5h8v8h-8V48.5z M122,60.5h12c1.2,0,2-0.8,2-2v-12
			c0-1.2-0.8-2-2-2h-12c-1.2,0-2,0.8-2,2v12C120,59.7,120.8,60.5,122,60.5z M124,48.5h8v8h-8V48.5z M142,60.5h12c1.2,0,2-0.8,2-2
			v-12c0-1.2-0.8-2-2-2h-12c-1.2,0-2,0.8-2,2v12C140,59.7,140.8,60.5,142,60.5z M144,48.5h8v8h-8V48.5z M162,80.5h12
			c1.2,0,2-0.8,2-2v-12c0-1.2-0.8-2-2-2h-12c-1.2,0-2,0.8-2,2v12C160,79.7,160.8,80.5,162,80.5z M164,68.5h8v8h-8V68.5z M122,80.5
			h12c1.2,0,2-0.8,2-2v-12c0-1.2-0.8-2-2-2h-12c-1.2,0-2,0.8-2,2v12C120,79.7,120.8,80.5,122,80.5z M124,68.5h8v8h-8V68.5z
			 M142,40.5h12c1.2,0,2-0.8,2-2v-12c0-1.2-0.8-2-2-2h-12c-1.2,0-2,0.8-2,2v12C140,39.7,140.8,40.5,142,40.5z M144,28.5h8v8h-8V28.5
			z"/>
	</g>
</g>
</svg>
