<?xml version="1.0" encoding="utf-8"?>
<!-- Generator: Adobe Illustrator 20.1.0, SVG Export Plug-In . SVG Version: 6.00 Build 0)  -->
<!DOCTYPE svg PUBLIC "-//W3C//DTD SVG 1.1//EN" "http://www.w3.org/Graphics/SVG/1.1/DTD/svg11.dtd">
<svg version="1.1" id="safety-above-all" xmlns="http://www.w3.org/2000/svg" xmlns:xlink="http://www.w3.org/1999/xlink" x="0px"
	 y="0px" viewBox="0 0 200.2 200.2" style="enable-background:new 0 0 200.2 200.2;" xml:space="preserve">
<style type="text/css">
	.st0{fill:#003F70;}
</style>
<title>12</title>
<g>
	<path class="st0" d="M43.3,175.5l-0.6,20.1h4.2l0.6-21.2c0-0.6-0.2-1.1-0.6-1.5L11,136.1c-1.4-1.4-2.1-3.3-2.1-5.3V86.7
		c0-3.2,2.6-5.7,5.7-5.7l0,0l0,0c3.2,0,5.8,2.5,5.9,5.7l0.6,34.6c0,0.5,0.1,0.9,0.4,1.3l14,18c3.1,3.5,8.4,3.9,12,0.8
		c2.9-2.5,3.7-6.7,2-10.1l-6.6-11.7c-1.3-2.9-0.1-6.3,2.7-7.6c2.3-1.1,5.1-0.5,6.8,1.5l22.7,30.1c1,1.2,1.6,2.7,1.7,4.2l1.9,47.7
		h4.2l-1.9-47.7c-0.1-2.5-1-4.8-2.5-6.8l-22.5-29.7c-3.6-4.2-9.9-4.6-14-1.1c-3.4,2.9-4.4,7.8-2.5,11.9l6.6,11.7
		c1.1,2,0.4,4.6-1.6,5.8c-1.9,1.1-4.3,0.5-5.6-1.3l-13.6-17.6l-0.6-33.9c-0.1-5.6-4.8-10.1-10.4-10c0,0,0,0,0,0l0,0
		c-5.4,0.1-9.8,4.5-9.8,10v44.1c0,3.1,1.2,6.1,3.4,8.3L43.3,175.5z"/>
	<path class="st0" d="M195.5,130.8V86.7c0-5.5-4.5-10-10-10l0,0c-5.5,0-10.1,4.4-10.2,10l-0.6,33.9l-13.6,17.6c-1,1.2-2.5,1.8-4,1.5
		c-2.3-0.4-3.8-2.6-3.4-4.9c0.1-0.4,0.2-0.8,0.4-1.2l6.6-11.7c2.4-5,0.3-10.9-4.7-13.3c-4.1-2-8.9-0.9-11.9,2.5l-22.5,29.7
		c-1.5,1.9-2.4,4.3-2.5,6.8l-2.1,47.9h4.2l1.9-47.7c0.1-1.6,0.7-3.2,1.7-4.5l22.5-29.7c2-2.4,5.7-2.7,8.1-0.7c2,1.7,2.6,4.5,1.5,6.8
		l-6.6,11.7c-2.1,4.2-0.3,9.3,3.9,11.4c3.4,1.7,7.6,0.9,10.1-2l14.2-18c0.3-0.4,0.4-0.8,0.4-1.3l0.6-34.6c0.1-3.3,2.9-5.8,6.1-5.7
		c0,0,0,0,0,0l0,0c3,0.1,5.4,2.5,5.5,5.5v44.1c0,2-0.8,3.9-2.1,5.3l-36,37.1c-0.4,0.4-0.6,0.9-0.6,1.5l0.6,21.2h4.2l-0.6-20.1
		l35.4-36.7C194.2,136.9,195.5,133.9,195.5,130.8z"/>
	<path class="st0" d="M99,4.3c-10.4-0.2-19,8.2-19.2,18.6c-0.1,3.9,1.1,7.7,3.3,10.9C81.5,35,80,36.4,78.7,38
		c-1.2-1.4-2.5-2.7-4-3.8c5.3-8.3,2.8-19.3-5.5-24.6s-19.3-2.8-24.6,5.5c-3.7,5.8-3.7,13.2,0,19c-6,4.5-9.6,11.6-9.5,19.1V66
		c0,5.9,4.7,10.6,10.6,10.6h27.6c0.9,4.9,5.2,8.6,10.2,8.7h31.4c5.1,0,9.5-3.7,10.4-8.7h27.6c5.9,0,10.6-4.7,10.6-10.6V53.2
		c0-7.5-3.5-14.6-9.5-19.1c5.3-8.3,2.8-19.3-5.5-24.6c-8.3-5.3-19.3-2.8-24.6,5.5c-3.7,5.8-3.7,13.2,0,19c-1.5,1.1-2.8,2.4-4,3.8
		c-1.4-1.6-2.9-3-4.7-4.2c5.9-8.6,3.6-20.4-5-26.2C106.7,5.3,102.9,4.2,99,4.3z M99,8.5c8.2,0,14.8,6.6,14.8,14.8
		S107.2,38.2,99,38.2s-14.8-6.6-14.8-14.8S90.8,8.5,99,8.5z M59.4,10.8c7.5,0,13.6,6.1,13.6,13.6S66.9,38,59.4,38
		s-13.6-6.1-13.6-13.6l0,0C45.8,16.9,51.9,10.8,59.4,10.8z M72.7,54.1v18.4H45.4c-3.5,0-6.4-2.8-6.4-6.4V53.4
		c-0.1-6.4,2.9-12.4,8.1-16.1C54,44,65,44,71.9,37.3c1.6,1.2,3,2.6,4.2,4.2C73.9,45.4,72.8,49.7,72.7,54.1z M138.7,10.8
		c7.5,0,13.6,6.1,13.6,13.6S146.2,38,138.7,38s-13.6-6.1-13.6-13.6S131.2,10.8,138.7,10.8L138.7,10.8z M126.2,37.3
		c6.9,6.7,17.9,6.7,24.8,0c5.1,3.7,8.1,9.6,8.1,15.9V66c0,3.5-2.8,6.4-6.4,6.4h-27.3V54.1c0-4.4-1.1-8.7-3.2-12.5
		C123.3,40,124.6,38.5,126.2,37.3z M120.9,54.1v20.6c0,3.5-2.8,6.4-6.4,6.4H83.3c-3.5,0-6.4-2.8-6.4-6.4V54.1
		c0-6.8,3.2-13.2,8.7-17.2c7.3,7.2,19.2,7.2,26.5,0c5.6,3.9,8.9,10.3,8.9,17.2H120.9z"/>
</g>
</svg>
