<?xml version="1.0" encoding="utf-8"?>
<!-- Generator: Adobe Illustrator 20.1.0, SVG Export Plug-In . SVG Version: 6.00 Build 0)  -->
<!DOCTYPE svg PUBLIC "-//W3C//DTD SVG 1.1//EN" "http://www.w3.org/Graphics/SVG/1.1/DTD/svg11.dtd">
<svg version="1.1" id="Layer_1" xmlns="http://www.w3.org/2000/svg" xmlns:xlink="http://www.w3.org/1999/xlink" x="0px" y="0px"
	 viewBox="0 0 250 115.9" style="enable-background:new 0 0 250 115.9;" xml:space="preserve">
<style type="text/css">
	.st0{fill:#414042;}
	.st1{fill:#E5C93A;}
	.st2{fill:#556C11;}
	.st3{fill:#003F70;}
</style>
<g>
	<g>
		<path class="st0" d="M84.3,78.8c0-0.6,0-1.4,0-2s0-1.4,0-2c-0.6,1.4-1.7,2.6-2.9,3.5c-1.2,0.9-2.9,1.2-4.9,1.2
			c-5.2,0-7.8-3.5-7.8-10.4V32.9c0-3.8,0.6-6.4,2-7.8c1.2-1.4,3.5-2.3,6.1-2.3c1.4,0,2.6,0.3,3.8,0.9c1.2,0.6,2,1.4,2.9,2.6V5.5h5.8
			v73.4H84.3z M83.1,32.6c-1.2-2.3-2.6-3.8-4.9-3.8c-1.4,0-2.3,0.3-2.9,1.2c-0.6,0.6-0.9,1.7-0.9,3.5v34.9c0,1.7,0.3,2.9,0.9,3.8
			c0.6,0.6,1.4,1.2,2.9,1.2c2.3,0,3.8-1.2,4.9-3.8V32.6z"/>
		<path class="st0" d="M96.1,16.4v-11h6.1v11H96.1z M96.1,78.8V23.7h6.1v55.2H96.1z"/>
		<path class="st0" d="M123.5,78.8V33.2c0-1.7-0.3-2.9-0.9-3.5s-1.4-1.2-2.9-1.2c-0.9,0-1.7,0.3-2.6,0.9c-0.9,0.6-1.4,1.4-2,2.6
			v46.8h-6.1V23.7h5.2c0.3,1.4,0.3,2.9,0.3,4.3c0.9-1.4,2-2.9,3.2-3.8c1.4-0.9,2.9-1.4,4.6-1.4c2.6,0,4.3,0.9,5.5,2.3
			c1.2,1.7,1.7,4.3,1.7,7.8v45.9C129.6,78.8,123.5,78.8,123.5,78.8z"/>
		<path class="st0" d="M135.7,33.8c0-3.5,0.9-6.4,2.6-8.1c1.7-2,4.3-2.9,7.8-2.9c3.5,0,6.1,0.9,7.5,2.9c1.7,2,2.6,4.6,2.6,8.1v34.9
			c0,3.5-0.9,6.4-2.6,8.1s-4.3,2.9-7.5,2.9c-3.5,0-6.1-0.9-7.8-2.9c-1.7-1.7-2.6-4.6-2.6-8.1V33.8z M149.8,34.1
			c0-1.4-0.3-2.9-0.9-3.8s-1.7-1.2-3.5-1.2s-2.9,0.3-3.5,1.2c-0.6,0.9-0.9,2-0.9,3.8v34.7c0,1.4,0.3,2.6,0.9,3.5
			c0.6,0.9,1.7,1.2,3.5,1.2c1.7,0,2.9-0.3,3.5-1.2s0.9-2,0.9-3.8V34.1z"/>
		<path class="st1" d="M162.2,78.8V29.2h-2.6v-5.5h2.6v-7.8c0-3.5,0.6-6.1,1.7-8.1c1.2-2,3.5-2.9,6.6-2.9c0.6,0,1.4,0,2,0
			c0.6,0,1.4,0.3,1.7,0.3v5.5c-0.6-0.3-1.4-0.3-2.3-0.3c-1.4,0-2.6,0.3-3.2,1.2c-0.6,0.9-1.2,2.3-1.2,4.3v7.5h6.4v5.5h-6.4v50
			C167.7,78.8,162.2,78.8,162.2,78.8z"/>
		<path class="st1" d="M179,78.8V5.5h6.1v73.4H179z"/>
		<path class="st1" d="M205,56.3h5.8v12.1c0,7.5-3.2,11.3-9.8,11.3c-6.4,0-9.5-3.8-9.5-11.3V34.1c0-3.8,0.9-6.6,2.6-8.4
			c1.7-2,4-2.9,7.2-2.9c6.6,0,9.8,3.8,9.8,11.3V52h-13.9v16.5c0,3.2,1.2,4.9,3.8,4.9c2.6,0,4-1.7,4-4.9V56.3z M205,34.1
			c0-3.2-1.4-4.9-4-4.9c-2.6,0-3.8,1.7-3.8,4.9v13.3h8.1V34.1H205z"/>
		<path class="st1" d="M231.3,78.8c-0.6-2-1.2-4-1.7-6.4c-0.6-2.3-1.2-4.6-1.7-6.9c-0.6-2.3-1.2-4.3-1.4-6.4c-0.6-2-0.9-3.8-1.2-5.2
			c-0.3,1.4-0.6,3.2-1.2,5.2c-0.3,2-0.9,4-1.4,6.4s-1.2,4.6-1.7,6.9c-0.6,2.3-1.2,4.3-1.7,6.4h-6.1l8.1-29.5l-6.9-26h6.4
			c0.3,1.4,0.9,3.2,1.2,5.2c0.6,2,0.9,4,1.4,5.8c0.6,2,0.9,3.8,1.2,5.5c0.3,1.7,0.6,3.2,0.9,4c0.3-0.9,0.6-2.3,0.9-4
			c0.3-1.7,0.9-3.5,1.2-5.5c0.6-2,0.9-4,1.4-5.8c0.6-2,0.9-3.8,1.2-5.2h6.6l-6.9,25.7l8.1,29.5h-6.4V78.8z"/>
	</g>
	<g>
		<path class="st0" d="M68.4,108V91.5h1.4c0,0.3,0,0.9,0,1.2c0.3-0.6,0.6-0.9,0.9-1.2c0.3-0.3,0.6-0.3,1.2-0.3c0.3,0,0.3,0,0.6,0v2
			c0,0-0.3,0-0.3-0.3c-0.3,0-0.3,0-0.6,0c-0.3,0-0.6,0-0.9,0.3c-0.3,0-0.6,0.3-0.6,0.9V108H68.4z"/>
		<path class="st0" d="M77.6,101.1h1.7v3.8c0,2.3-0.9,3.5-2.9,3.5s-2.9-1.2-2.9-3.5V94.4c0-1.2,0.3-2,0.9-2.6c0.6-0.6,1.2-0.9,2-0.9
			c2,0,2.9,1.2,2.9,3.5v5.2h-4v4.9c0,0.9,0.3,1.4,1.2,1.4c0.9,0,1.2-0.6,1.2-1.4V101.1z M77.6,94.4c0-0.9-0.3-1.4-1.2-1.4
			c-0.9,0-1.2,0.6-1.2,1.4v4h2.3V94.4z"/>
		<path class="st0" d="M85.4,101.1h1.7v3.8c0,1.2-0.3,1.7-0.6,2.3c-0.6,0.6-1.2,0.9-2.3,0.9c-1.2,0-1.7-0.3-2.3-0.9
			c-0.6-0.6-0.9-1.4-0.9-2.3V94.4c0-1.2,0.3-1.7,0.9-2.6c0.6-0.6,1.2-0.9,2.3-0.9c1.2,0,1.7,0.3,2.3,0.9c0.6,0.6,0.6,1.4,0.6,2.6
			v3.5h-1.7v-3.5c0-0.9-0.3-1.4-1.2-1.4c-0.3,0-0.6,0-0.9,0.3c-0.3,0.3-0.3,0.6-0.3,1.2v10.4c0,0.9,0.3,1.4,1.2,1.4s1.2-0.6,1.2-1.4
			V101.1z"/>
		<path class="st0" d="M88.3,109.7c0.3,0,0.6,0,0.9,0s0.6-0.3,0.9-0.6c0.3-0.3,0.3-0.6,0.3-1.2v-0.6L88,91.3h2c0,0.6,0.3,1.4,0.3,2
			c0,0.9,0.3,1.4,0.3,2.3s0.3,1.7,0.3,2.6c0,0.9,0.3,1.7,0.3,2.3s0,1.4,0.3,2c0,0.6,0,0.9,0.3,1.4c0-0.3,0-0.9,0.3-1.4
			c0-0.6,0-1.2,0.3-2c0-0.6,0.3-1.4,0.3-2.3s0.3-1.7,0.3-2.6c0-0.9,0.3-1.7,0.3-2.3c0-0.9,0.3-1.4,0.3-2h1.7L92.6,108
			c0,0.6-0.3,1.2-0.3,1.4c0,0.6-0.3,0.9-0.6,1.2c-0.3,0.3-0.6,0.6-0.9,0.6c-0.9,0.6-1.2,0.6-1.7,0.6c-0.3,0-0.6,0-0.9,0V109.7z"/>
		<path class="st0" d="M100.1,101.1h1.7v3.8c0,1.2-0.3,1.7-0.6,2.3c-0.6,0.6-1.2,0.9-2.3,0.9c-1.2,0-1.7-0.3-2.3-0.9
			c-0.6-0.6-0.9-1.4-0.9-2.3V94.4c0-1.2,0.3-1.7,0.9-2.6c0.6-0.6,1.2-0.9,2.3-0.9s1.7,0.3,2.3,0.9c0.6,0.6,0.6,1.4,0.6,2.6v3.5h-1.7
			v-3.5c0-0.9-0.3-1.4-1.2-1.4c-0.3,0-0.6,0-0.9,0.3c-0.3,0.3-0.3,0.6-0.3,1.2v10.4c0,0.9,0.3,1.4,1.2,1.4c0.9,0,1.2-0.6,1.2-1.4
			V101.1z"/>
		<path class="st0" d="M103.6,108V85.8h1.7v22h-1.7V108z"/>
		<path class="st0" d="M111.4,101.1h1.7v3.8c0,2.3-0.9,3.5-2.9,3.5c-2,0-2.9-1.2-2.9-3.5V94.4c0-1.2,0.3-2,0.9-2.6s1.2-0.9,2-0.9
			c2,0,2.9,1.2,2.9,3.5v5.2h-4v4.9c0,0.9,0.3,1.4,1.2,1.4c0.9,0,1.2-0.6,1.2-1.4V101.1z M111.4,94.4c0-0.9-0.3-1.4-1.2-1.4
			c-0.9,0-1.2,0.6-1.2,1.4v4h2.3C111.4,98.5,111.4,94.4,111.4,94.4z"/>
		<path class="st0" d="M119.5,108c0-0.3,0-0.3,0-0.6c0-0.3,0-0.3,0-0.6c-0.3,0.6-0.6,0.9-0.9,1.2c-0.3,0.3-0.9,0.3-1.4,0.3
			c-1.4,0-2.3-1.2-2.3-3.2v-11c0-1.2,0.3-1.7,0.6-2.3c0.3-0.6,0.9-0.6,1.7-0.6c0.3,0,0.9,0,1.2,0.3c0.3,0.3,0.6,0.6,0.9,0.9v-6.6
			h1.7v22h-1.4V108z M119.2,94.1c-0.3-0.9-0.9-1.2-1.4-1.2c-0.3,0-0.6,0-0.9,0.3c-0.3,0.3-0.3,0.6-0.3,1.2v10.4c0,0.6,0,0.9,0.3,1.2
			c0.3,0.3,0.6,0.3,0.9,0.3c0.6,0,1.2-0.3,1.4-1.2V94.1z"/>
		<path class="st0" d="M126.7,108V91.5h1.4c0,0.3,0,0.9,0,1.2c0.3-0.6,0.6-0.9,0.9-1.2c0.3-0.3,0.6-0.3,1.2-0.3c0.3,0,0.3,0,0.6,0v2
			c0,0-0.3,0-0.3-0.3c-0.3,0-0.3,0-0.6,0c-0.3,0-0.6,0-0.9,0.3c-0.3,0-0.6,0.3-0.6,0.9V108H126.7z"/>
		<path class="st0" d="M136.5,108c0-0.3,0-0.3,0-0.6c0-0.3,0-0.3,0-0.6c-0.3,0.6-0.6,0.9-0.9,1.2c-0.3,0.3-0.9,0.3-1.4,0.3
			c-1.4,0-2-0.9-2-2.9V91.5h1.7v13.6c0,0.6,0,0.9,0.3,1.2c0.3,0.3,0.3,0.3,0.9,0.3c0.3,0,0.6,0,0.9-0.3c0.3-0.3,0.6-0.3,0.6-0.9
			V91.5h1.7V108C138.3,108,136.5,108,136.5,108z"/>
		<path class="st0" d="M140.3,108V85.8h1.7v6.4c0.3-0.3,0.6-0.6,0.9-0.9c0.3-0.3,0.9-0.3,1.2-0.3c0.9,0,1.4,0.3,1.7,0.6
			c0.3,0.6,0.6,1.2,0.6,2.3v10.7c0,1.2-0.3,2-0.6,2.6c-0.3,0.6-1.2,0.9-2,0.9c-0.6,0-1.2,0-1.4-0.3c-0.3-0.3-0.6-0.6-0.9-1.2
			c0,0.3,0,0.3,0,0.6c0,0.3,0,0.3-0.3,0.6h-0.9V108z M144.6,94.1c0-0.9-0.3-1.2-1.2-1.2c-0.3,0-0.6,0-0.9,0.3
			c-0.3,0.3-0.6,0.6-0.6,0.9v11c0,0.3,0.3,0.6,0.6,0.9c0.3,0.3,0.6,0.3,0.9,0.3c0.3,0,0.6,0,0.9-0.3c0.3-0.3,0.3-0.6,0.3-1.2
			C144.6,104.8,144.6,94.1,144.6,94.1z"/>
		<path class="st0" d="M148.4,108V85.8h1.7v6.4c0.3-0.3,0.6-0.6,0.9-0.9c0.3-0.3,0.9-0.3,1.2-0.3c0.9,0,1.4,0.3,1.7,0.6
			c0.3,0.6,0.6,1.2,0.6,2.3v10.7c0,1.2-0.3,2-0.6,2.6c-0.3,0.6-1.2,0.9-2,0.9c-0.6,0-1.2,0-1.4-0.3c-0.3-0.3-0.6-0.6-0.9-1.2
			c0,0.3,0,0.3,0,0.6c0,0.3,0,0.3-0.3,0.6h-0.9V108z M152.7,94.1c0-0.9-0.3-1.2-1.2-1.2c-0.3,0-0.6,0-0.9,0.3
			c-0.3,0.3-0.6,0.6-0.6,0.9v11c0,0.3,0.3,0.6,0.6,0.9c0.3,0.3,0.6,0.3,0.9,0.3c0.3,0,0.6,0,0.9-0.3c0.3-0.3,0.3-0.6,0.3-1.2
			C152.7,104.8,152.7,94.1,152.7,94.1z"/>
		<path class="st0" d="M160.5,101.1h1.7v3.8c0,2.3-0.9,3.5-2.9,3.5s-2.9-1.2-2.9-3.5V94.4c0-1.2,0.3-2,0.9-2.6
			c0.6-0.6,1.2-0.9,2-0.9c2,0,2.9,1.2,2.9,3.5v5.2h-4v4.9c0,0.9,0.3,1.4,1.2,1.4s1.2-0.6,1.2-1.4V101.1z M160.5,94.4
			c0-0.9-0.3-1.4-1.2-1.4c-0.9,0-1.2,0.6-1.2,1.4v4h2.3C160.5,98.5,160.5,94.4,160.5,94.4z"/>
		<path class="st0" d="M164,108V91.5h1.4c0,0.3,0,0.9,0,1.2c0.3-0.6,0.6-0.9,0.9-1.2c0.3-0.3,0.6-0.3,1.2-0.3c0.3,0,0.3,0,0.6,0v2
			c0,0-0.3,0-0.3-0.3c-0.3,0-0.3,0-0.6,0s-0.6,0-0.9,0.3c-0.3,0-0.6,0.3-0.6,0.9V108H164z"/>
		<path class="st0" d="M173.2,89.2v-3.5h1.7v3.5H173.2z M173.2,108V91.5h1.7V108H173.2z"/>
		<path class="st0" d="M181.3,108V94.4c0-0.6,0-0.9-0.3-1.2c-0.3-0.3-0.6-0.3-0.9-0.3c-0.3,0-0.6,0-0.9,0.3
			c-0.3,0.3-0.6,0.3-0.6,0.9v14.2H177V91.8h1.7c0,0.3,0,0.9,0,1.2c0.3-0.6,0.6-0.9,0.9-1.2c0.3-0.3,0.9-0.3,1.4-0.3
			c0.9,0,1.4,0.3,1.7,0.9c0.3,0.6,0.6,1.2,0.6,2.3v13.9h-2V108z"/>
		<path class="st0" d="M189.4,108V94.4c0-0.6,0-0.9-0.3-1.2c-0.3-0.3-0.6-0.3-0.9-0.3c-0.3,0-0.6,0-0.9,0.3
			c-0.3,0.3-0.6,0.3-0.6,0.9v14.2h-1.7V91.8h1.4c0,0.3,0,0.9,0,1.2c0.3-0.6,0.6-0.9,0.9-1.2c0.3-0.3,0.9-0.3,1.4-0.3
			c0.9,0,1.4,0.3,1.7,0.9c0.3,0.6,0.6,1.2,0.6,2.3v13.9h-1.7V108z"/>
		<path class="st0" d="M193.1,94.4c0-1.2,0.3-2,0.9-2.6c0.6-0.6,1.2-0.9,2.3-0.9s1.7,0.3,2.3,0.9c0.6,0.6,0.9,1.4,0.9,2.6v10.4
			c0,1.2-0.3,2-0.9,2.3c-0.6,0.6-1.2,0.9-2.3,0.9s-1.7-0.3-2.3-0.9c-0.6-0.3-0.9-1.2-0.9-2.3V94.4z M197.5,94.4c0-0.6,0-0.9-0.3-1.2
			c-0.3-0.3-0.6-0.3-0.9-0.3c-0.6,0-0.9,0-0.9,0.3c-0.3,0.3-0.3,0.6-0.3,1.2v10.4c0,0.6,0,0.9,0.3,1.2c0.3,0.3,0.6,0.3,0.9,0.3
			c0.6,0,0.9,0,0.9-0.3c0.3-0.3,0.3-0.6,0.3-1.2V94.4z"/>
		<path class="st0" d="M202.7,108l-2.3-16.5h1.7c0,0.9,0.3,2,0.6,3.2c0.3,1.2,0.3,2.3,0.6,3.5c0,1.2,0.3,2,0.3,3.2
			c0,0.9,0.3,1.7,0.3,2.3c0-0.6,0-1.2,0.3-2.3c0-0.9,0.3-2,0.3-3.2c0.3-1.2,0.3-2.3,0.6-3.5c0.3-1.2,0.3-2.3,0.6-3.2h1.7l-2.6,16.5
			C204.7,108,202.7,108,202.7,108z"/>
		<path class="st0" d="M212.2,108c0-0.3,0-0.6,0-0.9c-0.6,0.9-1.2,1.2-2,1.2c-0.9,0-1.4-0.3-1.7-0.6c-0.3-0.3-0.6-1.2-0.6-2v-2.6
			c0-0.9,0-1.4,0.3-2c0.3-0.6,0.6-0.9,0.9-1.4s0.9-0.6,1.4-0.9c0.6-0.3,1.2-0.6,1.7-0.9v-3.5c0-0.6,0-0.9-0.3-1.2
			c-0.3-0.3-0.6-0.3-0.9-0.3c-0.6,0-0.9,0-0.9,0.3c-0.3,0.3-0.3,0.6-0.3,1.2v3.5h-1.7v-3.5c0-1.2,0.3-2,0.6-2.3
			c0.6-0.6,1.2-0.9,2.3-0.9c2,0,2.9,1.2,2.9,3.2V106c0,0.3,0,0.9,0,1.2c0,0.3,0,0.6,0,0.9H212.2z M211.9,99.3
			c-0.6,0.3-0.9,0.3-1.4,0.6c-0.3,0.3-0.6,0.6-0.9,0.9c-0.3,0.3-0.3,0.6-0.3,1.2c0,0.3,0,0.9,0,1.4v1.7c0,0.9,0.3,1.4,1.2,1.4
			c0.3,0,0.6,0,0.9-0.3c0.3-0.3,0.3-0.3,0.6-0.9V99.3z"/>
		<path class="st0" d="M219.1,108h-0.3c-0.3,0-0.3,0-0.6,0c-0.9,0-1.7-0.3-2.3-0.9c-0.6-0.6-0.9-1.4-0.9-2.6V92.7h-0.9V91h0.9v-5.2
			h1.7V91h2.3v1.7h-1.7v11.8c0,0.6,0,1.2,0.3,1.4c0.3,0.3,0.6,0.3,1.2,0.3c0,0,0,0,0.3,0c0,0,0,0,0.3,0v1.7H219.1z"/>
		<path class="st0" d="M220.3,94.4c0-1.2,0.3-2,0.9-2.6c0.6-0.6,1.2-0.9,2.3-0.9s1.7,0.3,2.3,0.9c0.6,0.6,0.9,1.4,0.9,2.6v10.4
			c0,1.2-0.3,2-0.9,2.3c-0.6,0.6-1.2,0.9-2.3,0.9s-1.7-0.3-2.3-0.9c-0.6-0.6-0.9-1.4-0.9-2.3V94.4z M224.6,94.4c0-0.6,0-0.9-0.3-1.2
			c-0.3-0.3-0.6-0.3-0.9-0.3s-0.9,0-0.9,0.3c-0.3,0.3-0.6,0.6-0.6,1.2v10.4c0,0.6,0,0.9,0.3,1.2c0.3,0.3,0.6,0.3,0.9,0.3
			c0.3,0,0.9,0,0.9-0.3c0.3-0.3,0.3-0.6,0.3-1.2V94.4H224.6z"/>
		<path class="st0" d="M228.4,108V91.5h1.4c0,0.3,0,0.9,0,1.2c0.3-0.6,0.6-0.9,0.9-1.2c0.3-0.3,0.6-0.3,1.2-0.3c0.3,0,0.3,0,0.6,0v2
			c0,0-0.3,0-0.3-0.3c-0.3,0-0.3,0-0.6,0c-0.3,0-0.6,0-0.9,0.3c-0.3,0-0.6,0.3-0.6,0.9V108H228.4z"/>
		<path class="st0" d="M237.6,103.1c0-0.3,0-0.6-0.3-0.9c-0.3-0.3-0.3-0.6-0.6-0.9c-0.3-0.6-0.9-0.9-1.2-1.2
			c-0.6-0.3-0.9-0.9-1.2-1.2c-0.3-0.3-0.6-0.9-0.6-1.2c0-0.3-0.3-0.9-0.3-1.4v-1.7c0-1.2,0.3-2,0.9-2.3c0.6-0.6,1.2-0.9,2.3-0.9
			s2,0.3,2.3,0.9c0.3,0.6,0.6,1.4,0.6,2.3v2.6h-1.7v-2.6c0-0.3,0-0.9-0.3-0.9c-0.3-0.3-0.6-0.3-0.9-0.3c-0.9,0-1.2,0.6-1.2,1.4v2
			c0,0.3,0,0.6,0.3,0.9c0,0.3,0.3,0.6,0.6,0.9c0.3,0.3,0.9,0.9,1.2,1.2c0.6,0.3,0.9,0.9,1.2,1.2c0.3,0.6,0.6,0.9,0.9,1.4
			c0,0.6,0.3,1.2,0.3,1.7v1.7c0,1.2-0.3,1.7-0.9,2.3c-0.6,0.6-1.2,0.6-2.3,0.6c-2,0-2.9-1.2-2.9-3.2v-2.6h1.7v2.6
			c0,0.3,0,0.9,0.3,0.9c0.3,0.3,0.6,0.3,0.9,0.3c0.9,0,1.2-0.6,1.2-1.4v-2.3H237.6z"/>
	</g>
	<rect x="22.4" y="52.6" class="st1" width="12.1" height="12.1"/>
	<rect x="22.4" y="67.3" class="st1" width="12.1" height="12.1"/>
	<rect x="37.2" y="67.3" class="st2" width="12.1" height="12.1"/>
	<rect x="37.2" y="52.6" class="st2" width="12.1" height="12.1"/>
	<rect x="37.2" y="37.8" class="st2" width="12.1" height="12.1"/>
	<rect x="7.7" y="67.3" class="st3" width="12.1" height="12.1"/>
	<rect x="51.9" y="67.3" class="st0" width="12.1" height="12.1"/>
	<rect x="51.9" y="52.6" class="st0" width="12.1" height="12.1"/>
	<rect x="51.9" y="37.8" class="st0" width="12.1" height="12.1"/>
	<rect x="51.9" y="23.1" class="st0" width="12.1" height="12.1"/>
	<rect x="68.4" y="82.3" class="st0" width="172.1" height="0.6"/>
</g>
</svg>
