<?xml version="1.0" encoding="utf-8"?>
<!-- Generator: Adobe Illustrator 20.1.0, SVG Export Plug-In . SVG Version: 6.00 Build 0)  -->
<!DOCTYPE svg PUBLIC "-//W3C//DTD SVG 1.1//EN" "http://www.w3.org/Graphics/SVG/1.1/DTD/svg11.dtd">
<svg version="1.1" id="Layer_1" xmlns="http://www.w3.org/2000/svg" xmlns:xlink="http://www.w3.org/1999/xlink" x="0px" y="0px"
	 viewBox="0 0 24 24" style="enable-background:new 0 0 24 24;" xml:space="preserve">
<style type="text/css">
	.st0{fill:#556C11;}
	.st1{fill:#FFFFFF;}
</style>
<g>
	<rect class="st0" width="24" height="24"/>
	<g>
		<path class="st1" d="M8.4,18.9c0,0.1,0.1,0.1,0.2,0c0.1-0.1,1.2-1.4,1.6-2.7c0.1-0.4,0.6-2.3,0.6-2.3c0.3,0.6,1.2,1,2.1,1
			c2.8,0,4.7-2.5,4.7-5.8c0-2.5-2.2-4.8-5.5-4.8C8,4.4,5.9,7.3,5.9,9.6c0,1.4,0.6,2.7,1.8,3.2c0.2,0.1,0.4,0,0.4-0.2
			c0-0.1,0.1-0.5,0.2-0.7c0.1-0.2,0-0.3-0.1-0.5C7.8,11,7.6,10.5,7.6,9.8c0-2.1,1.6-4,4.3-4c2.3,0,3.6,1.4,3.6,3.2
			c0,2.4-1.1,4.5-2.8,4.5c-0.9,0-1.6-0.7-1.4-1.6c0.3-1.1,0.8-2.2,0.8-3c0-0.7-0.4-1.3-1.2-1.3c-0.9,0-1.7,0.9-1.7,2.2
			c0,0.8,0.3,1.3,0.3,1.3s-1,3.9-1.1,4.6C8.1,17.1,8.4,18.8,8.4,18.9z"/>
	</g>
</g>
</svg>
