<?xml version="1.0" encoding="utf-8"?>
<!-- Generator: Adobe Illustrator 20.1.0, SVG Export Plug-In . SVG Version: 6.00 Build 0)  -->
<!DOCTYPE svg PUBLIC "-//W3C//DTD SVG 1.1//EN" "http://www.w3.org/Graphics/SVG/1.1/DTD/svg11.dtd">
<svg version="1.1" id="Icons" xmlns="http://www.w3.org/2000/svg" xmlns:xlink="http://www.w3.org/1999/xlink" x="0px" y="0px"
	 viewBox="0 0 35 35" style="enable-background:new 0 0 35 35;" xml:space="preserve">
<style type="text/css">
	.st0{fill:#FFFFFF;}
</style>
<g>
	<path class="st0" d="M26.2,5.1h-4.1C22.1,2.8,20.3,1,18,1c-2.3,0-4.1,1.8-4.1,4.1H9.7v4.1h16.5V5.1z M18,7.2
		c-1.1,0-2.1-0.9-2.1-2.1c0-1.1,0.9-2.1,2.1-2.1C19.1,3.1,20,4,20,5.1C20,6.3,19.1,7.2,18,7.2z"/>
	<path class="st0" d="M28.3,5.1v6.2H7.7V5.1H3.5V34h28.9V5.1H28.3z M17,29.6l-1.5-1.5l-5.8-5.8l2.9-2.9l4.4,4.4l8.3-8.3l2.9,2.9
		L17,29.6z"/>
</g>
</svg>
