<?xml version="1.0" encoding="utf-8"?>
<!-- Generator: Adobe Illustrator 20.1.0, SVG Export Plug-In . SVG Version: 6.00 Build 0)  -->
<!DOCTYPE svg PUBLIC "-//W3C//DTD SVG 1.1//EN" "http://www.w3.org/Graphics/SVG/1.1/DTD/svg11.dtd">
<svg version="1.1" id="business-innovation" xmlns="http://www.w3.org/2000/svg" xmlns:xlink="http://www.w3.org/1999/xlink"
	 x="0px" y="0px" viewBox="0 0 200.2 200.2" style="enable-background:new 0 0 200.2 200.2;" xml:space="preserve">
<style type="text/css">
	.st0{fill:#556C11;}
</style>
<path class="st0" d="M97.2,126.5c-1.8,0-3.2-1.4-3.2-3.2V99.9l-0.6-0.4c-10-6.2-15.9-16.9-15.9-28.6c0-18.5,15.1-33.6,33.6-33.6
	s33.6,15.1,33.6,33.6c0,11.7-6,22.4-15.9,28.6l-0.6,0.4v23.4c0,1.8-1.4,3.2-3.2,3.2H97.2z M100.3,104.4v16h21.3V102h-20.1
	L100.3,104.4z M114.4,95.7h9l0.5-0.5c8.8-4.7,14.4-13.9,14.6-24c0-15-12.2-27.3-27.2-27.3C96.2,44,84,56.2,84,71.2
	c0,10.3,5.9,19.9,15.1,24.4l0.3,0.1h8.7V77.3h-4.3V71h15v6.4h-4.3L114.4,95.7L114.4,95.7z"/>
<path class="st0" d="M83.5,193.2c-0.8,0-1.6-0.3-2.2-1c-0.7-0.7-1-1.7-1-2.4L81,165l-27.8,1.9c-0.1,0-0.2,0-0.3,0
	c-1.4,0-2.7-1.1-3-2.6l-6.8-33.2l-19.7-1.9h-0.1c-0.8,0-1.8-0.6-2.2-1.4c-0.6-0.9-0.7-1.8-0.3-3l21.6-55.1v-0.2
	C42.9,34.6,74.3,4.9,111,4.9c28.8,0,56.1,18.5,65,44V49v0.1c5.9,12.8,3.1,36.9,0.7,58.2l-0.1,1c-0.9,6.7-1.6,13.4-2,19.3
	c-0.6,6.8-0.5,14.2,0.2,22.7l3.6,38.4v0.1c0.1,0.7-0.2,1.6-0.8,2.2l-0.1,0.1v0.1c-0.6,0.8-1.3,1.1-2.3,1.1L83.5,193.2z M87.7,164.4
	l-0.8,22.5l84.8-0.9l-3.3-35c-0.7-7.8-0.9-16-0.7-23.7c0.5-6.1,1.2-12.9,2-19.6l0.1-1.2c2.2-19.5,5-43.7-0.3-54.9l-0.1-0.2l-0.1-0.1
	l0,0c-7.9-23-32.7-39.7-58.9-39.7c-33.7,0-62.2,27-62.2,59c0,0.2,0,0.8-0.1,1L48,71.7l-20.2,51.8l17.9,1.8c1.5,0.2,2.6,1.1,2.9,2.6
	l6.8,32.9l28.5-1.9l24.4-4.5l1.1,6.2L87.7,164.4z"/>
</svg>
