<?xml version="1.0" encoding="utf-8"?>
<!-- Generator: Adobe Illustrator 20.1.0, SVG Export Plug-In . SVG Version: 6.00 Build 0)  -->
<!DOCTYPE svg PUBLIC "-//W3C//DTD SVG 1.1//EN" "http://www.w3.org/Graphics/SVG/1.1/DTD/svg11.dtd">
<svg version="1.1" id="customer-intimacy" xmlns="http://www.w3.org/2000/svg" xmlns:xlink="http://www.w3.org/1999/xlink" x="0px"
	 y="0px" viewBox="0 0 200.2 200.2" style="enable-background:new 0 0 200.2 200.2;" xml:space="preserve">
<style type="text/css">
	.st0{display:none;}
	.st1{display:inline;}
	.st2{fill:#556C11;}
</style>
<g class="st0">
	<path class="st1" d="M606.1,497.5h-1316c-1.7,0-3-1.4-3-3V-819.9c0-1.7,1.3-3,3-3h1316c1.7,0,3,1.3,3,3V494.5
		C609.1,496.1,607.7,497.5,606.1,497.5z"/>
</g>
<g>
	<path class="st2" d="M18.7,129c0,10.1,8.2,18.3,18.3,18.3s18.3-8.2,18.3-18.3s-8.2-18.3-18.3-18.3S18.7,118.9,18.7,129z M49.7,129
		c0,7-5.7,12.7-12.7,12.7s-12.7-5.7-12.7-12.7c0-7,5.7-12.7,12.7-12.7S49.7,122,49.7,129z"/>
	<path class="st2" d="M17.6,169.5c0-7.4,6-13.4,13.4-13.4H43c7.4,0,13.4,6,13.4,13.4v26.7H62v-26.7c0-10.5-8.5-19-19-19H31
		c-10.5,0-19,8.5-19,19v26.7h5.6C17.6,196.1,17.6,169.5,17.6,169.5z"/>
	<path class="st2" d="M152.8,128.8c-10.1,0-18.3,8.2-18.3,18.3c0,10.1,8.2,18.3,18.3,18.3c10.1,0,18.3-8.2,18.3-18.3
		C171.2,137,163,128.8,152.8,128.8z M152.8,159.8c-7,0-12.7-5.7-12.7-12.7c0-7,5.7-12.7,12.7-12.7c7,0,12.7,5.7,12.7,12.7
		C165.6,154.1,159.9,159.8,152.8,159.8z"/>
	<path class="st2" d="M133.4,187.5c0-7.4,6-13.4,13.4-13.4h12.1c7.4,0,13.4,6,13.4,13.4v8.6h5.6v-8.6c0-10.5-8.5-19-19-19h-12.1
		c-10.5,0-19,8.5-19,19v8.6h5.6L133.4,187.5L133.4,187.5z"/>
	<path class="st2" d="M188,126.9c0.8,0,1.5-0.2,2.2-0.6c1.5-0.8,2.4-2.4,2.4-4V54.4c0-7.8-6.3-14.1-14.1-14.1h-52.2V18.1
		c0-7.8-6.3-14.1-14.1-14.1H21.7C13.9,4,7.5,10.3,7.5,18.1V86c0,1.7,0.9,3.2,2.4,4c0.7,0.4,1.5,0.6,2.2,0.6c0.9,0,1.7-0.2,2.5-0.7
		l15.8-10h58V102c0,7.8,6.3,14.1,14.1,14.1l67.2,0l15.9,10.1C186.3,126.6,187.2,126.9,188,126.9z M88.4,54.4v19.3h-58
		c-1.1,0-2.2,0.3-3.2,0.9l-13.4,8.5V18.1c0-4.3,3.5-7.9,7.9-7.9h90.6c4.3,0,7.9,3.5,7.9,7.9v22.1h-17.6
		C94.7,40.3,88.4,46.6,88.4,54.4z M120.1,46.5v19.3c0,4.3-3.5,7.9-7.9,7.9H94.6V54.4c0-4.3,3.5-7.9,7.9-7.9
		C102.5,46.5,120.1,46.5,120.1,46.5z M169.8,109.9h-67.3c-4.3,0-7.9-3.5-7.9-7.9V79.9h17.6c7.8,0,14.1-6.3,14.1-14.1V46.5h52.2
		c4.3,0,7.9,3.5,7.9,7.9v64.9l-13.4-8.5C172,110.3,170.9,109.9,169.8,109.9z"/>
</g>
</svg>
