<?xml version="1.0" encoding="utf-8"?>
<!-- Generator: Adobe Illustrator 20.1.0, SVG Export Plug-In . SVG Version: 6.00 Build 0)  -->
<!DOCTYPE svg PUBLIC "-//W3C//DTD SVG 1.1//EN" "http://www.w3.org/Graphics/SVG/1.1/DTD/svg11.dtd">
<svg version="1.1" id="core-values" xmlns="http://www.w3.org/2000/svg" xmlns:xlink="http://www.w3.org/1999/xlink" x="0px"
	 y="0px" viewBox="0 0 200 200" style="enable-background:new 0 0 200 200;" xml:space="preserve">
<style type="text/css">
	.st0{fill:#E5CA3A;}
</style>
<path class="st0" d="M172.1,136.4c0.9,0.9,2,0.7,2.7,0c0.7-0.7,0.7-2,0-2.7l-9.1-9.1c2.5-1.1,4.5-2.7,6.6-4.5l6.1-6.1l6.8-6.8l8,8
	c0.9,0.9,2,0.7,2.7,0c0.7-0.7,0.7-2,0-2.7l-8-8l0.7-0.7c2.5-2.5,2.5-6.4,0-8.6c-0.5-0.5-1.1-0.9-1.8-1.4l1.1-1.1
	c2.5-2.5,2.5-6.4,0-8.6c-0.5-0.5-1.4-0.9-1.8-1.4c1.8-2.5,1.6-5.9-0.5-8.2c-2.3-2.3-5.7-2.3-8.2-0.5c-0.5-0.7-0.7-1.4-1.4-1.8
	c-2.5-2.5-6.4-2.5-8.6,0l-6.1,5.7l-34.6-34.8c-0.2-0.2-0.2-0.2-0.5-0.2c0-1.4-0.2-2.7-0.5-4.3l10.5-10.5c0.9-0.9,0.7-2,0-2.7
	c-0.7-0.7-2-0.7-2.7,0l-9.1,9.1c-1.1-2.5-2.7-4.5-4.5-6.6l-6.4-6.1l-6.8-6.8l8.2-8c0.9-0.9,0.7-2,0-2.7c-0.7-0.7-2-0.7-2.7,0l-8,8
	l-0.9-0.7c-2.5-2.5-6.4-2.5-8.6,0c-0.5,0.5-0.9,1.1-1.4,1.8l-1.1-1.1c-2.5-2.5-6.4-2.5-8.6,0c-0.5,0.5-0.9,1.4-1.4,1.8
	c-2.5-1.8-5.9-1.6-8.2,0.5c-2.3,2.3-2.3,5.7-0.5,8.2c-0.7,0.5-1.4,0.7-1.8,1.4c-2.5,2.5-2.5,6.4,0,8.6l5.9,5.9L42.9,73.1
	c-0.2,0.2-0.2,0.2-0.2,0.5c-1.4,0-2.7,0.2-4.3,0.5L27.9,63.6c-0.9-0.9-2-0.7-2.7,0c-0.9,0.9-0.7,2,0,2.7l9.1,9.1
	c-2.5,1.1-4.5,2.7-6.6,4.5l-6.1,6.4l-6.8,6.8l-8-8.2c-0.9-0.9-2-0.7-2.7,0s-0.7,2,0,2.7l8,8l-0.7,0.9c-2.5,2.5-2.5,6.4,0,8.6
	c0.5,0.5,1.1,0.9,1.8,1.4l-1.1,1.1c-2.5,2.5-2.5,6.4,0,8.6c0.5,0.5,1.4,0.9,1.8,1.4c-1.8,2.5-1.6,5.9,0.5,8.2c2,2.3,5.7,2.3,8.2,0.5
	c0.5,0.7,0.7,1.4,1.4,1.8c2.5,2.5,6.4,2.5,8.6,0l5.9-5.9l34.6,34.6c0.2,0.2,0.2,0.2,0.5,0.2c0,1.4,0.2,2.7,0.5,4.3l-10.5,10.5
	c-0.9,0.9-0.7,2,0,2.7c0.7,0.7,2,0.7,2.7,0l9.1-9.1c1.1,2.5,2.7,4.5,4.5,6.6l6.1,6.1l6.8,6.8l-7.7,8.2c-0.9,0.9-0.7,2,0,2.7
	c0.9,0.9,2,0.7,2.7,0l8-8l0.7,0.7c2.5,2.5,6.4,2.5,8.6,0c0.5-0.5,0.9-1.1,1.4-1.8l1.1,1.1c2.5,2.5,6.4,2.5,8.6,0
	c0.5-0.5,0.9-1.4,1.4-1.8c2.5,1.8,5.9,1.6,8.2-0.5c2.3-2.3,2.3-5.7,0.5-8.2c0.7-0.5,1.4-0.7,1.8-1.4c2.5-2.5,2.5-6.4,0-8.6l-5.7-6.1
	l34.6-34.6c0.2-0.2,0.2-0.2,0.2-0.5c1.4,0,2.7-0.2,4.3-0.5L172.1,136.4z M170.3,74.7c0.9-0.9,2.3-0.9,3.2,0c0.9,0.9,0.9,2.3,0,3.2
	l-12.7,12.7c-0.9,0.9-0.7,2,0,2.7c0.9,0.9,2,0.7,2.7,0l12.7-12.7l3.4-3.4c0.9-0.9,2.3-0.9,3.2,0c0.9,0.9,0.9,2.3,0,3.2l-3.4,3.4
	l-12.7,12.7c-0.9,0.9-0.7,2,0,2.7c0.9,0.9,2,0.7,2.7,0l12.7-12.7c0.9-0.9,2.3-0.9,3.2,0c0.9,0.9,0.9,2.3,0,3.2l-13.9,13.9
	c-0.9,0.9-0.7,2,0,2.7c0.9,0.9,2,0.7,2.7,0l8.6-8.6c0.9-0.9,2.3-0.9,3.2,0c0.9,0.9,0.9,2.3,0,3.2l-1.6,1.4L169.6,117
	c-3.4,3.4-8.2,5.5-13.2,5.5c0,0,0,0-0.2,0c-1.4-2.5-3.9-6.1-8.4-10.5c-4.5-4.3-8.4-7.1-10.5-8.4c0,0,0,0,0-0.2c0.2-5,2-9.6,5.5-13.2
	L153.9,79c0.9-0.9,2.3-0.9,3.2,0c0.9,0.9,0.9,2.3,0,3.2l-7.7,7.7c-0.9,0.9-0.7,2,0,2.7c0.9,0.9,2,0.7,2.7,0L170.3,74.7z M112.7,140
	c-2-2-4.3-3.4-6.6-4.5l28.7-28.7c1.8,0.9,5.7,3.2,10.5,8c4.8,4.8,7.1,8.6,8,10.5L125,153c-0.2-0.5-0.7-1.4-1.4-1.8L112.7,140z
	 M97.5,133.4c-0.2-0.2-0.2-0.5-0.2-0.5l-31.2-31.2l0,0c0.2-1.4,0.5-2.7,0.5-4.3c0.2,0,0.5-0.2,0.5-0.2l31.2-31.2l0,0
	c1.4,0.2,2.7,0.5,4.3,0.5c0.2,0.2,0.2,0.5,0.2,0.5l31.2,31.2c-0.2,1.4-0.5,2.7-0.5,4.3c-0.2,0.2-0.5,0.2-0.5,0.2l-31.4,31.4
	C100.5,133.6,98.9,133.4,97.5,133.4z M75,46.7c0.2,0.5,0.7,1.4,1.4,1.8l1.6,1.6l9.8,9.8c2,2,4.3,3.4,6.6,4.5L65.2,93.4
	c-1.8-0.9-5.7-3.2-10.5-8C50,80.6,47.7,76.8,47,75L75,46.7L75,46.7z M153,75c-0.5,0.2-1.1,0.5-1.6,1.1l-1.6,1.6l-3.6,3.6l-6.1,6.1
	c-2,2-3.4,4.3-4.5,6.6l-28.9-28.9c0.9-1.8,3.2-5.7,8-10.5s8.6-7.1,10.5-8L153,75L153,75z M74.8,26.7c0.9-0.9,2.3-0.9,3.2,0
	l12.7,12.7c0.9,0.9,2,0.7,2.7,0c0.7-0.7,0.7-2,0-2.7L77.3,20.4c-0.9-0.9-0.9-2.3,0-3.2c0.9-0.9,2.3-0.9,3.2,0l3.4,3.4l12.7,12.7
	c0.9,0.9,2,0.7,2.7,0s0.7-2,0-2.7L86.6,17.9c-0.9-0.9-0.9-2.3,0-3.2c0.9-0.9,2.3-0.9,3.2,0l13.9,13.9c0.9,0.9,2,0.7,2.7,0
	c0.7-0.7,0.7-2,0-2.7l-8.6-8.6c-0.9-0.9-0.9-2.3,0-3.2c0.9-0.9,2.3-0.9,3.2,0l1.6,1.6l8.6,8.6l6.1,6.1c3.4,3.4,5.5,8.2,5.5,13.2
	c0,0,0.2,0.2,0,0.2c-2.5,1.4-6.1,3.9-10.5,8.4c-4.5,4.5-7.1,8.4-8.4,10.5c0,0,0,0-0.2,0c-5-0.2-9.6-2-13.2-5.5L79.3,46.1
	c-0.9-0.9-0.9-2.3,0-3.2c0.9-0.9,2.3-0.9,3.2,0l7.7,7.7c0.9,0.9,2,0.7,2.7,0c0.7-0.7,0.7-2,0-2.7l-18-18
	C73.8,28.8,74.1,27.4,74.8,26.7z M29.7,125.2c-0.9,0.9-2.3,0.9-3.2,0s-0.9-2.3,0-3.2l12.7-12.7c0.9-0.9,0.7-2,0-2.7
	c-0.7-0.7-2-0.7-2.7,0l-16.1,16.1c-0.9,0.9-2.3,0.9-3.2,0c-0.9-0.9-0.9-2.3,0-3.2l16.1-16.1c0.9-0.9,0.7-2,0-2.7
	c-0.9-0.9-2-0.7-2.7,0l-12.7,12.7c-0.9,0.9-2.3,0.9-3.2,0c-0.9-0.9-0.9-2.3,0-3.2l13.9-13.9c0.9-0.9,0.7-2,0-2.7
	c-0.9-0.9-2-0.7-2.7,0l-8.6,8.6c-0.9,0.9-2.3,0.9-3.2,0c-0.9-0.9-0.9-2.3,0-3.2l1.6-1.6l14.8-14.8c3.4-3.4,8.2-5.5,13.2-5.5
	c0,0,0.2-0.2,0.2,0c1.4,2.5,3.9,6.1,8.4,10.5c4.5,4.5,8.4,7.1,10.5,8.4v0.2c-0.2,5-2,9.6-5.5,13.2l-11.1,11.1
	c-0.9,0.9-2.3,0.9-3.2,0c-0.9-0.9-0.9-2.3,0-3.2l7.7-7.7c0.9-0.9,0.7-2,0-2.7c-0.7-0.7-2-0.7-2.7,0
	C47.7,107.3,29.7,125.2,29.7,125.2z M47,125c0.5-0.2,1.1-0.5,1.6-1.1l1.6-1.6l3.6-3.6l6.1-6.1c2-2,3.4-4.3,4.5-6.6l28.9,28.9
	c-0.9,1.8-3.2,5.7-8,10.5c-4.8,4.8-8.6,7.1-10.5,7.7L47,125L47,125z M125.2,173.2c-0.9,0.9-2.3,0.9-3.2,0l-12.7-12.7
	c-0.9-0.9-2-0.7-2.7,0c-0.7,0.7-0.7,2,0,2.7l16.1,16.4c0.9,0.9,0.9,2.3,0,3.2c-0.9,0.9-2.3,0.9-3.2,0l-16.1-16.1
	c-0.9-0.9-2-0.7-2.7,0c-0.7,0.7-0.7,2,0,2.7l12.7,12.7c0.9,0.9,0.9,2.3,0,3.2c-0.9,0.9-2.3,0.9-3.2,0l-13.9-13.9
	c-0.9-0.9-2-0.7-2.7,0s-0.7,2,0,2.7l8.6,8.6c0.9,0.9,0.9,2.3,0,3.2c-0.9,0.9-2.3,0.9-3.2,0l-16.4-16.4c-3.4-3.4-5.5-8.2-5.5-13.2
	c0,0,0,0,0-0.2c2.5-1.4,6.1-3.9,10.5-8.4s7.1-8.4,8.4-10.5c0,0,0,0,0.2,0c5,0.2,9.6,2,13.2,5.5l11.1,11.1c0.9,0.9,0.9,2.3,0,3.2
	s-2.3,0.9-3.2,0l-7.7-7.7c-0.9-0.9-2-0.7-2.7,0c-0.7,0.7-0.7,2,0,2.7l18,18C126.2,171.2,125.9,172.5,125.2,173.2z"/>
</svg>
