<?xml version="1.0" encoding="utf-8"?>
<!-- Generator: Adobe Illustrator 20.1.0, SVG Export Plug-In . SVG Version: 6.00 Build 0)  -->
<!DOCTYPE svg PUBLIC "-//W3C//DTD SVG 1.1//EN" "http://www.w3.org/Graphics/SVG/1.1/DTD/svg11.dtd">
<svg version="1.1" id="Layer_1" xmlns="http://www.w3.org/2000/svg" xmlns:xlink="http://www.w3.org/1999/xlink" x="0px" y="0px"
	 viewBox="0 0 145.7 145.7" style="enable-background:new 0 0 145.7 145.7;" xml:space="preserve">
<style type="text/css">
	.st0{fill:#556C11;}
</style>
<title>12-Project vision</title>
<path class="st0" d="M97.2,129.4c-7.4,0-13.6-5.3-14.8-12.5l-0.2-1h-0.1v-14.9l-2,1.5c-2.1,1.6-4.7,2.5-7.4,2.5
	c-2.7,0-5.3-0.9-7.4-2.5l-2-1.5v14.9h-0.1l-0.2,1c-1.2,7.2-7.5,12.5-14.8,12.5H24.1c-7.4,0-13.6-5.3-14.8-12.5l-0.2-1H9V87.2
	c0-6,4.3-11.1,10.1-12.1l0.9-0.2l4.4-37.6c0.4-3.3,2.5-6.2,5.5-7.6l0.7-0.3v-7.2c0-3.8,3.1-6.9,6.9-6.9h13.5c3.8,0,6.9,3.1,6.9,6.9
	v7.6l0.6,0.4c3,1.7,4.8,4.9,4.8,8.3v5.3l2-1.5c2.1-1.6,4.7-2.5,7.4-2.5c2.7,0,5.3,0.9,7.4,2.5l2,1.5v-5.3c0-3.4,1.9-6.6,4.8-8.3
	l0.6-0.4v-7.6c0-3.8,3.1-6.9,6.9-6.9h13.5c3.8,0,6.9,3.1,6.9,6.9v7.2l0.7,0.3c3,1.4,5.1,4.3,5.5,7.6l4.4,37.6l0.9,0.2
	c5.9,1.1,10.1,6.2,10.1,12.1v28.6h-0.1l-0.2,1c-1.2,7.2-7.5,12.5-14.8,12.5H97.2z M97.2,102.3c-6.6,0-12.1,5.4-12.1,12.1
	s5.4,12.1,12.1,12.1h24.4c6.6,0,12.1-5.4,12.1-12.1s-5.4-12.1-12.1-12.1H97.2z M24.1,102.3c-6.6,0-12.1,5.4-12.1,12.1
	s5.4,12.1,12.1,12.1h24.4c6.6,0,12.1-5.4,12.1-12.1s-5.4-12.1-12.1-12.1H24.1z M121.6,99.3c3.7,0,7.3,1.4,10,3.9l2,1.8V87.2
	c0-5.2-4.2-9.3-9.3-9.3H93v-3h29.6l-4.4-37.2c-0.4-3.3-3.2-5.9-6.6-5.9H91.8c-3.7,0-6.6,3-6.6,6.6v5.3l2-1.5
	c2.1-1.6,4.7-2.5,7.4-2.5h6.9v3h-6.9c-5.2,0-9.3,4.2-9.3,9.3v37.8l2-1.5c2.1-1.6,4.7-2.5,7.4-2.5h17.7v3H94.5
	c-5.2,0-9.3,4.2-9.3,9.3v6.9l2-1.8c2.8-2.5,6.3-3.9,10-3.9l0,0H121.6z M21.4,77.9c-5.2,0-9.3,4.2-9.3,9.3V105l2-1.8
	c2.8-2.5,6.3-3.9,10-3.9h24.4c3.7,0,7.3,1.4,10,3.9l2,1.8v-6.9c0-5.2-4.2-9.3-9.3-9.3H33.4v-3h17.7c2.7,0,5.3,0.9,7.4,2.5l2,1.5V52
	c0-5.2-4.2-9.3-9.3-9.3h-6.9v-3h6.9c2.7,0,5.3,0.9,7.4,2.5l2,1.5v-5.3c0-3.7-3-6.6-6.6-6.6H34c-3.4,0-6.2,2.5-6.6,5.9L23,74.9h29.6
	v3H21.4z M72.8,83.3c-5.2,0-9.3,4.2-9.3,9.3s4.2,9.3,9.3,9.3c5.2,0,9.3-4.2,9.3-9.3S78,83.3,72.8,83.3z M72.8,80.3
	c2.7,0,5.3,0.9,7.4,2.5l2,1.5V52c0-3.9-2.5-7.5-6.2-8.8l-1.6-0.6v29.8h-3V42.7l-1.6,0.6c-3.7,1.3-6.2,4.8-6.2,8.8v32.4l2-1.5
	C67.6,81.2,70.2,80.3,72.8,80.3z M94.5,18.3c-2.2,0-3.9,1.8-3.9,3.9v6.6H112v-6.6c0-2.2-1.8-3.9-3.9-3.9H94.5z M37.6,18.3
	c-2.2,0-3.9,1.8-3.9,3.9v6.6h21.4v-6.6c0-2.2-1.8-3.9-3.9-3.9H37.6z"/>
<path class="st0" d="M30.7,118.5v-3h15c1.7,0,3.2-1.1,3.7-2.7h3.1c-0.6,3.2-3.4,5.7-6.8,5.7H30.7z"/>
<path class="st0" d="M103.9,118.5v-3h15c1.7,0,3.2-1.1,3.7-2.7h3.1c-0.6,3.2-3.4,5.7-6.8,5.7H103.9z"/>
</svg>
