<?xml version="1.0" encoding="utf-8"?>
<!-- Generator: Adobe Illustrator 20.1.0, SVG Export Plug-In . SVG Version: 6.00 Build 0)  -->
<!DOCTYPE svg PUBLIC "-//W3C//DTD SVG 1.1//EN" "http://www.w3.org/Graphics/SVG/1.1/DTD/svg11.dtd">
<svg version="1.1" id="extreme-ownership" xmlns="http://www.w3.org/2000/svg" xmlns:xlink="http://www.w3.org/1999/xlink" x="0px"
	 y="0px" viewBox="0 0 200.2 200.2" style="enable-background:new 0 0 200.2 200.2;" xml:space="preserve">
<style type="text/css">
	.st0{fill:#556C11;}
</style>
<g>
	<g>
		<path class="st0" d="M185,96.5h-10.8c-0.4-7.5-1.8-14.8-4.3-21.6l10-4.1c1.8-0.7,2.7-2.8,1.9-4.6s-2.8-2.7-4.6-1.9l-10,4.1
			c-3.2-6.7-7.3-12.8-12.2-18.3l7.7-7.7c1.4-1.4,1.4-3.6,0-5s-3.6-1.4-5,0l-7.7,7.7c-5.4-4.9-11.6-9.1-18.3-12.2l4.1-10
			c0.7-1.8-0.1-3.9-1.9-4.6c-1.8-0.7-3.9,0.1-4.6,1.9l-4.1,10c-6.8-2.4-14-3.9-21.6-4.3V15.1c0-2-1.6-3.5-3.5-3.5
			c-2,0-3.5,1.6-3.5,3.5v10.8C89,26.3,81.8,27.8,75,30.2l-4.1-10c-0.7-1.8-2.8-2.7-4.6-1.9c-1.8,0.7-2.7,2.8-1.9,4.6l4.1,10
			c-6.7,3.2-12.8,7.3-18.3,12.2l-7.7-7.7c-1.4-1.4-3.6-1.4-5,0s-1.4,3.6,0,5l7.7,7.7c-4.9,5.4-9.1,11.6-12.2,18.3l-10-4.1
			c-1.8-0.7-3.9,0.1-4.6,1.9s0.1,3.9,1.9,4.6l10,4.1c-2.4,6.8-3.9,14-4.3,21.6H15.1c-2,0-3.5,1.6-3.5,3.5c0,2,1.6,3.5,3.5,3.5h10.8
			c0.4,7.5,1.8,14.8,4.3,21.6l-10,4.1c-1.8,0.7-2.7,2.8-1.9,4.6c0.6,1.4,1.9,2.2,3.3,2.2c0.4,0,0.9-0.1,1.4-0.3l10-4.1
			c3.2,6.7,7.3,12.8,12.2,18.3l-7.7,7.7c-1.4,1.4-1.4,3.6,0,5c0.7,0.7,1.6,1,2.5,1s1.8-0.3,2.5-1l7.7-7.7
			c5.4,4.9,11.6,9.1,18.3,12.2l-4.1,10c-0.7,1.8,0.1,3.9,1.9,4.6c0.4,0.2,0.9,0.3,1.4,0.3c1.4,0,2.7-0.8,3.3-2.2l4.1-10
			c6.8,2.4,14,3.9,21.6,4.3V185c0,2,1.6,3.5,3.5,3.5s3.5-1.6,3.5-3.5v-10.8c7.5-0.4,14.8-1.8,21.6-4.3l4.1,10
			c0.6,1.4,1.9,2.2,3.3,2.2c0.5,0,0.9-0.1,1.4-0.3c1.8-0.7,2.7-2.8,1.9-4.6l-4.1-10c6.7-3.2,12.8-7.3,18.3-12.2l7.7,7.7
			c0.7,0.7,1.6,1,2.5,1s1.8-0.3,2.5-1c1.4-1.4,1.4-3.6,0-5L155,150c4.9-5.4,9.1-11.6,12.2-18.3l10,4.1c0.4,0.2,0.9,0.3,1.4,0.3
			c1.4,0,2.7-0.8,3.3-2.2c0.7-1.8-0.1-3.9-1.9-4.6l-10-4.1c2.4-6.8,3.9-14,4.3-21.6H185c2,0,3.5-1.6,3.5-3.5S187,96.5,185,96.5z
			 M100.1,167.3c-37.1,0-67.3-30.2-67.3-67.3S63,32.8,100.1,32.8s67.3,30.2,67.3,67.3S137.2,167.3,100.1,167.3z"/>
		<path class="st0" d="M100.1,89.5c9.8,0,17.7-7.9,17.7-17.7s-7.9-17.7-17.7-17.7S82.4,62,82.4,71.8S90.3,89.5,100.1,89.5z
			 M100.1,61.1c5.9,0,10.6,4.8,10.6,10.6s-4.8,10.6-10.6,10.6s-10.6-4.8-10.6-10.6S94.2,61.1,100.1,61.1z"/>
		<path class="st0" d="M114.2,96.5H85.9c-9.8,0-17.7,7.9-17.7,17.7v21.2c0,2,1.6,3.5,3.5,3.5s3.5-1.6,3.5-3.5v-21.2
			c0-5.9,4.8-10.6,10.6-10.6h28.3c5.9,0,10.6,4.8,10.6,10.6v21.2c0,2,1.6,3.5,3.5,3.5c2,0,3.5-1.6,3.5-3.5v-21.2
			C131.9,104.5,124,96.5,114.2,96.5z"/>
	</g>
</g>
</svg>
