<?xml version="1.0" encoding="utf-8"?>
<!-- Generator: Adobe Illustrator 20.1.0, SVG Export Plug-In . SVG Version: 6.00 Build 0)  -->
<!DOCTYPE svg PUBLIC "-//W3C//DTD SVG 1.1//EN" "http://www.w3.org/Graphics/SVG/1.1/DTD/svg11.dtd">
<svg version="1.1" id="Layer_1" xmlns="http://www.w3.org/2000/svg" xmlns:xlink="http://www.w3.org/1999/xlink" x="0px" y="0px"
	 viewBox="0 0 49 49" style="enable-background:new 0 0 49 49;" xml:space="preserve">
<style type="text/css">
	.st0{fill:#FFFFFF;}
</style>
<path class="st0" d="M47.9,42.4L34.7,29.7c-1.4,2.1-3.2,3.9-5.3,5.3l13.1,12.7C44.6,49.7,49.9,44.4,47.9,42.4z"/>
<path class="st0" d="M32.5,27.5c1.7-2.7,2.8-5.9,2.8-9.4c0-9.6-7.8-17.5-17.5-17.5S0.4,8.5,0.4,18.1c0,9.6,7.8,17.5,17.5,17.5
	c3.5,0,6.7-1,9.4-2.8l0.1,0.1C29.4,31.5,31.2,29.7,32.5,27.5L32.5,27.5z M17.8,30.6C11,30.6,5.4,25,5.4,18.1
	c0-6.9,5.6-12.5,12.5-12.5c6.9,0,12.5,5.6,12.5,12.5C30.3,25,24.7,30.6,17.8,30.6z"/>
<path class="st0" d="M15.6,8.6c0,0-0.1,0.1-0.2,0.3c-0.2,0.2-0.4,0.4-0.7,0.7c-0.5,0.6-1.3,1.2-2,1.9c-0.7,0.7-1.5,1.4-2,1.9
	c-0.6,0.5-1.1,0.9-1.1,0.9s0-0.6,0.2-1.4c0.2-0.8,0.8-1.8,1.6-2.6c0.8-0.8,1.8-1.3,2.7-1.5C15.1,8.5,15.6,8.6,15.6,8.6z"/>
</svg>
