<?xml version="1.0" encoding="utf-8"?>
<!-- Generator: Adobe Illustrator 20.1.0, SVG Export Plug-In . SVG Version: 6.00 Build 0)  -->
<!DOCTYPE svg PUBLIC "-//W3C//DTD SVG 1.1//EN" "http://www.w3.org/Graphics/SVG/1.1/DTD/svg11.dtd">
<svg version="1.1" id="Layer_1" xmlns="http://www.w3.org/2000/svg" xmlns:xlink="http://www.w3.org/1999/xlink" x="0px" y="0px"
	 viewBox="0 0 512 512" style="enable-background:new 0 0 512 512;" xml:space="preserve">
<style type="text/css">
	.st0{fill:#FFDA44;}
</style>
<g>
	<path class="st0" d="M99.7,117.9c-3.9,0-6.6,0-9.4,0c-9.9-0.1-16.6-6.4-16.5-15.5c0-8.9,6.6-15.2,16.2-15.3c8.7-0.1,17.3-0.2,26,0
		c3,0.1,4.8-1,6.4-3.5c9.4-14.5,19.1-28.9,28.6-43.4c10.7-16.3,25.7-24.8,45.2-24.8c41.2-0.1,82.3-0.1,123.5,0
		c19.5,0,34.6,8.4,45.2,24.7c9.1,13.9,18.5,27.7,27.4,41.8c2.4,3.8,4.9,5.5,9.6,5.3c7.8-0.4,15.7-0.2,23.5-0.1
		c10.3,0.1,16.9,6.4,16.8,15.7c-0.1,9-6.9,15-17,15.1c-2.6,0-5.3,0-8.6,0c1.5,2.6,2.4,4.7,3.7,6.4c11,13.9,13,29.6,10.6,46.7
		c-4.4,30.5-7.9,61.1-11.8,91.6c-1.5,11.7-9.4,18.9-21.2,19.1c-12.3,0.2-24.7,0.2-37,0c-12.4-0.3-20.7-9-20.9-21.5
		c0-2.8,0-5.7,0-8.9c-54.6,0-108.9,0-163.9,0c0,3.1,0,6.2,0,9.3c-0.2,11.9-8.4,20.7-20.3,21c-12.8,0.4-25.7,0.3-38.5,0
		c-11.2-0.3-19-7.8-20.3-18.9c-4.2-33.4-8.3-66.8-12.6-100.1c-1.6-12.4,1.6-23.4,8.2-33.7C94.7,125.7,96.9,122.4,99.7,117.9z
		 M350.4,138.1c18.2,0,36.2,0,54.6,0c-3.9-5.9-7.6-10.9-10.7-16.2c-1.9-3.1-4.1-4.1-7.6-4.1c-40.7,0.1-81.3,0.1-122,0.1
		c-45.2,0-90.3,0-135.5,0c-1.7,0-4.3,0-5,1c-4.5,6-8.5,12.4-13.3,19.5c19,0,36.9,0,54.8,0c0,10.5,0,20.4,0,30.6c-20,0-39.6,0-59.8,0
		c2.6,20.5,5,40.6,7.6,60.9c96.6,0,193,0,289.4,0c2.5-20.5,5-40.6,7.5-61.3c-20.5,0-40.2,0-59.9,0
		C350.4,158.4,350.4,148.7,350.4,138.1z M377.6,97.1c-1.2-1.9-1.8-3.1-2.5-4.1c-9.3-14-18.7-28-27.9-42c-6.7-10.2-15.9-15-28.1-15
		c-40.7,0.1-81.3,0.1-122,0c-12.2,0-21.5,4.9-28.1,15c-9.3,14.2-18.8,28.3-28.2,42.5c-0.7,1-1.2,2.2-2,3.7
		C218.4,97.1,297.5,97.1,377.6,97.1z M155.4,251.4c-13.2,0-26.2,0-39.5,0c0.5,3.5,0.9,6.5,1.3,9.3c13,0,25.5,0,38.1,0
		C155.4,257.4,155.4,254.4,155.4,251.4z M360.6,260.8c13.1,0,25.6,0,38.3,0c0.4-3.4,0.7-6.4,1.1-9.5c-13.4,0-26.3,0-39.3,0
		C360.6,254.6,360.6,257.5,360.6,260.8z"/>
	<path class="st0" d="M419.4,486.5c-15.8,0-31.5,0-47.3,0c-1.1,0-2.3-0.5-3.3-1.1c-11-6.7-21.3-14.3-29.5-24.4
		c-12.5-15.4-13.4-30.6-0.6-45.8c8.4-10,18.7-18.4,28.5-27.1c7.9-7.1,16.7-13.2,24.5-20.5c11.5-10.9,12.5-20.7,4.5-34.5
		c-7-12-17.7-20.2-29.3-27.3c-1.5-0.9-3-1.9-5.9-3.6c14.2,0,26.9,0,39.6,0c0.6,0,1.3,0.4,1.8,0.8c13.5,9.8,24.5,21.6,28.6,38.4
		c2.5,10.2,0.7,19.8-4.6,28.8c-6.2,10.7-15,19.1-24.5,26.8c-9.8,8-19.8,15.8-29.6,23.7c-2.2,1.8-4.2,3.8-6.1,5.9
		c-7.6,8.4-7.7,14.2-0.1,22.8c9.2,10.4,20.9,17.5,32.6,24.5c6.8,4.1,13.9,7.8,20.8,11.6C419.5,485.9,419.4,486.2,419.4,486.5z"/>
	<path class="st0" d="M117.1,302.1c12.1,0,24.3,0,36.4,0c1.1,0,2.4,0.3,3.3,0.9c13.1,9.5,23.8,20.9,28.1,37
		c3.2,12,0.6,23.1-6.2,33.3c-7.8,11.7-18.4,20.5-29.3,29.2c-8.2,6.5-16.7,12.8-24.5,19.7c-13.7,12.1-13.7,19.6,0,32
		c12.8,11.6,27.8,20.1,42.9,28.1c2,1.1,4,2.2,7.3,3.9c-3,0.2-4.5,0.3-6.1,0.3c-13.3,0-26.7,0.1-40-0.1c-2.5,0-5.5-0.6-7.4-2.1
		c-9.4-7.4-19.4-14.3-27.4-23c-13.7-14.8-14.1-30.3-1.4-46c7.5-9.2,16.8-17,25.7-25c8.3-7.4,17.6-13.8,25.8-21.3
		c13.9-12.8,14.8-23.5,4.2-39.2c-6.9-10.1-16.4-17.4-26.7-23.8c-1.7-1-3.4-2-5-3C116.9,302.8,117,302.5,117.1,302.1z"/>
</g>
</svg>
