<?xml version="1.0" encoding="utf-8"?>
<!-- Generator: Adobe Illustrator 20.1.0, SVG Export Plug-In . SVG Version: 6.00 Build 0)  -->
<!DOCTYPE svg PUBLIC "-//W3C//DTD SVG 1.1//EN" "http://www.w3.org/Graphics/SVG/1.1/DTD/svg11.dtd">
<svg version="1.1" id="Icons" xmlns="http://www.w3.org/2000/svg" xmlns:xlink="http://www.w3.org/1999/xlink" x="0px" y="0px"
	 viewBox="0 0 35 35" style="enable-background:new 0 0 35 35;" xml:space="preserve">
<style type="text/css">
	.st0{fill:#FFFFFF;}
</style>
<g>
	<path class="st0" d="M26.1,13.3c-3.3,0-5.9,2.6-5.9,5.9c0,1.7,0.8,3.3,2,4.4V33l3.9-3.9l3.9,3.9v-9.4c1.2-1.1,2-2.6,2-4.4
		C32,16,29.4,13.3,26.1,13.3z M26.1,23.2c-2.2,0-3.9-1.8-3.9-3.9c0-2.2,1.8-3.9,3.9-3.9c2.2,0,3.9,1.8,3.9,3.9
		C30.1,21.4,28.3,23.2,26.1,23.2z"/>
	<polygon class="st0" points="15.7,29.1 6.4,29.1 6.4,5.4 17.4,5.4 23.3,11.3 28.1,11.3 28.1,10.5 19.1,1.5 2.5,1.5 2.5,33 19.4,33 
		15.7,29.1 	"/>
	<rect x="8.4" y="11.3" class="st0" width="9.8" height="2"/>
	<rect x="8.4" y="15.3" class="st0" width="9.8" height="2"/>
	<rect x="8.4" y="19.2" class="st0" width="9.8" height="2"/>
</g>
</svg>
