<?xml version="1.0" encoding="utf-8"?>
<!-- Generator: Adobe Illustrator 20.1.0, SVG Export Plug-In . SVG Version: 6.00 Build 0)  -->
<!DOCTYPE svg PUBLIC "-//W3C//DTD SVG 1.1//EN" "http://www.w3.org/Graphics/SVG/1.1/DTD/svg11.dtd">
<svg version="1.1" id="Layer_1" xmlns="http://www.w3.org/2000/svg" xmlns:xlink="http://www.w3.org/1999/xlink" x="0px" y="0px"
	 viewBox="0 0 200 95" style="enable-background:new 0 0 200 95;" xml:space="preserve">
<g>
	<path d="M161.4,6.9l31.1,59.4v21.7H7.5V66.4L39.2,6.9H161.4z M53.1,17.5c0-0.6,0-1.1,0-1.1c0.6,0,0.6,0,1.1,0
		C53.6,16.4,53.6,16.9,53.1,17.5z M51.9,23.1c-0.6,0-1.1,0-1.1,0c0.6-1.1,0.6-1.7,1.1-2.2C51.9,21.4,51.9,21.9,51.9,23.1z
		 M51.4,18.1c0-0.6-0.6-1.1-1.1-1.1c0-0.6,0.6-0.6,0.6-0.6C51.4,16.9,51.4,17.5,51.4,18.1z M50.3,18.6c-0.6,0-1.7-0.6-2.2-0.6
		c0,0,0,0,0.6-0.6C49.2,18.1,49.7,18.1,50.3,18.6z M50.3,19.7c-1.1,0-2.2,0.6-3.3,0.6c0,0,0,0,0-0.6C48.1,19.7,49.2,19.7,50.3,19.7z
		 M50.8,20.3c-0.6,0.6-1.1,1.7-2.2,2.2c0,0-0.6,0-0.6-0.6C49.2,21.4,49.7,20.8,50.8,20.3z M53.6,20.3c0.6,0.6,1.1,1.1,2.2,1.7
		c-0.6,0-0.6,0.6-1.1,0.6C54.2,21.4,54.2,20.8,53.6,20.3z M54.7,19.7c1.1,0,2.2,0,3.3,0c-0.6,0.6-0.6,0.6-0.6,0.6
		C56.4,20.3,55.8,19.7,54.7,19.7z M54.7,18.6c1.1-0.6,2.2-0.6,2.8-1.1c0,0.6,0.6,0.6,0.6,0.6C56.9,18.1,55.8,18.6,54.7,18.6z
		 M54.2,17.5c0.6,0,0.6-0.6,1.1-1.1c0.6,0,0.6,0,0.6,0C55.3,16.9,54.7,17.5,54.2,17.5z M46.9,43.6c0-1.7,0-2.8,0.6-3.9
		c0.6,0,1.1,0,1.7,0C48.6,40.8,47.5,41.9,46.9,43.6z M43.1,56.9c-0.6,0-1.7,0-2.8,0c1.7-2.2,2.8-4.4,3.9-6.1
		C43.6,52.5,43.6,54.7,43.1,56.9z M44.2,44.2c-1.1-1.1-2.2-2.2-2.8-2.8c0.6-0.6,1.1-0.6,1.7-0.6C43.1,41.9,43.6,43.1,44.2,44.2z
		 M41.4,45.3c-1.7,0-3.9-0.6-5.6-0.6c0.6-0.6,1.1-0.6,1.7-1.1C38.6,44.2,39.7,44.7,41.4,45.3z M40.3,48.1c-2.2,0.6-5,1.7-7.2,2.2
		c0-0.6,0-0.6,0-1.1C35.3,48.6,38.1,48.1,40.3,48.1z M41.4,50.3c-1.7,1.7-3.3,3.3-5,5.6c-0.6-0.6-1.1-0.6-1.7-1.1
		C36.9,53.1,39.2,51.4,41.4,50.3z M47.5,49.7c1.1,1.7,2.8,2.8,4.4,4.4c-1.1,0.6-1.7,1.1-2.8,1.1C48.6,53.6,48.1,51.4,47.5,49.7z
		 M50.3,48.1c1.7,0.6,3.9,0.6,6.1,1.1c0,0.6-0.6,1.1-0.6,1.7C53.6,49.7,51.9,48.6,50.3,48.1z M50.8,45.3c1.7-0.6,3.9-1.1,5.6-1.7
		c0,0.6,0.6,0.6,0.6,1.1C54.7,45.3,53.1,45.3,50.8,45.3z M49.2,43.6c1.1-1.1,1.7-2.2,2.8-3.3c0.6,0.6,1.1,0.6,1.7,0.6
		C51.9,41.9,50.8,43.1,49.2,43.6z M99.7,23.1c-0.6-2.8-1.1-4.4-1.7-6.7c1.1,0,2.2,0,3.9,0C100.8,18.1,100.3,20.3,99.7,23.1z
		 M102.5,51.4c-1.7,0-3.9,0-6.1,0c0.6-2.8,1.1-5,1.7-7.2c0.6-2.2,1.1-4.4,1.7-6.1c0.6,1.7,1.1,3.9,1.1,6.1
		C101.4,46.4,101.9,48.6,102.5,51.4z M94.2,24.2c-3.3-1.7-5.6-3.9-8.3-5c1.1-0.6,2.2-1.1,3.3-1.7C90.8,19.7,92.5,21.9,94.2,24.2z
		 M89.7,26.9c-2.2,0-4.4-0.6-6.7-0.6c-2.2-0.6-3.9-0.6-6.1-0.6c0.6-1.1,1.7-1.7,2.2-2.8C82.5,24.2,85.8,25.8,89.7,26.9z M88.6,31.9
		c-2.2,1.1-4.4,1.7-6.7,2.8c-2.8,1.1-5,1.7-7.8,2.8c0-1.1,0-2.2-0.6-3.3c2.8-0.6,5.6-0.6,7.8-1.1C83.6,32.5,86.4,32.5,88.6,31.9z
		 M93.6,36.4c-1.1,2.2-2.2,3.9-3.3,6.1c-1.7,1.7-2.8,3.9-3.9,6.1c-1.7-0.6-3.3-1.7-5-2.2c2.2-1.7,4.4-3.3,6.7-5
		C89.7,39.7,91.9,38.1,93.6,36.4z M106.4,36.4c4.4,2.8,8.3,5.6,13.3,8.9c-1.7,0.6-2.8,1.7-4.4,2.8c-1.7-2.2-2.8-4.4-4.4-6.1
		C109.2,39.7,108.1,38.1,106.4,36.4z M110.3,32.5c2.8,0,5,0.6,7.8,0.6c2.2,0.6,5,0.6,7.8,1.1c-0.6,1.1-0.6,2.2-0.6,3.3
		c-2.8-1.1-5-1.7-7.8-2.8C115.3,34.2,113.1,33.1,110.3,32.5z M109.7,26.9c3.9-1.1,7.2-2.2,10.6-3.9c1.1,1.1,1.7,1.7,2.2,2.8
		c-1.7,0-3.9,0.6-6.1,0.6C114.2,26.9,111.9,26.9,109.7,26.9z M104.7,23.6c1.7-2.2,2.8-4.4,3.9-6.1c1.1,0,2.2,0.6,3.3,0.6
		C109.7,20.3,107.5,21.9,104.7,23.6z M146.9,17.5c-0.6-0.6-0.6-1.1-1.1-1.7c0.6,0,0.6,0,1.1,0C146.9,16.4,146.9,16.9,146.9,17.5z
		 M149.2,23.1c-0.6,0-1.1,0-1.7,0c0-1.1,0-1.7,0-2.8C148.1,21.4,148.6,21.9,149.2,23.1z M145.3,17.5c-0.6,0-1.1-0.6-1.7-1.1
		c0,0,0,0,0.6,0C144.7,16.9,145.3,16.9,145.3,17.5z M144.7,18.1c-1.1,0-1.7,0-2.8,0v-0.6C143.1,17.5,143.6,18.1,144.7,18.1z
		 M144.7,19.2c-0.6,0.6-1.7,0.6-2.2,1.1c-0.6,0-0.6-0.6-0.6-0.6C143.1,19.7,144.2,19.2,144.7,19.2z M146.4,20.3
		c-0.6,0.6-0.6,1.1-1.1,2.2c0,0-0.6-0.6-1.1-0.6C145.3,21.4,145.8,20.8,146.4,20.3z M149.2,20.3c1.1,0.6,1.7,1.1,2.8,1.7
		c0,0-0.6,0-0.6,0.6C150.8,21.4,149.7,20.8,149.2,20.3z M149.7,19.2c1.1,0.6,2.2,0.6,3.3,0.6v0.6C151.9,20.3,150.8,19.7,149.7,19.2z
		 M149.2,18.1c0.6,0,1.7-0.6,2.2-0.6l0.6,0.6C151.4,18.1,150.3,18.1,149.2,18.1z M148.1,17.5c0-0.6,0-1.1,0.6-1.1h0.6
		C148.6,16.9,148.6,16.9,148.1,17.5z M155.3,40.3c-0.6-1.1-1.1-2.2-2.2-3.3c0.6,0,1.1,0,2.2,0C155.3,38.1,155.3,39.2,155.3,40.3z
		 M161.9,54.2c-1.1,0-1.7,0-2.8,0c-0.6-2.2-0.6-4.4-1.1-6.1C159.2,49.7,160.8,51.9,161.9,54.2z M153.1,41.4c-1.7-1.1-3.3-2.2-5-2.8
		c0.6-0.6,1.1-0.6,1.7-0.6C150.3,38.6,151.9,39.7,153.1,41.4z M151.4,42.5c-2.2,0-3.9-0.6-6.1-0.6c0-0.6,0-1.1,0.6-1.1
		C147.5,41.4,149.7,41.9,151.4,42.5z M151.9,45.3c-1.7,0.6-3.3,1.7-5.6,2.8c0-1.1-0.6-1.1-1.1-1.7C147.5,45.8,149.7,45.3,151.9,45.3
		z M155.3,47.5c-0.6,1.7-0.6,3.3-1.1,5.6c-1.1,0-1.7-0.6-2.8-1.1C153.1,50.3,154.2,48.6,155.3,47.5z M160.8,46.9
		c2.8,1.7,5,2.8,7.8,4.4c-0.6,0.6-1.1,1.1-1.7,1.1C164.7,50.8,163.1,49.2,160.8,46.9z M161.9,45.3c2.8,0.6,5,0.6,7.8,1.1
		c0,0.6,0,1.1,0,1.7C166.9,46.9,164.7,45.8,161.9,45.3z M160.8,42.5c1.7-0.6,2.8-1.1,4.4-1.7c0.6,0.6,1.1,0.6,1.7,1.1
		C164.7,41.9,163.1,42.5,160.8,42.5z M158.1,40.8c0-1.1,0-2.2,0.6-3.3c0.6,0.6,1.1,0.6,1.7,0.6C159.7,39.2,158.6,39.7,158.1,40.8z
		 M188.1,71.4H11.9v12.2h176.1V71.4z M158.6,11.9H41.9L14.2,64.7h172.2L158.6,11.9z"/>
</g>
</svg>
