<svg xmlns="http://www.w3.org/2000/svg" xmlns:xlink="http://www.w3.org/1999/xlink" version="1.1" x="0px" y="0px" viewBox="0 0 100 100" enable-background="new 0 0 100 100" xml:space="preserve"><path d="M92.199,36.639H70.562V14.453c0-0.828-0.672-1.5-1.5-1.5H30.938c-0.829,0-1.5,0.672-1.5,1.5v22.186H7.802  c-0.829,0-1.5,0.672-1.5,1.5v47.408c0,0.83,0.671,1.5,1.5,1.5h84.397c0.829,0,1.5-0.67,1.5-1.5V38.139  C93.699,37.311,93.028,36.639,92.199,36.639z M29.438,84.047H9.302V39.639h20.137V84.047z M48.5,84.047h-5.539V72.846H48.5V84.047z   M57.042,84.047H51.5V72.846h5.542V84.047z M67.562,84.047h-7.52V71.346c0-0.828-0.672-1.5-1.5-1.5H41.461  c-0.829,0-1.5,0.672-1.5,1.5v12.701h-7.522V15.953h35.123V84.047z M90.699,84.047H70.562V39.639h20.138V84.047z M40.917,34.537  h4.557v4.559c0,0.828,0.671,1.5,1.5,1.5h6.054c0.829,0,1.5-0.672,1.5-1.5v-4.559h4.556c0.828,0,1.5-0.67,1.5-1.5v-6.052  c0-0.829-0.672-1.5-1.5-1.5h-4.556V20.93c0-0.828-0.671-1.5-1.5-1.5h-6.054c-0.829,0-1.5,0.672-1.5,1.5v4.556h-4.557  c-0.828,0-1.5,0.671-1.5,1.5v6.052C39.417,33.867,40.089,34.537,40.917,34.537z M42.417,28.485h4.557c0.828,0,1.5-0.671,1.5-1.5  V22.43h3.054v4.556c0,0.829,0.671,1.5,1.5,1.5h4.556v3.052h-4.556c-0.829,0-1.5,0.672-1.5,1.5v4.559h-3.054v-4.559  c0-0.828-0.672-1.5-1.5-1.5h-4.557V28.485z M37.845,54.351h8.104c0.829,0,1.5-0.671,1.5-1.5v-5.005c0-0.828-0.671-1.5-1.5-1.5  h-8.104c-0.828,0-1.5,0.672-1.5,1.5v5.005C36.345,53.68,37.017,54.351,37.845,54.351z M39.345,49.346h5.104v2.005h-5.104V49.346z   M15.317,54.351h8.104c0.829,0,1.5-0.671,1.5-1.5v-5.005c0-0.828-0.671-1.5-1.5-1.5h-8.104c-0.828,0-1.5,0.672-1.5,1.5v5.005  C13.817,53.68,14.489,54.351,15.317,54.351z M16.817,49.346h5.104v2.005h-5.104V49.346z M15.317,66.064h8.104  c0.829,0,1.5-0.67,1.5-1.5v-5.004c0-0.828-0.671-1.5-1.5-1.5h-8.104c-0.828,0-1.5,0.672-1.5,1.5v5.004  C13.817,65.395,14.489,66.064,15.317,66.064z M16.817,61.061h5.104v2.004h-5.104V61.061z M15.317,77.779h8.104  c0.829,0,1.5-0.67,1.5-1.5v-5.004c0-0.828-0.671-1.5-1.5-1.5h-8.104c-0.828,0-1.5,0.672-1.5,1.5v5.004  C13.817,77.109,14.489,77.779,15.317,77.779z M16.817,72.775h5.104v2.004h-5.104V72.775z M76.578,54.351h8.104  c0.828,0,1.5-0.671,1.5-1.5v-5.005c0-0.828-0.672-1.5-1.5-1.5h-8.104c-0.829,0-1.5,0.672-1.5,1.5v5.005  C75.078,53.68,75.749,54.351,76.578,54.351z M78.078,49.346h5.104v2.005h-5.104V49.346z M76.578,66.064h8.104  c0.828,0,1.5-0.67,1.5-1.5v-5.004c0-0.828-0.672-1.5-1.5-1.5h-8.104c-0.829,0-1.5,0.672-1.5,1.5v5.004  C75.078,65.395,75.749,66.064,76.578,66.064z M78.078,61.061h5.104v2.004h-5.104V61.061z M76.578,77.779h8.104  c0.828,0,1.5-0.67,1.5-1.5v-5.004c0-0.828-0.672-1.5-1.5-1.5h-8.104c-0.829,0-1.5,0.672-1.5,1.5v5.004  C75.078,77.109,75.749,77.779,76.578,77.779z M78.078,72.775h5.104v2.004h-5.104V72.775z M52.551,47.846v5.005  c0,0.829,0.671,1.5,1.5,1.5h8.104c0.828,0,1.5-0.671,1.5-1.5v-5.005c0-0.828-0.672-1.5-1.5-1.5h-8.104  C53.222,46.346,52.551,47.018,52.551,47.846z M55.551,49.346h5.104v2.005h-5.104V49.346z M37.845,66.066h8.104  c0.829,0,1.5-0.672,1.5-1.5v-5.006c0-0.828-0.671-1.5-1.5-1.5h-8.104c-0.828,0-1.5,0.672-1.5,1.5v5.006  C36.345,65.395,37.017,66.066,37.845,66.066z M39.345,61.061h5.104v2.006h-5.104V61.061z M62.155,58.061h-8.104  c-0.829,0-1.5,0.672-1.5,1.5v5.006c0,0.828,0.671,1.5,1.5,1.5h8.104c0.828,0,1.5-0.672,1.5-1.5v-5.006  C63.655,58.732,62.983,58.061,62.155,58.061z M60.655,63.066h-5.104v-2.006h5.104V63.066z"></path></svg>