<?xml version="1.0" encoding="utf-8"?>
<!-- Generator: Adobe Illustrator 20.1.0, SVG Export Plug-In . SVG Version: 6.00 Build 0)  -->
<!DOCTYPE svg PUBLIC "-//W3C//DTD SVG 1.1//EN" "http://www.w3.org/Graphics/SVG/1.1/DTD/svg11.dtd">
<svg version="1.1" id="hospitality" xmlns="http://www.w3.org/2000/svg" xmlns:xlink="http://www.w3.org/1999/xlink" x="0px"
	 y="0px" viewBox="0 0 100 100" style="enable-background:new 0 0 100 100;" xml:space="preserve">
<style type="text/css">
	.st0{fill:#000000;}
</style>
<path class="st0" d="M30.1,93.7c-0.3,0-0.5-0.1-0.6-0.3c-0.3-0.4-0.3-1,0-1.3l3.6-3.6L17.5,73.1l-9.2,9.2c-0.2,0.2-0.4,0.3-0.6,0.3
	c-0.3,0-0.5-0.1-0.6-0.3c-0.3-0.4-0.3-1,0-1.3l9.2-9.2L15.4,71c-0.3-0.4-0.3-1,0-1.3l9.7-9.8c0.2-0.1,0.4-0.2,0.7-0.2
	c0.2,0,0.5,0.1,0.6,0.2l1.6,1.6l1.3-7l4.1-8.1v-6.7l-1.2-4.8h-8l-7-5.6h-4.8v-1.8h83l0.1,1.8h-4.8l-7,5.6h-8.3l-4.1,10.8l-8.6,12.8
	L43.9,77.3l2.3,2.3c0.3,0.4,0.3,1,0,1.3l-9.8,9.8c-0.2,0.2-0.4,0.3-0.6,0.3c-0.3,0-0.5-0.1-0.6-0.3l-0.8-0.8l-3.6,3.6
	C30.5,93.6,30.4,93.7,30.1,93.7z M17.4,70.4l18.3,18.3l8.5-8.5L25.9,61.9L17.4,70.4z M30.9,55.2L29.6,63l13.1,13.2l18.9-19L70,44.8
	l3.8-9.9h-5.4L63,44.3l-7.3,5.9l-6.1,1.5l-6.3-3.2l-1.5-8.9l-1.2-4.8H34l1.1,4.8v7.1L30.9,55.2z M43.6,39.4l1.2,8l4.7,2.3l6.4-6.4
	l3.6-8.4H42.4L43.6,39.4z M52.5,49.1l2.3-0.6l6.8-5.3l4.8-8.3h-5l-4,9.4L52.5,49.1z M24.8,33.1h58.1l4.9-3.8H20L24.8,33.1z"/>
<path class="st0" d="M37.1,81.1c-0.3,0-0.5-0.1-0.6-0.3L33.6,78c-0.3-0.4-0.3-1,0-1.3c0.2-0.1,0.4-0.2,0.7-0.2
	c0.2,0,0.5,0.1,0.6,0.2l2.8,2.8c0.3,0.4,0.3,1,0,1.3C37.5,81,37.4,81.1,37.1,81.1z"/>
<rect x="25.7" y="15.3" transform="matrix(0.7071 -0.7071 0.7071 0.7071 -4.8013 23.9947)" class="st0" width="1.8" height="4.9"/>
<rect x="39" y="7.5" transform="matrix(0.8944 -0.4473 0.4473 0.8944 -0.3101 18.9002)" class="st0" width="1.8" height="5.3"/>
<rect x="78.8" y="17" transform="matrix(0.7071 -0.7071 0.7071 0.7071 11.1639 62.6743)" class="st0" width="4.9" height="1.8"/>
<rect x="65.3" y="9.2" transform="matrix(0.4474 -0.8944 0.8944 0.4474 28.4903 66.3905)" class="st0" width="5.3" height="1.8"/>
<rect x="53" y="5.1" class="st0" width="1.8" height="4.6"/>
</svg>
