<svg xmlns="http://www.w3.org/2000/svg" data-name="Layer 1" viewBox="0 0 100 100" x="0px" y="0px"><title>01-01</title><path d="M95.88,38.59a25.52,25.52,0,0,0-7.5-18.17c-9-9-24.34-8.63-34.94.6-6-5.37-11.62-8.1-16.76-8.1A25.6,25.6,0,0,0,11,38.59a25.9,25.9,0,0,0,1,7.16H6.12a2,2,0,0,0,0,4h7.42a25.73,25.73,0,0,0,5,7L48.64,85.17a7,7,0,0,0,9.6,0L88.39,56.76A25.51,25.51,0,0,0,93.69,49a2,2,0,0,0,.46-1.12A25.82,25.82,0,0,0,95.88,38.59ZM15,38.59A21.6,21.6,0,0,1,36.68,16.92c4.41,0,9.73,2.86,15.38,8.27a2,2,0,0,0,2.79,0c7.89-7.8,21.87-10.75,30.7-1.92a21.55,21.55,0,0,1,6.32,15.35,21.89,21.89,0,0,1-1.22,7.16H77.08L70.62,35a2,2,0,0,0-3.61.4L60.15,56,55.6,45.31a2,2,0,0,0-1.84-1.21H47.16a2,2,0,0,0-1.67.9l-3.4,5.15L37.31,35.9a2,2,0,0,0-3.68-.27L28.47,45.75H16.23A21.82,21.82,0,0,1,15,38.59ZM85.6,53.89,55.5,82.26a3,3,0,0,1-4.12,0l-30-28.33a21.58,21.58,0,0,1-3.24-4.18H29.69a2,2,0,0,0,1.78-1.09l3.56-7L39.6,55.3a2,2,0,0,0,3.56.47l5.07-7.67h4.21l6.09,14.26a2,2,0,0,0,1.84,1.21h.08a2,2,0,0,0,1.82-1.36l7.16-21.4,4.81,8a2,2,0,0,0,1.71,1H88.8A21.34,21.34,0,0,1,85.6,53.89Z"></path></svg>