<svg xmlns="http://www.w3.org/2000/svg" viewBox="0 0 32 28" x="0px" y="0px"><path fill="#000" fill-rule="evenodd" d="M27 25.82a3.598 3.598 0 0 1-2 0v-2.406l1-1 1 1v2.406zm3.553-19.162L18.342.552a5.335 5.335 0 0 0-4.684 0L1.446 6.658A2.608 2.608 0 0 0 0 9c0 .997.555 1.894 1.447 2.341L5 13.118V19c0 3.364 4.832 6 11 6 1.853 0 3.678-.245 5.278-.708l-.556-1.922C19.3 22.782 17.667 23 16 23c-5.304 0-9-2.109-9-4v-4.882l6.658 3.33A5.274 5.274 0 0 0 16 18c.809 0 1.618-.192 2.342-.553l4.105-2.053-.894-1.789-4.106 2.053a3.29 3.29 0 0 1-2.894 0L2.343 9.552A.613.613 0 0 1 2 9c0-.236.131-.448.342-.553l12.211-6.106a3.29 3.29 0 0 1 2.894 0l12.21 6.106A.613.613 0 0 1 30 9a.614.614 0 0 1-.342.552l-3.726 1.864-9.602-3.36-.66 1.888L25 13.21v7.376l-2 2v4.532l.553.276c.124.062 1.246.606 2.447.606s2.323-.544 2.447-.606l.553-.276v-4.532l-2-2v-7.468l3.554-1.777A2.607 2.607 0 0 0 32 9.001c0-.998-.555-1.896-1.447-2.343z"></path></svg>