<?xml version="1.0" encoding="utf-8"?>
<!-- Generator: Adobe Illustrator 20.1.0, SVG Export Plug-In . SVG Version: 6.00 Build 0)  -->
<!DOCTYPE svg PUBLIC "-//W3C//DTD SVG 1.1//EN" "http://www.w3.org/Graphics/SVG/1.1/DTD/svg11.dtd">
<svg version="1.1" id="Layer_1" xmlns="http://www.w3.org/2000/svg" xmlns:xlink="http://www.w3.org/1999/xlink" x="0px" y="0px"
	 viewBox="0 0 200 200" style="enable-background:new 0 0 200 200;" xml:space="preserve">
<title>2016AR_icons</title>
<path d="M155.9,169.1c-1,0-1.9-0.3-2.6-1L92,116v49c0,1.7-1.4,3.1-3.1,3.1s-3.1-1.4-3.1-3.1v-8.9H38v8.9c0,1.7-1.4,3.1-3.1,3.1
	s-3.1-1.4-3.1-3.1V66l-2.1,2.1c-0.7,0.6-1.7,0.9-2.7,0.9c-1.2,0-2.2-0.5-3-1.3c-1.5-1.7-1.4-4.3,0.3-5.8l34.5-31
	c0.8-0.7,1.7-1,2.7-1c1,0,2,0.4,2.7,1l34.5,31c1.4,1.4,1.6,3.6,0.5,5.3c-0.8,1.1-2,1.7-3.3,1.7c-0.9,0-1.7-0.3-2.4-0.8l-1.4-1v14.1
	l0.3,0.3c0.1,0.1,0.3,0.2,0.4,0.3l64.9,56H175c1.1,0,2.2,0.4,2.9,1.2c0.7,0.8,1.1,1.8,1.1,2.9l0,23c0,2.3-1.8,4.1-4.1,4.1H155.9z
	 M94.1,106.8l63.4,54.1h13.4v-14.8H156c-0.9,0-1.9-0.4-2.6-1L94.1,93.9V106.8z M38.1,147.9h47.8v-13.8H38.1V147.9z M38.1,125.9h47.8
	v-14.8H38.1V125.9z M38.1,60.6v42.3h47.8V61.4L61.5,39.5L38.1,60.6z M62,90.6c-8.1,0-14.6-6.5-14.6-14.6S53.9,61.4,62,61.4
	S76.6,67.9,76.6,76S70.1,90.6,62,90.6z M62,65.6c-5.7,0-10.4,4.7-10.4,10.4S56.3,86.4,62,86.4S72.4,81.7,72.4,76S67.7,65.6,62,65.6z
	"/>
</svg>
