<?xml version="1.0" encoding="utf-8"?>
<!-- Generator: Adobe Illustrator 20.1.0, SVG Export Plug-In . SVG Version: 6.00 Build 0)  -->
<!DOCTYPE svg PUBLIC "-//W3C//DTD SVG 1.1//EN" "http://www.w3.org/Graphics/SVG/1.1/DTD/svg11.dtd">
<svg version="1.1" id="Layer_1" xmlns="http://www.w3.org/2000/svg" xmlns:xlink="http://www.w3.org/1999/xlink" x="0px" y="0px"
	 viewBox="0 0 100 100" style="enable-background:new 0 0 100 100;" xml:space="preserve">
<style type="text/css">
	.st0{display:none;}
	.st1{display:inline;}
</style>
<g class="st0">
	<rect x="-146.4" y="-794.4" class="st1" width="1249.4" height="810.7"/>
</g>
<path d="M34.6,93.4c-0.7,0-1.3-0.3-1.8-0.7L26,85.8l-1.9,1.9c-0.9,0.9-2,1.4-3.3,1.4s-2.4-0.5-3.3-1.4l-5.8-5.8
	c-0.9-0.9-1.4-2-1.4-3.3s0.5-2.4,1.4-3.3l1.9-1.9l-6.3-6.3c-1-1-1-2.6,0-3.5l6.2-6.2l-2.3-2.3c-0.6-0.6-0.9-1.3-0.9-2.1
	c0-0.8,0.3-1.5,0.9-2.1l8.7-8.7c0.6-0.6,1.3-0.9,2.1-0.9s1.5,0.3,2.1,0.9l10,10l20.2-20.2l-10-10c-0.6-0.6-0.9-1.3-0.9-2.1
	s0.3-1.5,0.9-2.1L53,9.2c0.6-0.6,1.3-0.9,2.1-0.9c0.8,0,1.5,0.3,2.1,0.9l2.3,2.3l6.2-6.2c0.5-0.5,1.1-0.7,1.8-0.7
	c0.7,0,1.3,0.3,1.8,0.7l6.3,6.3l1.9-1.9c0.9-0.9,2-1.4,3.3-1.4c1.2,0,2.4,0.5,3.3,1.4l5.8,5.8c0.9,0.9,1.4,2,1.4,3.3
	s-0.5,2.4-1.4,3.3L87.8,24l6.9,6.9c1,1,1,2.6,0,3.5l-6.2,6.2l2.3,2.3c1.2,1.2,1.2,3,0,4.2l-8.7,8.7c-0.6,0.6-1.3,0.9-2.1,0.9
	c-0.8,0-1.5-0.3-2.1-0.9l-10-10L47.7,65.9l10,10c1.2,1.2,1.2,3,0,4.2L49,88.8c-0.6,0.6-1.3,0.9-2.1,0.9c-0.8,0-1.5-0.3-2.1-0.9
	l-2.3-2.3l-6.2,6.2C35.9,93.1,35.3,93.4,34.6,93.4z M9.1,65.4l25.5,25.5l6.1-6.1L15.3,59.3L9.1,65.4z M46.9,87.3l9.3-9.3L22,43.8
	l-9.3,9.3l4.5,4.5L46.9,87.3z M13.5,77.2c-0.4,0.4-0.6,0.9-0.6,1.5s0.2,1.1,0.6,1.5l5.8,5.8c0.4,0.4,0.9,0.6,1.5,0.6
	c0.6,0,1.1-0.2,1.5-0.6l1.9-1.9l-8.8-8.8L13.5,77.2z M35.9,54.1l10.1,10.1l20.2-20.2L56.1,33.9L35.9,54.1z M45.8,20L80,54.2l9.3-9.3
	L55.1,10.7L45.8,20z M61.3,13.3l25.5,25.5l6.1-6.1L67.4,7.1L61.3,13.3z M80.7,10.9c-0.6,0-1.1,0.2-1.5,0.6l-1.9,1.9l8.8,8.8l1.9-1.9
	c0.4-0.4,0.6-0.9,0.6-1.5s-0.2-1.1-0.6-1.5l-5.8-5.8C81.8,11.1,81.2,10.9,80.7,10.9z"/>
</svg>
