<?xml version="1.0" encoding="utf-8"?>
<!-- Generator: Adobe Illustrator 20.1.0, SVG Export Plug-In . SVG Version: 6.00 Build 0)  -->
<!DOCTYPE svg PUBLIC "-//W3C//DTD SVG 1.1//EN" "http://www.w3.org/Graphics/SVG/1.1/DTD/svg11.dtd">
<svg version="1.1" id="Layer_1" xmlns="http://www.w3.org/2000/svg" xmlns:xlink="http://www.w3.org/1999/xlink" x="0px" y="0px"
	 viewBox="0 0 32 28" style="enable-background:new 0 0 32 28;" xml:space="preserve">
<path d="M26.1,27.4c-1.1,0-2.2-0.5-2.2-0.6l-0.3-0.1v-4l2-2v-7.9l-9.2-3.2l0.3-0.9l9.3,3.3l3.9-2c0.4-0.2,0.6-0.6,0.6-1
	c0-0.4-0.2-0.8-0.6-1L17.7,1.8c-0.5-0.3-1.1-0.4-1.7-0.4s-1.2,0.1-1.7,0.4L2.2,7.9c-0.4,0.2-0.6,0.6-0.6,1c0,0.4,0.2,0.8,0.6,1
	L14.4,16c0.5,0.3,1.1,0.4,1.7,0.4s1.2-0.1,1.7-0.4l3.7-1.8l0.4,0.9l-3.7,1.8c-0.7,0.3-1.4,0.5-2.1,0.5c-0.7,0-1.5-0.2-2.1-0.5
	l-7.4-3.7v5.7c0,2.2,3.8,4.5,9.5,4.5c1.5,0,3-0.2,4.4-0.5l0.3,1c-1.4,0.4-3,0.6-4.7,0.6c-5.8,0-10.5-2.5-10.5-5.5v-6.2l-3.8-1.9
	C1,10.4,0.6,9.7,0.6,8.9C0.6,8.1,1,7.4,1.7,7L14,0.9c0.7-0.3,1.4-0.5,2.1-0.5s1.5,0.2,2.1,0.5L30.4,7c0.7,0.4,1.2,1.1,1.2,1.9
	c0,0.8-0.4,1.5-1.2,1.9l-3.8,1.9v8l2,2v4l-0.3,0.1C28.2,26.9,27.2,27.4,26.1,27.4z M24.6,23.1v3l0.4,0.1c0.4,0.1,0.8,0.2,1.1,0.2
	s0.8-0.1,1.1-0.2l0.4-0.1v-3l-1.5-1.5L24.6,23.1z"/>
</svg>
