<?xml version="1.0" encoding="utf-8"?>
<!-- Generator: Adobe Illustrator 20.1.0, SVG Export Plug-In . SVG Version: 6.00 Build 0)  -->
<!DOCTYPE svg PUBLIC "-//W3C//DTD SVG 1.1//EN" "http://www.w3.org/Graphics/SVG/1.1/DTD/svg11.dtd">
<svg version="1.1" id="Layer_1" xmlns="http://www.w3.org/2000/svg" xmlns:xlink="http://www.w3.org/1999/xlink" x="0px" y="0px"
	 viewBox="0 0 100 100" style="enable-background:new 0 0 100 100;" xml:space="preserve">
<title>01-01</title>
<path d="M54.4,85.5c-1.6,0-3.2-0.6-4.4-1.7L20,55.3c-2-2-3.6-4.3-4.9-6.8l-0.2-0.3H7.1c-0.8,0-1.4-0.6-1.4-1.4s0.6-1.4,1.4-1.4h6.7
	l-0.2-0.8c-0.7-2.3-1-4.6-1-7v-0.2c0-13.7,11.3-24.9,25-24.9c5,0,10.5,2.7,16.4,7.9l0.4,0.4l0.4-0.3c5.2-4.5,11.6-7,18.2-7
	c6.2,0,11.8,2.3,15.9,6.4c4.7,4.7,7.3,11.1,7.3,17.7c0,3.1-0.6,6.2-1.7,9.1l0,0.1l0,0.1c0,0.3-0.1,0.6-0.3,0.8l-0.1,0.1l0,0.1
	c-1.2,2.8-3,5.4-5.2,7.6L58.8,83.7C57.6,84.9,56.1,85.5,54.4,85.5z M18.6,49.1c0.9,1.6,2,3,3.3,4.3l30,28.3c0.7,0.6,1.5,1,2.5,1
	c0.9,0,1.8-0.3,2.5-1L87,53.3c1.3-1.3,2.4-2.7,3.3-4.2l0.5-0.9H77c-0.5,0-0.9-0.3-1.2-0.7l-5.5-9.1L62.7,61c-0.2,0.5-0.7,0.9-1.3,1
	c-0.6,0-1.1-0.3-1.3-0.8l-6.2-14.6h-4.9l-5.2,7.9c-0.2,0.3-0.4,0.5-0.7,0.5c-0.1,0-0.3,0.1-0.4,0.1c-0.6,0-1.1-0.4-1.3-1l-5-15
	l-4.2,8.3c-0.2,0.5-0.7,0.8-1.2,0.8H18.1L18.6,49.1z M54.8,43.7c0.6,0,1.1,0.3,1.3,0.8l5.2,12.1l7.4-22.1c0.1-0.3,0.3-0.6,0.6-0.8
	c0.2-0.1,0.5-0.2,0.7-0.2c0.5,0,0.9,0.3,1.2,0.7l6.6,11.1h14.3l0.1-0.4c0.8-2.4,1.2-4.8,1.3-7.4c0-5.9-2.3-11.6-6.5-15.8
	c-3.7-3.7-8.4-5.6-13.7-5.6c-6.4,0-13.1,2.8-17.8,7.5c-0.3,0.3-0.6,0.4-1,0.4c-0.4,0-0.7-0.1-1-0.4c-5.8-5.5-11.2-8.4-15.8-8.4h-0.2
	c-12.2,0-22.2,10-22.1,22.3c0,2.5,0.4,5,1.3,7.4l0.1,0.4h13l5.3-10.4c0.2-0.3,0.5-0.6,0.8-0.7c0.1,0,0.3-0.1,0.4-0.1
	c0.6,0,1.1,0.4,1.3,1l5.2,15.4l4.1-6.2c0.3-0.4,0.7-0.6,1.2-0.6H54.8z"/>
</svg>
