<?xml version="1.0" encoding="utf-8"?>
<!-- Generator: Adobe Illustrator 20.1.0, SVG Export Plug-In . SVG Version: 6.00 Build 0)  -->
<!DOCTYPE svg PUBLIC "-//W3C//DTD SVG 1.1//EN" "http://www.w3.org/Graphics/SVG/1.1/DTD/svg11.dtd">
<svg version="1.1" id="custom-color" xmlns="http://www.w3.org/2000/svg" xmlns:xlink="http://www.w3.org/1999/xlink" x="0px"
	 y="0px" viewBox="0 0 150 150" style="enable-background:new 0 0 150 150;" xml:space="preserve">
<style type="text/css">
	.st0{fill:#556C11;}
</style>
<path class="st0" d="M24.2,72H12c-1.7,0-3,1.3-3,3s1.3,3,3,3h12.1c0-0.8-0.1-1.6-0.1-2.5C24,74.3,24.1,73.2,24.2,72z"/>
<path class="st0" d="M78,24.1V12c0-1.7-1.3-3-3-3s-3,1.3-3,3v12.2c1.2-0.1,2.3-0.2,3.5-0.2C76.3,24,77.2,24.1,78,24.1z"/>
<path class="st0" d="M138,72h-11.2c0.1,1.2,0.2,2.3,0.2,3.5c0,0.8-0.1,1.7-0.1,2.5H138c1.6,0,3-1.3,3-3S139.6,72,138,72z"/>
<path class="st0" d="M72,126.8V138c0,1.6,1.3,3,3,3s3-1.4,3-3v-11.1c-0.8,0-1.6,0.1-2.5,0.1C74.3,127,73.2,126.9,72,126.8z"/>
<path class="st0" d="M72,24.2C46.4,25.9,25.9,46.4,24.2,72H72C72,72,72,24.2,72,24.2z"/>
<path class="st0" d="M126.8,72c-1.8-25.9-22.8-46.6-48.8-47.9V72H126.8z"/>
<path class="st0" d="M24.1,78c1.3,26.1,21.9,47.1,47.9,48.8V78C72,78,24.1,78,24.1,78z"/>
<path class="st0" d="M78,126.9c26.4-1.3,47.6-22.5,48.9-48.9H78V126.9z"/>
</svg>
