<?xml version="1.0" encoding="utf-8"?>
<!-- Generator: Adobe Illustrator 20.1.0, SVG Export Plug-In . SVG Version: 6.00 Build 0)  -->
<!DOCTYPE svg PUBLIC "-//W3C//DTD SVG 1.1//EN" "http://www.w3.org/Graphics/SVG/1.1/DTD/svg11.dtd">
<svg version="1.1" id="Layer_1" xmlns="http://www.w3.org/2000/svg" xmlns:xlink="http://www.w3.org/1999/xlink" x="0px" y="0px"
	 viewBox="0 0 200 95" style="enable-background:new 0 0 200 95;" xml:space="preserve">
<g id="Sun">
	<g>
		<path d="M118.7,47.5c0-1.3-0.8-2.1-2.1-2.1H104c-1.3,0-2.1,0.8-2.1,2.1s0.8,2.1,2.1,2.1h12.6C117.7,49.6,118.7,48.8,118.7,47.5z
			 M171.9,26.7l8.8-8.8c0.8-0.8,0.8-2.1,0-2.9c-0.8-0.8-2.1-0.8-2.9,0l-8.8,8.8c-0.8,0.8-0.8,2.1,0,2.9S171.1,27.5,171.9,26.7z
			 M124.4,68.3l-8.8,8.8c-0.8,0.8-0.8,2.1,0,2.9c0.8,0.8,2.1,0.8,2.9,0l8.8-8.8c0.8-0.8,0.8-2.1,0-2.9
			C126.5,67.5,125,67.5,124.4,68.3z M148.2,18.1c1.3,0,2.1-0.8,2.1-2.1V3.3c0-1.3-0.8-2.1-2.1-2.1s-2.1,0.8-2.1,2.1V16
			C146.1,17.2,146.9,18.1,148.2,18.1z M124.4,26.7c0.8,0.8,2.1,0.8,2.9,0c0.8-0.8,0.8-2.1,0-2.9l-8.8-8.8c-0.8-0.8-2.1-0.8-2.9,0
			c-0.8,0.8-0.8,2.1,0,2.9L124.4,26.7z M192.3,45.4h-12.6c-1.3,0-2.1,0.8-2.1,2.1s0.8,2.1,2.1,2.1h12.6c1.3,0,2.1-0.8,2.1-2.1
			S193.4,45.4,192.3,45.4z M171.9,68.3c-0.8-0.8-2.1-0.8-2.9,0s-0.8,2.1,0,2.9l8.8,8.8c0.8,0.8,2.1,0.8,2.9,0c0.8-0.8,0.8-2.1,0-2.9
			L171.9,68.3z M148.2,76.9c-1.3,0-2.1,0.8-2.1,2.1v12.6c0,1.3,0.8,2.1,2.1,2.1s2.1-0.8,2.1-2.1V79
			C150.3,77.8,149.2,76.9,148.2,76.9z M148.2,22.3c-13.9,0-25.2,11.4-25.2,25.2s11.4,25.2,25.2,25.2c13.9,0,25.2-11.4,25.2-25.2
			S162,22.3,148.2,22.3z M148.2,68.5c-11.6,0-21-9.5-21-21s9.5-21,21-21c11.6,0,21,9.5,21,21S159.7,68.5,148.2,68.5z"/>
	</g>
</g>
<g id="Tree">
	<g>
		<path d="M76.3,73.8L76.3,73.8L65.5,55.9h4.6c1.3,0,2.1-0.8,2.1-2.1c0-0.4-0.2-0.8-0.4-1.3l0,0L61.7,39.1H66c1.3,0,2.1-0.8,2.1-2.1
			c0-0.6-0.2-1.3-0.6-1.5l0,0L55.9,22.3h3.8c1.3,0,2.1-0.8,2.1-2.1c0-0.6-0.2-1.1-0.6-1.5L44.3,1.9c-0.2-0.4-0.8-0.6-1.5-0.6
			c-0.6,0-1.1,0.2-1.5,0.6L24.5,18.7c-0.4,0.4-0.6,0.8-0.6,1.5c0,1.3,0.8,2.1,2.1,2.1h3.8L18.2,35.5l0,0c-0.4,0.4-0.6,0.8-0.6,1.5
			c0,1.3,0.8,2.1,2.1,2.1h4.2L13.8,52.5l0,0c-0.2,0.4-0.4,0.8-0.4,1.3c0,1.3,0.8,2.1,2.1,2.1h4.6L9.4,73.8l0,0
			C9.2,74.2,9,74.4,9,74.8c0,1.3,0.8,2.1,2.1,2.1h23.1v14.7c0,1.3,0.8,2.1,2.1,2.1h12.6c1.3,0,2.1-0.8,2.1-2.1V76.9h23.1
			c1.3,0,2.1-0.8,2.1-2.1C76.5,74.4,76.5,74,76.3,73.8z M47,89.6h-8.4V76.9H47V89.6z M15.1,72.7l10.7-17.9l0,0
			c0.2-0.4,0.4-0.6,0.4-1.1c0-1.3-0.8-2.1-2.1-2.1h-4.2L30,38.2l0,0c0.2-0.4,0.4-0.8,0.4-1.3c0-1.3-0.8-2.1-2.1-2.1h-3.8l11.6-13.2
			l0,0c0.4-0.4,0.6-0.8,0.6-1.5c0-1.3-0.8-2.1-2.1-2.1h-3.4L43,6.3l11.8,11.8h-3.4c-1.3,0-2.1,0.8-2.1,2.1c0,0.6,0.2,1.3,0.6,1.5
			l0,0l11.4,13.2h-3.8c-1.3,0-2.1,0.8-2.1,2.1c0,0.4,0.2,0.8,0.4,1.3l0,0L66,51.7h-4.2c-1.3,0-2.1,0.8-2.1,2.1
			c0,0.4,0.2,0.8,0.4,1.1l0,0l10.7,17.9H15.1z"/>
	</g>
</g>
</svg>
