<?xml version="1.0" encoding="utf-8"?>
<!-- Generator: Adobe Illustrator 20.1.0, SVG Export Plug-In . SVG Version: 6.00 Build 0)  -->
<!DOCTYPE svg PUBLIC "-//W3C//DTD SVG 1.1//EN" "http://www.w3.org/Graphics/SVG/1.1/DTD/svg11.dtd">
<svg version="1.1" id="Layer_1" xmlns="http://www.w3.org/2000/svg" xmlns:xlink="http://www.w3.org/1999/xlink" x="0px" y="0px"
	 viewBox="0 0 24 24" style="enable-background:new 0 0 24 24;" xml:space="preserve">
<style type="text/css">
	.st0{fill:#E5CA3A;}
	.st1{fill:#FFFFFF;}
</style>
<g>
	<rect class="st0" width="24" height="24"/>
	<g>
		<path class="st1" d="M18.6,6.1c-0.6,0.3-1.2,0.6-1.9,0.7c-0.5-0.6-1.3-0.9-2.2-0.9c-1.7,0-3,1.3-3,3c0,0.2,0,0.5,0.1,0.7
			C9.1,9.4,6.9,8.2,5.4,6.4C5.2,6.8,5,7.3,5,7.9c0,1,0.5,1.9,1.3,2.5c-0.5,0-1-0.1-1.4-0.4l0,0c0,1.4,1,2.6,2.4,2.9
			C7.2,13,6.9,13,6.6,13c-0.2,0-0.4,0-0.6-0.1c0.4,1.2,1.5,2,2.8,2.1c-1,0.8-2.3,1.3-3.7,1.3c-0.2,0-0.5,0-0.7,0
			c1.3,0.8,2.9,1.3,4.6,1.3c5.5,0,8.5-4.5,8.5-8.4c0-0.1,0-0.3,0-0.4c0.6-0.4,1.1-0.9,1.5-1.5c-0.5,0.2-1.1,0.4-1.7,0.5
			C17.9,7.3,18.4,6.8,18.6,6.1z"/>
	</g>
</g>
</svg>
