<?xml version="1.0" encoding="utf-8"?>
<!-- Generator: Adobe Illustrator 20.1.0, SVG Export Plug-In . SVG Version: 6.00 Build 0)  -->
<!DOCTYPE svg PUBLIC "-//W3C//DTD SVG 1.1//EN" "http://www.w3.org/Graphics/SVG/1.1/DTD/svg11.dtd">
<svg version="1.1" id="Icons" xmlns="http://www.w3.org/2000/svg" xmlns:xlink="http://www.w3.org/1999/xlink" x="0px" y="0px"
	 viewBox="0 0 35 35" style="enable-background:new 0 0 35 35;" xml:space="preserve">
<style type="text/css">
	.st0{fill:#556C11}
</style>
<g>
	<polygon class="st0" points="19.3,12.7 15.1,12.7 15.1,23.2 10.9,23.2 17.2,31.6 23.5,23.2 19.3,23.2 	"/>
	<path class="st0" d="M29.8,11.8l0-0.1c0-5.2-4.2-9.5-9.5-9.5c-3.5,0-6.5,1.9-8.2,4.8c-0.7-0.4-1.5-0.6-2.3-0.6
		c-2.9,0-5.3,2.4-5.3,5.3l0,0.1C2,13.2,0.3,15.9,0.3,19c0,4.6,3.8,8.4,8.4,8.4v-2.1c-3.5,0-6.3-2.8-6.3-6.3c0-2.2,1.2-4.3,3.2-5.4
		l1-0.6v-1.2l0-0.2c0.1-1.7,1.4-3.1,3.2-3.1c0.5,0,0.9,0.1,1.4,0.3L13,9.7L14,8c1.3-2.3,3.7-3.7,6.4-3.7c4,0,7.3,3.2,7.4,7.2l0,0.1
		V13l1,0.6c2,1.1,3.2,3.2,3.2,5.4c0,3.5-2.8,6.3-6.3,6.3v2.1c4.6,0,8.4-3.8,8.4-8.4C34,15.9,32.3,13.2,29.8,11.8z"/>
</g>
</svg>
