<?xml version="1.0" encoding="utf-8"?>
<!-- Generator: Adobe Illustrator 20.1.0, SVG Export Plug-In . SVG Version: 6.00 Build 0)  -->
<!DOCTYPE svg PUBLIC "-//W3C//DTD SVG 1.1//EN" "http://www.w3.org/Graphics/SVG/1.1/DTD/svg11.dtd">
<svg version="1.1" id="quality-statement" xmlns="http://www.w3.org/2000/svg" xmlns:xlink="http://www.w3.org/1999/xlink" x="0px"
	 y="0px" viewBox="0 0 200.2 200.2" style="enable-background:new 0 0 200.2 200.2;" xml:space="preserve">
<style type="text/css">
	.st0{fill:#556C11;}
</style>
<g>
	<path class="st0" d="M100.1,166.3c-36.6,0-66.2-29.7-66.2-66.2s29.7-66.2,66.2-66.2s66.2,29.7,66.2,66.2S136.6,166.3,100.1,166.3z
		 M100.1,38.1c-34.3,0-62,27.8-62,62s27.8,62,62,62s62-27.8,62-62S134.3,38.1,100.1,38.1z"/>
</g>
<g>
	<path class="st0" d="M100.1,192c-3.6,0-7.3-1-10.2-3.3l-17.5-13.2c-1.7-1.3-3.8-2.1-6.1-2.5l-21.7-2.9c-7.5-1-13.4-7.1-14.4-14.4
		L27.2,134c-0.2-2.1-1.3-4.2-2.5-6.1l-13.2-17.5c-4.6-6.1-4.6-14.4,0-20.5l13.2-17.5c1.3-1.7,2.1-3.8,2.5-6.1l2.9-21.7
		c1-7.5,7.1-13.4,14.4-14.4l21.7-2.9c2.1-0.2,4.2-1.3,6.1-2.5l17.5-13.2c6.1-4.6,14.4-4.6,20.5,0l17.5,13.2c1.7,1.3,3.8,2.1,6.1,2.5
		l21.7,2.9c7.5,1,13.4,7.1,14.4,14.4l2.9,21.7c0.2,2.1,1.3,4.2,2.5,6.1l13.2,17.5c4.6,6.1,4.6,14.4,0,20.5l-13.2,17.5
		c-1.3,1.7-2.1,3.8-2.5,6.1l-2.9,21.7c-1,7.5-7.1,13.4-14.4,14.4l-21.7,2.9c-2.1,0.2-4.2,1.3-6.1,2.5l-17.5,13.2
		C107.4,191,103.6,192,100.1,192z M100.1,12.4c-2.7,0-5.4,0.8-7.7,2.5L74.8,28c-2.3,1.7-5,2.9-7.9,3.3l-21.7,2.9
		c-5.6,0.8-10.2,5.2-10.9,10.9l-2.9,21.7c-0.4,2.9-1.5,5.6-3.3,7.9L14.8,92.4c-3.3,4.6-3.3,10.9,0,15.5L28,125.4
		c1.7,2.3,2.9,5,3.3,7.9l2.9,21.7c0.8,5.6,5.2,10.2,10.9,10.9l21.7,2.9c2.9,0.4,5.6,1.5,7.9,3.3l17.5,13.2c4.6,3.3,10.9,3.3,15.5,0
		l17.5-13.2c2.3-1.7,5-2.9,7.9-3.3l21.7-2.9c5.6-0.8,10.2-5.2,10.9-10.9l2.9-21.7c0.4-2.9,1.5-5.6,3.3-7.9l13.2-17.5
		c3.3-4.6,3.3-10.9,0-15.5l-13.2-17.5c-1.7-2.3-2.9-5-3.3-7.9l-2.9-21.7c-0.8-5.6-5.2-10.2-10.9-10.9l-21.7-2.9
		c-2.9-0.4-5.6-1.5-7.9-3.3l-17.5-13.2C105.5,13.2,102.8,12.4,100.1,12.4z"/>
</g>
<path class="st0" d="M141.2,76.3c-4.2,0-7.7,3.3-7.7,7.7c0,1.5,0.4,2.7,1,3.8L114.7,108c-5.4-8.8-9-21.7-10.9-30.3
	c2.9-1.5,5-4.4,5-7.9c0-4.8-4-8.8-8.8-8.8s-8.8,4-8.8,8.8c0,3.6,2.1,6.5,5,7.9c-1.9,8.6-5.4,21.5-10.9,30.3L65.6,87.8
	c0.6-1,1-2.3,1-3.8c0-4.2-3.3-7.7-7.7-7.7s-7.7,3.3-7.7,7.7c0,4.2,3.3,7.7,7.7,7.7l0,0l14.2,48.1c0.2,0.8,1,1.5,2.1,1.5h49.9
	c0.8,0,1.7-0.6,2.1-1.5l14-48.3l0,0c4.2,0,7.7-3.3,7.7-7.7C148.8,79.6,145.4,76.3,141.2,76.3z M123.5,137.1H76.7L63.3,91.3
	l21.1,21.5c0.4,0.4,1,0.6,1.7,0.6c0.6,0,1.3-0.4,1.5-0.8c6.3-8.8,10.2-22.6,12.5-32.2c2.3,9.6,6.3,23.4,12.5,32.2
	c0.4,0.4,0.8,0.8,1.5,0.8c0.6,0,1.3-0.2,1.7-0.6l21.1-21.5L123.5,137.1z"/>
</svg>
